<svg xmlns="http://www.w3.org/2000/svg" xmlns:xlink="http://www.w3.org/1999/xlink" version="1.1" width="1000" height="1000" viewBox="0 0 1000 1000" xml:space="preserve">
<g transform="matrix(2.8323 0 0 2.8323 499.9978 486.3368)" id="613388">
<g style="" vector-effect="non-scaling-stroke">
<g transform="matrix(0.0667 0 0 -0.0667 -7.4181 1.7121)">
<path style="stroke: none; stroke-width: 1; stroke-dasharray: none; stroke-linecap: butt; stroke-dashoffset: 0; stroke-linejoin: miter; stroke-miterlimit: 4; is-custom-font: none; font-file-url: none; fill: rgb(255,255,255); fill-rule: nonzero; opacity: 1;" transform=" translate(-2887.8004, -2695.4256)" d="M 3735 4909 c -6 -7 -120 -13 -253 -13 c -133 -1 -242 -10 -242 -19 c 0 -10 -34 -15 -75 -13 c -87 5 -173 -22 -400 -126 c -91 -42 -172 -78 -180 -79 c -8 -2 -13 -11 -10 -21 c 3 -10 -5 -18 -17 -18 c -26 0 -149 -100 -125 -101 c 10 0 -10 -16 -43 -34 c -33 -18 -67 -31 -76 -29 c -10 3 -12 -2 -7 -11 c 6 -9 -29 -61 -78 -116 c -48 -54 -88 -105 -88 -113 c -1 -7 -13 -25 -27 -40 c -14 -14 -57 -89 -95 -166 c -38 -77 -76 -143 -84 -147 c -8 -3 -11 -13 -6 -21 c 5 -8 -4 -71 -20 -139 c -16 -68 -38 -205 -49 -305 c -16 -143 -36 -211 -90 -316 c -60 -114 -90 -256 -49 -232 c 15 10 79 -63 67 -76 c -6 -5 41 -9 102 -9 c 61 0 107 5 101 11 c -16 16 54 63 95 63 c 20 1 32 9 26 18 c -16 26 145 174 166 152 c 18 -18 31 -97 23 -139 c -2 -11 -3 -77 -1 -146 c 2 -73 -7 -139 -21 -155 c -13 -16 -17 -29 -9 -29 c 8 0 4 -13 -10 -30 c -14 -16 -18 -30 -10 -30 c 8 0 3 -15 -13 -34 c -16 -20 -17 -28 -3 -19 c 37 22 -28 -153 -76 -204 c -22 -24 -53 -43 -70 -43 c -16 0 -67 -19 -114 -43 c -46 -24 -86 -41 -89 -39 c -22 15 -313 -166 -406 -252 c -62 -58 -121 -99 -129 -91 c -9 8 -11 5 -4 -7 c 7 -12 -4 -39 -23 -61 c -41 -44 -95 -182 -112 -290 c -7 -40 -37 -98 -66 -128 c -30 -31 -44 -49 -30 -41 c 14 8 25 5 25 -7 c 0 -11 -8 -21 -18 -21 c -10 0 -24 -25 -31 -55 c -8 -30 -13 -55 -11 -55 c 1 0 -11 -27 -28 -59 c -17 -33 -23 -64 -12 -71 c 10 -6 11 -42 1 -86 c -11 -47 -10 -74 3 -74 c 11 0 15 -13 9 -29 c -6 -17 -2 -35 9 -42 c 12 -7 16 -26 10 -42 c -7 -16 -3 -24 7 -18 c 17 11 53 -63 45 -94 c -2 -8 3 -13 11 -10 c 24 7 106 -57 92 -72 c -8 -7 -6 -13 3 -13 c 35 0 130 123 130 169 c 0 26 10 74 23 105 c 13 31 26 68 28 82 c 9 43 68 124 91 124 c 11 0 15 8 9 19 c -10 16 76 121 100 121 c 5 0 47 27 92 60 c 46 33 93 60 106 60 c 13 0 43 18 67 41 c 24 22 44 36 44 31 c 0 -6 31 3 69 19 c 39 16 93 29 122 29 c 29 0 46 9 39 20 c -11 17 48 31 97 22 c 10 -2 28 5 40 15 c 38 29 290 69 473 74 c 93 3 170 7 170 9 c 0 13 134 10 143 -4 c 6 -10 21 -10 34 0 c 13 10 91 16 173 15 c 83 -1 161 6 175 16 c 14 10 32 13 39 6 c 7 -7 25 5 41 27 c 15 23 38 35 49 27 c 13 -8 16 -4 8 10 c -9 14 -1 23 18 23 c 18 0 27 8 21 18 c -6 9 7 22 29 28 c 22 6 40 4 40 -3 c 0 -7 29 -14 65 -15 c 36 -1 86 -8 113 -14 c 26 -7 42 -7 35 0 c -7 7 7 22 32 35 c 24 12 63 55 86 97 c 23 41 50 67 60 59 c 10 -8 6 0 -8 18 c -14 18 -17 38 -7 44 c 9 6 13 56 9 110 c -8 99 34 223 75 223 c 20 0 115 300 118 370 c 11 317 -1 694 -26 765 c -16 45 -24 87 -17 93 c 6 7 0 12 -14 12 c -91 0 71 316 164 319 c 8 1 15 11 15 23 c 0 12 23 49 50 82 c 28 33 45 68 39 78 c -6 10 3 18 20 18 c 17 0 31 13 31 29 c 0 16 18 41 40 57 c 22 15 35 32 30 38 c -6 5 12 34 40 64 c 27 30 50 67 50 83 c 0 16 8 29 17 29 c 16 0 20 16 25 105 c 3 61 -36 155 -64 155 c -12 0 -40 23 -62 50 c -21 28 -48 50 -59 50 c -36 0 -317 145 -317 164 c 0 10 -9 13 -19 7 c -11 -7 -49 0 -86 16 c -36 15 -111 27 -165 27 c -56 0 -101 10 -106 23 c -4 13 -16 18 -27 11 c -11 -6 -35 2 -55 20 c -19 18 -40 27 -47 21 z m -187 -283 c 24 -57 51 -111 61 -120 c 15 -15 12 12 -22 174 l -12 61 l 117 -13 c 143 -16 121 6 174 -181 l 44 -157 l 6 145 c 4 97 14 145 30 145 c 33 0 244 -67 349 -110 l 85 -34 l -82 -149 c -105 -191 -90 -203 45 -40 c 121 147 122 148 214 92 l 67 -41 l -49 -64 c -27 -35 -132 -183 -233 -329 c -102 -146 -189 -265 -193 -265 c -4 0 -30 21 -58 47 c -345 320 -1036 333 -1451 28 c -107 -79 -108 -79 -50 -15 c 134 147 374 267 598 300 l 102 15 l -121 3 c -423 8 -762 -269 -975 -797 c -106 -265 -217 -397 -364 -433 c -60 -14 -60 -14 32 84 c 108 117 151 226 166 419 c 25 313 181 742 249 683 c 68 -58 87 -58 43 2 l -45 61 l 86 101 c 99 119 99 119 194 47 c 74 -56 73 -33 -3 52 l -42 47 l 66 56 c 37 30 98 72 137 93 l 70 37 l 80 -86 c 98 -105 115 -99 48 18 c -67 117 -70 111 84 158 c 74 23 150 46 169 52 c 30 9 33 -5 22 -131 c -15 -176 -1 -178 55 -6 c 58 178 48 168 163 161 c 100 -6 100 -6 144 -110 z m 23 -699 c 204 -68 352 -198 456 -400 c 39 -78 24 -87 -144 -87 c -141 -1 -105 -31 60 -50 c 147 -17 151 -23 172 -260 c 23 -255 -30 -892 -74 -889 c -50 3 -121 166 -92 210 c 22 34 30 92 28 203 c -2 86 -7 129 -11 96 c -4 -33 -12 -73 -18 -90 c -10 -29 -131 163 -273 435 c -83 159 -88 157 -74 -30 c 14 -184 62 -288 199 -434 l 96 -101 l 7 -405 c 5 -223 3 -405 -4 -405 c -6 0 -53 48 -104 107 c -51 59 -144 141 -206 183 c -139 92 -194 146 -406 395 c -227 266 -227 244 -1 -115 c 41 -65 74 -121 72 -122 c -2 -2 -76 10 -164 26 c -156 28 -524 25 -685 -6 l -65 -13 l 29 68 c 70 169 116 407 110 577 c -10 317 -3 450 30 540 c 64 172 64 176 12 130 c -50 -45 -212 -255 -226 -295 c -5 -14 -16 -19 -25 -11 c -69 65 300 559 490 656 c 244 124 590 161 811 87 z m -432 -1881 c 221 -44 650 -224 616 -258 c -4 -4 -97 16 -206 44 c -703 181 -1717 12 -2117 -353 c -125 -115 -139 -109 -55 22 c 294 460 1037 690 1762 545 z m -27 -296 c 197 -37 428 -110 428 -134 c 0 -10 -16 -14 -35 -8 c -163 50 -629 55 -975 9 c -822 -107 -1410 -564 -1270 -986 c 33 -100 10 -113 -32 -18 c -217 491 301 1019 1132 1153 c 133 22 609 12 752 -16 z" stroke-linecap="round"/>
</g>
<g transform="matrix(0.0667 0 0 -0.0667 46.344 21.8065)">
<path style="stroke: none; stroke-width: 1; stroke-dasharray: none; stroke-linecap: butt; stroke-dashoffset: 0; stroke-linejoin: miter; stroke-miterlimit: 4; is-custom-font: none; font-file-url: none; fill: rgb(255,255,255); fill-rule: nonzero; opacity: 1;" transform=" translate(-3695.0971, -2393.0542)" d="M 3664 2585 l 113 -115 l 19 -190 l 18 -190 l 3 202 l 3 202 l -118 103 c -158 137 -178 131 -38 -12 z" stroke-linecap="round"/>
</g>
</g>
</g>
<g transform="matrix(1 0 0 1 500 823.6667)" style="" id="170768">
<path xml:space="preserve" font-family="Lato" font-size="100" font-style="normal" font-weight="bold" style="stroke: none; stroke-width: 1; stroke-dasharray: none; stroke-linecap: butt; stroke-dashoffset: 0; stroke-linejoin: miter; stroke-miterlimit: 4; is-custom-font: none; font-file-url: none; fill: rgb(255,255,255); fill-rule: nonzero; opacity: 1; white-space: pre;" d="M-173.00-40.89L-127.40-40.89L-127.40-30.19L-159.45-30.19L-159.45-10.14L-134.20-10.14L-134.20 0.21L-159.45 0.21L-159.45 20.66L-127.40 20.66L-127.40 31.41L-173.00 31.41L-173.00-40.89ZM-80.60-40.89L-52.20 31.41L-62.60 31.41Q-64.35 31.41-65.48 30.54Q-66.60 29.66-67.10 28.36L-67.10 28.36L-72.50 13.61L-102.45 13.61L-107.85 28.36Q-108.25 29.51-109.43 30.46Q-110.60 31.41-112.30 31.41L-112.30 31.41L-122.75 31.41L-94.35-40.89L-80.60-40.89ZM-90.20-19.84L-99.00 4.11L-75.95 4.11L-84.75-19.94Q-85.35-21.54-86.08-23.71Q-86.80-25.89-87.50-28.44L-87.50-28.44Q-88.20-25.89-88.88-23.69Q-89.55-21.49-90.20-19.84L-90.20-19.84ZM-2.70-34.09L-6.00-27.74Q-6.55-26.64-7.28-26.19Q-8.00-25.74-9.00-25.74L-9.00-25.74Q-10.00-25.74-11.25-26.51Q-12.50-27.29-14.20-28.24Q-15.90-29.19-18.18-29.96Q-20.45-30.74-23.55-30.74L-23.55-30.74Q-26.35-30.74-28.43-30.06Q-30.50-29.39-31.93-28.19Q-33.35-26.99-34.05-25.31Q-34.75-23.64-34.75-21.64L-34.75-21.64Q-34.75-19.09-33.33-17.39Q-31.90-15.69-29.55-14.49Q-27.20-13.29-24.20-12.34Q-21.20-11.39-18.08-10.31Q-14.95-9.24-11.95-7.81Q-8.95-6.39-6.60-4.21Q-4.25-2.04-2.83 1.11Q-1.40 4.26-1.40 8.76L-1.40 8.76Q-1.40 13.66-3.08 17.94Q-4.75 22.21-7.98 25.39Q-11.20 28.56-15.85 30.39Q-20.50 32.21-26.50 32.21L-26.50 32.21Q-29.95 32.21-33.30 31.54Q-36.65 30.86-39.73 29.61Q-42.80 28.36-45.48 26.61Q-48.15 24.86-50.25 22.71L-50.25 22.71L-46.35 16.26Q-45.80 15.56-45.03 15.09Q-44.25 14.61-43.30 14.61L-43.30 14.61Q-42.05 14.61-40.60 15.64Q-39.15 16.66-37.18 17.91Q-35.20 19.16-32.53 20.19Q-29.85 21.21-26.10 21.21L-26.10 21.21Q-20.35 21.21-17.20 18.49Q-14.05 15.76-14.05 10.66L-14.05 10.66Q-14.05 7.81-15.48 6.01Q-16.90 4.21-19.25 2.99Q-21.60 1.76-24.60 0.91Q-27.60 0.06-30.70-0.94Q-33.80-1.94-36.80-3.34Q-39.80-4.74-42.15-6.99Q-44.50-9.24-45.93-12.61Q-47.35-15.99-47.35-20.94L-47.35-20.94Q-47.35-24.89-45.78-28.64Q-44.20-32.39-41.18-35.29Q-38.15-38.19-33.75-39.94Q-29.35-41.69-23.70-41.69L-23.70-41.69Q-17.30-41.69-11.90-39.69Q-6.50-37.69-2.70-34.09L-2.70-34.09ZM2.80-40.89L59.85-40.89L59.85-29.84L38.10-29.84L38.10 31.41L24.65 31.41L24.65-29.84L2.80-29.84L2.80-40.89ZM68.40-40.89L114.00-40.89L114.00-30.19L81.95-30.19L81.95-10.14L107.20-10.14L107.20 0.21L81.95 0.21L81.95 20.66L114.00 20.66L114.00 31.41L68.40 31.41L68.40-40.89ZM145.30 3.16L139.55 3.16L139.55 31.41L126.10 31.41L126.10-40.89L148.15-40.89Q155.55-40.89 160.82-39.36Q166.10-37.84 169.47-35.09Q172.85-32.34 174.42-28.51Q176.00-24.69 176.00-20.09L176.00-20.09Q176.00-16.44 174.92-13.19Q173.85-9.94 171.82-7.29Q169.80-4.64 166.82-2.64Q163.85-0.64 160.05 0.56L160.05 0.56Q162.60 2.01 164.45 4.71L164.45 4.71L182.55 31.41L170.45 31.41Q168.70 31.41 167.47 30.71Q166.25 30.01 165.40 28.71L165.40 28.71L150.20 5.56Q149.35 4.26 148.32 3.71Q147.30 3.16 145.30 3.16L145.30 3.16ZM139.55-30.49L139.55-6.49L147.95-6.49Q151.75-6.49 154.57-7.44Q157.40-8.39 159.22-10.06Q161.05-11.74 161.95-14.04Q162.85-16.34 162.85-19.09L162.85-19.09Q162.85-24.59 159.22-27.54Q155.60-30.49 148.15-30.49L148.15-30.49L139.55-30.49Z"/></g>
<g transform="matrix(1 0 0 1 500 891.7079)" style="" id="917083">
<path xml:space="preserve" font-family="Lato" font-size="71" font-style="normal" font-weight="bold" style="stroke: none; stroke-width: 1; stroke-dasharray: none; stroke-linecap: butt; stroke-dashoffset: 0; stroke-linejoin: miter; stroke-miterlimit: 4; is-custom-font: none; font-file-url: none; fill: rgb(218,218,218); fill-rule: nonzero; opacity: 1; white-space: pre;" d="M-137.39 10.20L-137.39 10.20Q-136.60 10.20-136.04 10.80L-136.04 10.80L-132.27 14.88Q-135.40 18.75-139.96 20.81Q-144.52 22.87-150.91 22.87L-150.91 22.87Q-156.63 22.87-161.19 20.92Q-165.75 18.97-168.98 15.49Q-172.21 12.01-173.93 7.18Q-175.65 2.35-175.65-3.36L-175.65-3.36Q-175.65-9.15-173.74-13.96Q-171.82-18.77-168.34-22.25Q-164.86-25.73-160.02-27.66Q-155.17-29.60-149.31-29.60L-149.31-29.60Q-143.60-29.60-139.32-27.77Q-135.04-25.94-131.99-22.92L-131.99-22.92L-135.18-18.49Q-135.47-18.06-135.91-17.74Q-136.36-17.42-137.14-17.42L-137.14-17.42Q-137.95-17.42-138.81-18.06Q-139.66-18.70-140.97-19.44Q-142.28-20.19-144.29-20.83Q-146.30-21.47-149.38-21.47L-149.38-21.47Q-153.01-21.47-156.04-20.21Q-159.08-18.95-161.26-16.60Q-163.44-14.26-164.67-10.91Q-165.89-7.55-165.89-3.36L-165.89-3.36Q-165.89 0.97-164.67 4.34Q-163.44 7.71-161.35 10.02Q-159.25 12.33-156.41 13.55Q-153.57 14.78-150.31 14.78L-150.31 14.78Q-148.35 14.78-146.78 14.56Q-145.20 14.35-143.86 13.89Q-142.53 13.43-141.34 12.70Q-140.15 11.97-138.98 10.91L-138.98 10.91Q-138.63 10.59-138.24 10.39Q-137.85 10.20-137.39 10.20ZM-75.83-3.36L-75.83-3.36Q-75.83 2.28-77.71 7.09Q-79.59 11.90-83.00 15.42Q-86.41 18.93-91.20 20.90Q-95.99 22.87-101.81 22.87L-101.81 22.87Q-107.64 22.87-112.45 20.90Q-117.26 18.93-120.68 15.42Q-124.11 11.90-125.99 7.09Q-127.87 2.28-127.87-3.36L-127.87-3.36Q-127.87-9.01-125.99-13.82Q-124.11-18.63-120.68-22.14Q-117.26-25.66-112.45-27.63Q-107.64-29.60-101.81-29.60L-101.81-29.60Q-95.99-29.60-91.20-27.61Q-86.41-25.62-83.00-22.12Q-79.59-18.63-77.71-13.82Q-75.83-9.01-75.83-3.36ZM-85.63-3.36L-85.63-3.36Q-85.63-7.59-86.74-10.94Q-87.86-14.30-89.96-16.64Q-92.05-18.98-95.05-20.23Q-98.05-21.47-101.81-21.47L-101.81-21.47Q-105.58-21.47-108.59-20.23Q-111.61-18.98-113.72-16.64Q-115.84-14.30-116.97-10.94Q-118.11-7.59-118.11-3.36L-118.11-3.36Q-118.11 0.86-116.97 4.22Q-115.84 7.57-113.72 9.90Q-111.61 12.22-108.59 13.46Q-105.58 14.71-101.81 14.71L-101.81 14.71Q-98.05 14.71-95.05 13.46Q-92.05 12.22-89.96 9.90Q-87.86 7.57-86.74 4.22Q-85.63 0.86-85.63-3.36ZM-42.53 1.00L-42.53 1.00Q-41.93 2.14-41.41 3.36Q-40.90 4.59-40.40 5.83L-40.40 5.83Q-39.90 4.55-39.37 3.31Q-38.84 2.07-38.23 0.93L-38.23 0.93L-23.04-27.50Q-22.76-28.04-22.45-28.35Q-22.15-28.67-21.78-28.82Q-21.41-28.96-20.95-28.99Q-20.48-29.03-19.84-29.03L-19.84-29.03L-12.64-29.03L-12.64 22.30L-21.05 22.30L-21.05-10.85Q-21.05-11.78-21.00-12.88Q-20.95-13.98-20.84-15.11L-20.84-15.11L-36.35 14.00Q-36.88 14.99-37.74 15.54Q-38.59 16.09-39.72 16.09L-39.72 16.09L-41.04 16.09Q-42.17 16.09-43.03 15.54Q-43.88 14.99-44.41 14.00L-44.41 14.00L-60.14-15.22Q-60.00-14.05-59.94-12.93Q-59.89-11.81-59.89-10.85L-59.89-10.85L-59.89 22.30L-68.30 22.30L-68.30-29.03L-61.10-29.03Q-60.46-29.03-60.00-28.99Q-59.53-28.96-59.16-28.82Q-58.79-28.67-58.47-28.35Q-58.15-28.04-57.87-27.50L-57.87-27.50L-42.53 1.00ZM14.77 4.23L7.60 4.23L7.60 22.30L-1.95 22.30L-1.95-29.03L14.77-29.03Q19.92-29.03 23.68-27.82Q27.44-26.62 29.89-24.45Q32.34-22.28 33.51-19.27Q34.68-16.25 34.68-12.66L34.68-12.66Q34.68-8.94 33.44-5.83Q32.20-2.72 29.71-0.49Q27.23 1.75 23.50 2.99Q19.77 4.23 14.77 4.23L14.77 4.23ZM7.60-21.65L7.60-3.22L14.77-3.22Q17.39-3.22 19.35-3.88Q21.30-4.53 22.58-5.76Q23.86-6.98 24.49-8.74Q25.13-10.50 25.13-12.66L25.13-12.66Q25.13-14.72 24.49-16.39Q23.86-18.06 22.58-19.23Q21.30-20.40 19.35-21.02Q17.39-21.65 14.77-21.65L14.77-21.65L7.60-21.65ZM61.56-29.03L81.72 22.30L74.34 22.30Q73.09 22.30 72.30 21.68Q71.50 21.06 71.14 20.14L71.14 20.14L67.31 9.67L46.04 9.67L42.21 20.14Q41.93 20.95 41.09 21.63Q40.26 22.30 39.05 22.30L39.05 22.30L31.63 22.30L51.79-29.03L61.56-29.03ZM54.74-14.08L48.49 2.92L64.86 2.92L58.61-14.15Q58.18-15.29 57.67-16.83Q57.15-18.38 56.66-20.19L56.66-20.19Q56.16-18.38 55.68-16.82Q55.20-15.26 54.74-14.08L54.74-14.08ZM92.02-29.03L92.02-29.03Q92.65-29.03 93.08-28.98Q93.51-28.92 93.84-28.76Q94.18-28.60 94.50-28.30Q94.82-28.00 95.21-27.50L95.21-27.50L122.16 6.83Q122.01 5.58 121.96 4.39Q121.91 3.20 121.91 2.18L121.91 2.18L121.91-29.03L130.32-29.03L130.32 22.30L125.39 22.30Q124.25 22.30 123.50 21.95Q122.76 21.59 122.05 20.67L122.05 20.67L95.21-13.52Q95.32-12.38 95.37-11.26Q95.42-10.14 95.42-9.22L95.42-9.22L95.42 22.30L87.01 22.30L87.01-29.03L92.02-29.03ZM182.19-29.03L163.51 2.35L163.51 22.30L153.96 22.30L153.96 2.35L135.25-29.03L143.67-29.03Q144.91-29.03 145.64-28.43Q146.37-27.82 146.86-26.90L146.86-26.90L156.27-9.75Q157.09-8.23 157.69-6.86Q158.29-5.49 158.79-4.18L158.79-4.18Q159.25-5.53 159.84-6.89Q160.42-8.26 161.24-9.75L161.24-9.75L170.58-26.90Q170.97-27.68 171.75-28.35Q172.53-29.03 173.74-29.03L173.74-29.03L182.19-29.03Z"/></g>
</svg>
