<svg width="200px" viewBox="0 0 124 32"  xmlns="http://www.w3.org/2000/svg">
            <path fill="#D6DBE4" d="M17.1397 0.411008C18.76 0.365032 20.3849 0.368097 22.0052 0.404878C22.399 0.665406 22.7134 1.03628 23.0262 1.38722C23.0792 2.81247 23.034 4.24078 23.0449 5.66756C22.6823 6.0231 22.3429 6.4047 21.9476 6.72653C20.3507 6.77097 18.7475 6.74492 17.149 6.73572C17.1412 4.62697 17.1599 2.51976 17.1397 0.411008ZM18.3553 1.38263C18.181 2.79561 18.3024 4.22545 18.2697 5.6461C19.2689 5.6553 20.2682 5.65836 21.2659 5.65223C21.5787 5.69667 21.7593 5.40856 21.9383 5.20933C21.9974 4.21473 21.9492 3.21399 21.9616 2.21785C22.0192 1.85618 21.6955 1.63396 21.49 1.38876C20.4456 1.38876 19.4012 1.39948 18.3553 1.38263Z" fill="#D6DBE4"></path> <path d="M26.424 0.386487C27.9213 0.378825 29.4171 0.386487 30.9144 0.38189C31.5495 0.276146 31.839 0.939728 32.253 1.27841C32.239 1.95426 32.2763 2.63163 32.2405 3.30747C32.0024 3.68141 31.5417 3.86684 31.2319 4.18408C31.579 5.03616 32.0055 5.85759 32.2857 6.73726C31.8981 6.74492 31.5105 6.76637 31.1261 6.73572C30.6856 5.97559 30.3837 5.13424 30.1082 4.30361C29.2054 4.25764 28.2996 4.28063 27.3968 4.28676C27.3999 5.10512 27.403 5.92349 27.3906 6.74185C27.0777 6.74645 26.7649 6.74952 26.4536 6.75871C26.3929 4.63617 26.4489 2.51056 26.424 0.386487ZM27.3968 1.50829C27.3999 2.07686 27.3984 2.64542 27.4046 3.21399C28.4163 3.23238 29.428 3.23085 30.4397 3.22318C30.7479 3.27069 30.9347 3.00557 31.1292 2.82013C31.2117 2.51363 31.1728 2.1918 31.1868 1.87763C30.9954 1.7535 30.8631 1.47304 30.6031 1.4991C29.5354 1.48837 28.4661 1.48377 27.3968 1.50829Z" fill="#D6DBE4"></path> <path d="M46.2456 0.421735C47.8146 0.348174 49.3881 0.384955 50.9586 0.397215C51.3602 0.608703 51.6388 1.00563 51.9563 1.32439C52.0808 1.76269 51.9999 2.23777 52.0108 2.68987C52.0482 3.02549 51.4116 3.28295 51.7602 3.60325C52.2147 4.05534 52.1089 4.7128 52.1026 5.28902C52.1026 5.73959 51.7073 6.03843 51.4193 6.33574C51.1999 6.51504 50.9944 6.80162 50.6738 6.74798C49.2014 6.74032 47.729 6.76484 46.2565 6.73266C46.2503 4.62851 46.2705 2.52435 46.2456 0.4... [truncated]
          </svg>