<svg width="200px" viewBox="0 0 167 25"  xmlns="http://www.w3.org/2000/svg">
            <path fill="#D6DBE4" d="M153.622 19.6855C153.622 22.6557 153.371 22.7413 152.062 22.88L151.035 22.9922C150.836 23.1901 150.864 23.692 151.089 23.8041C152.34 23.747 154.04 23.7205 155.266 23.7205H158.439C161.697 23.7205 164.091 23.747 165.312 23.8041C165.704 23.0473 166.315 20.9196 166.484 19.7405C166.315 19.459 165.843 19.3774 165.592 19.5712C164.617 21.8437 164.007 22.6557 160.469 22.5985C158.131 22.5985 157.659 22.3741 157.322 21.9845C156.909 21.5071 156.852 20.4974 156.852 19.0673V15.5096C156.852 14.8099 156.879 14.7528 157.519 14.7528H158.856C161.278 14.7528 161.752 14.8099 161.949 15.9849L162.141 17.1069C162.366 17.2742 162.889 17.2742 163.031 17.0804C163.002 16.1828 162.948 15.1995 162.948 14.1388C162.948 13.0984 163.002 12.0886 163.031 11.3318C162.889 11.1094 162.366 11.1094 162.141 11.3073L161.949 12.2579C161.752 13.4656 161.278 13.4921 158.856 13.4921H157.519C156.879 13.4921 156.852 13.4656 156.852 12.7353V7.99641C156.852 6.40115 156.852 6.34403 158.048 6.34403H159.914C160.666 6.34403 161.499 6.40115 162.141 6.59698C163.031 6.82138 163.448 7.52109 163.894 9.14695C164.117 9.31626 164.67 9.26119 164.784 9.03475C164.617 7.83117 164.451 5.6178 164.34 5.14044C163.979 5.19552 162.366 5.22409 160.581 5.22409L155.266 5.22409C154.04 5.22409 152.733 5.19551 151.673 5.14044C151.45 5.2506 151.422 5.75651 151.616 5.95235L152.062 6.00743C153.371 6.20327 153.622 6.28895 153.622 9.26118V19.6855ZM147.448 12.2583C147.448 10.045 147.448 7.60719 147.839 6.73816C148.034 6.28936 148.506 6.17513 149.031 6.09353L149.677 5.95277C149.898 5.75489 149.842 5.28161 149.621 5.14086C148.62 5.1939 147.894 5.22246 146.697 5.22246C145.61 5.22246 144.579 5.19392 143.497 5.14086C143.217 5.22246 143.189 5.75489 143.44 5.95277L144.081 6.03641C144.778 6.14656 145.221 6.31589 145.471 6.73816C145.973 7.57863 146.002 10.1551 146.002 12.2583V17.7234C146.002 18.1702 146.002 18.313 145.918 18.3966C145.639 18.2273 143.049 15.255 141.882 13.9678L139.096 10.9425C138.121 9.87767 135.088 6.34444 134.822 5.95277C135.073 5.75489 135.045 5.22246 134.766 5.14086C133.682 5.19392 132.651 5.22246 131.566 5.22246C130.369 5.22246 129.643 5.1939 128.642 5.14086C128.421 5.28161 128.365 5.75489 128.586 5.95277L129.232 6.09353C129.757 6.17513 130.229 6.28936 130.424 6.73816C130.815 7.60719 130.815 10.045 130.815 12.2583V17.7234C130.815 18.1702 130.815 18.313 130.73 18.3966C130.451 18.2273 127.861 15.255 126.694 13.9678L123.908 10.9425C122.933 9.87767 119.9 6.34444 119.634 5.95277C119.885 5.75489 119.857 5.22246 119.578 5.14086C118.494 5.19392 117.463 5.22246 116.378 5.22246C115.181 5.22246 114.455 5.1939 113.454 5.14086C113.233 5.28161 113.177 5.75489 113.398 5.95277L114.044 6.09353C114.569 6.17513 115.041 6.28936 115.236 6.73816C115.627 7.60719 115.627 10.045 115.627 12.2583V19.6855C115.627 22.6557 115.375 22.7413 114.067 22.88L113.039 22.9922C112.84 23.1901 112.868 23.692 113.093 23.8041C114.344 23.747 116.044 23.7205 117.27 23.7205C118.496 23.7205 120.196 23.747 121.447 23.8041C121.672 23.692 121.7 23.1901 121.501 22.9922L120.473 22.88C119.165 22.7413 118.913 22.6557 118.913 19.6855V17.7234C118.913 17.2766 118.913 17.1338 118.998 17.0502C119.277 17.2195 121.867 20.1918 123.034 21.479L125.82 24.5042C126.795 25.5691 129.828 29.1023 130.094 29.494C129.843 29.6919 129.871 30.2243 130.15 30.3059C131.234 30.2528 132.265 30.2243 133.736 30.2243C134.933 30.2243 135.659 30.2528 136.66 30.3059C136.881 30.1651 136.937 29.6919 136.716 29.494L136.07 29.3533C135.545 29.2717 135.073 29.1574 134.878 28.7086C134.487 27.8396 134.487 25.4018 134.487 23.1885V17.7234C134.487 17.2766 134.487 17.1338 134.402 17.0502C134.681 17.2195 137.271 20.1918 138.438 21.479L141.224 24.5042C142.199 25.5691 145.232 29.1023 145.498 29.494C145.247 29.6919 145.275 30.2243 145.554 30.3059C146.638 30.2528 147.669 30.2243 149.14 30.2243C150.337 30.2243 151.063 30.2528 152.064 30.3059C152.285 30.1651 152.341 29.6919 152.12 29.494L151.474 29.3533C150.949 29.2717 150.477 29.1574 150.282 28.7086C149.891 27.8396 149.891 25.4018 149.891 23.1885V19.6855C149.891 22.6557 149.639 22.7413 148.331 22.88L147.303 22.9922C147.104 23.1901 147.132 23.692 147.357 23.8041C148.608 23.747 150.308 23.7205 151.534 23.7205C152.76 23.7205 154.46 23.747 155.711 23.8041C155.936 23.692 155.964 23.1901 155.765 22.9922L154.737 22.88C153.429 22.7413 153.177 22.6557 153.177 19.6855V9.26118C153.177 6.28895 153.429 6.20327 154.737 6.00743L155.183 5.95235C155.377 5.75651 155.349 5.2506 155.126 5.14044C154.066 5.19551 152.759 5.22409 151.534 5.22409C149.749 5.22409 148.136 5.19552 147.775 5.14044C147.664 5.6178 147.498 7.83117 147.331 9.03475C147.445 9.26119 147.998 9.31626 148.221 9.14695C148.667 7.52109 149.084 6.82138 149.974 6.59698C150.616 6.40115 151.449 6.34403 152.201 6.34403H154.067C155.263 6.34403 155.263 6.40115 155.263 7.99641V12.7353H153.926C153.286 12.7353 153.259 12.6782 153.259 11.9699V11.3073C153.034 11.1094 152.511 11.1094 152.369 11.3318C152.398 12.0886 152.452 13.0984 152.452 14.1388C152.452 15.1995 152.398 16.1828 152.369 17.0804C152.511 17.2742 153.034 17.2742 153.259 17.1069L153.451 15.9849C153.648 14.8099 154.122 14.7528 156.544 14.7528H157.881C158.521 14.7528 158.548 14.8099 158.548 15.5096V19.0673C158.548 20.4974 158.491 21.5071 158.078 21.9845C157.741 22.3741 157.269 22.5985 154.931 22.5985C151.393 22.6557 150.783 21.8437 149.808 19.5712C149.557 19.3774 149.085 19.459 148.916 19.7405C149.085 20.9196 149.696 23.0473 150.088 23.8041C151.309 23.747 153.703 23.7205 156.961 23.7205H160.134C161.36 23.7205 163.06 23.747 164.311 23.8041C164.536 23.692 164.564 23.1901 164.365 22.9922L163.337 22.88C162.029 22.7413 161.777 22.6557 161.777 19.6855V9.26118C161.777 6.28895 162.029 6.20327 163.337 6.00743L163.783 5.95235C163.977 5.75651 163.949 5.2506 163.726 5.14044C162.666 5.19551 161.359 5.22409 160.134 5.22409L154.819 5.22409C153.034 5.22409 151.421 5.19552 151.06 5.14044C150.949 5.6178 150.783 7.83117 150.616 9.03475C150.73 9.26119 151.283 9.31626 151.506 9.14695C151.952 7.52109 152.369 6.82138 153.259 6.59698C153.901 6.40115 154.734 6.34403 155.486 6.34403H157.352C158.548 6.34403 158.548 6.40115 158.548 7.99641V12.7353ZM102.57 23.7205C103.796 23.7205 105.496 23.747 106.747 23.8041C106.972 23.692 107 23.1901 106.801 22.9922L105.773 22.88C104.465 22.7413 104.213 22.6557 104.213 19.6855V9.26118C104.213 6.28895 104.465 6.20327 105.773 6.00743L106.219 5.95235C106.413 5.75651 106.385 5.2506 106.162 5.14044C105.102 5.19551 103.795 5.22409 102.57 5.22409C100.785 5.22409 99.172 5.19552 98.811 5.14044C98.7 5.6178 98.534 7.83117 98.367 9.03475C98.481 9.26119 99.034 9.31626 99.257 9.14695C99.703 7.52109 100.12 6.82138 101.01 6.59698C101.652 6.40115 102.485 6.34403 103.237 6.34403H105.103C106.299 6.34403 106.299 6.40115 106.299 7.99641V12.7353H104.962C104.322 12.7353 104.295 12.6782 104.295 11.9699V11.3073C104.07 11.1094 103.547 11.1094 103.405 11.3318C103.434 12.0886 103.488 13.0984 103.488 14.1388C103.488 15.1995 103.434 16.1828 103.405 17.0804C103.547 17.2742 104.07 17.2742 104.295 17.1069L104.487 15.9849C104.684 14.8099 105.158 14.7528 107.58 14.7528H108.917C109.557 14.7528 109.584 14.8099 109.584 15.5096V19.0673C109.584 20.4974 109.527 21.5071 109.114 21.9845C108.777 22.3741 108.305 22.5985 105.967 22.5985C102.429 22.6557 101.819 21.8437 100.844 19.5712C100.593 19.3774 100.121 19.459 99.952 19.7405C100.121 20.9196 100.732 23.0473 101.124 23.8041C102.345 23.747 104.739 23.7205 107.997 23.7205H111.17C112.396 23.7205 114.096 23.747 115.347 23.8041C115.572 23.692 115.6 23.1901 115.401 22.9922L114.373 22.88C113.065 22.7413 112.813 22.6557 112.813 19.6855V9.26118C112.813 6.28895 113.065 6.20327 114.373 6.00743L114.819 5.95235C115.013 5.75651 114.985 5.2506 114.762 5.14044C113.702 5.19551 112.395 5.22409 111.17 5.22409L105.855 5.22409C104.07 5.22409 102.457 5.19552 102.096 5.14044C101.985 5.6178 101.819 7.83117 101.652 9.03475C101.766 9.26119 102.319 9.31626 102.542 9.14695C102.988 7.52109 103.405 6.82138 104.295 6.59698C104.937 6.40115 105.77 6.34403 106.522 6.34403H108.388C109.584 6.34403 109.584 6.40115 109.584 7.99641V12.7353H108.247C107.607 12.7353 107.58 12.6782 107.58 11.9699V11.3073C107.355 11.1094 106.832 11.1094 106.69 11.3318C106.719 12.0886 106.773 13.0984 106.773 14.1388C106.773 15.1995 106.719 16.1828 106.69 17.0804C106.832 17.2742 107.355 17.2742 107.58 17.1069L107.772 15.9849C107.969 14.8099 108.443 14.7528 110.865 14.7528H112.202C112.842 14.7528 112.869 14.8099 112.869 15.5096V19.0673C112.869 20.4974 112.812 21.5071 112.399 21.9845C112.062 22.3741 111.59 22.5985 109.252 22.5985C105.714 22.6557 105.104 21.8437 104.129 19.5712C103.878 19.3774 103.406 19.459 103.237 19.7405C103.406 20.9196 104.017 23.0473 104.409 23.8041C105.63 23.747 108.024 23.7205 111.282 23.7205H114.455C115.681 23.7205 117.381 23.747 118.632 23.8041C118.857 23.692 118.885 23.1901 118.686 22.9922L117.658 22.88C116.35 22.7413 116.098 22.6557 116.098 19.6855V9.26118C116.098 6.28895 116.35 6.20327 117.658 6.00743L118.104 5.95235C118.298 5.75651 118.27 5.2506 118.047 5.14044C116.987 5.19551 115.68 5.22409 114.455 5.22409L109.14 5.22409C107.355 5.22409 105.742 5.19552 105.381 5.14044C105.27 5.6178 105.104 7.83117 104.937 9.03475C105.051 9.26119 105.604 9.31626 105.827 9.14695C106.273 7.52109 106.69 6.82138 107.58 6.59698C108.222 6.40115 109.055 6.34403 109.807 6.34403H111.673C112.869 6.34403 112.869 6.40115 112.869 7.99641V12.7353H111.532C110.892 12.7353 110.865 12.6782 110.865 11.9699V11.3073C110.64 11.1094 110.117 11.1094 109.975 11.3318C110.004 12.0886 110.058 13.0984 110.058 14.1388C110.058 15.1995 110.004 16.1828 109.975 17.0804C110.117 17.2742 110.64 17.2742 110.865 17.1069L111.057 15.9849C111.254 14.8099 111.728 14.7528 114.15 14.7528H115.487C116.127 14.7528 116.154 14.8099 116.154 15.5096V19.0673C116.154 20.4974 116.097 21.5071 115.684 21.9845C115.347 22.3741 114.875 22.5985 112.537 22.5985C108.999 22.6557 108.389 21.8437 107.414 19.5712C107.163 19.3774 106.691 19.459 106.522 19.7405C106.691 20.9196 107.302 23.0473 107.694 23.8041C108.915 23.747 111.309 23.7205 114.567 23.7205H117.74C118.966 23.7205 120.666 23.747 121.917 23.8041C122.142 23.692 122.17 23.1901 121.971 22.9922L120.943 22.88C119.635 22.7413 119.383 22.6557 119.383 19.6855V9.26118C119.383 6.28895 119.635 6.20327 120.943 6.00743L121.389 5.95235C121.583 5.75651 121.555 5.2506 121.332 5.14044C120.272 5.19551 118.965 5.22409 117.74 5.22409L112.425 5.22409C110.64 5.22409 109.027 5.19552 108.666 5.14044C108.555 5.6178 108.389 7.83117 108.222 9.03475C108.336 9.26119 108.889 9.31626 109.112 9.14695C109.558 7.52109 109.975 6.82138 110.865 6.59698C111.507 6.40115 112.34 6.34403 113.092 6.34403H114.958C116.154 6.34403 116.154 6.40115 116.154 7.99641V12.7353H114.817C114.177 12.7353 114.15 12.6782 114.15 11.9699V11.3073C113.925 11.1094 113.402 11.1094 113.26 11.3318C113.289 12.0886 113.343 13.0984 113.343 14.1388C113.343 15.1995 113.289 16.1828 113.26 17.0804C113.402 17.2742 113.925 17.2742 114.15 17.1069L114.342 15.9849C114.539 14.8099 115.013 14.7528 117.435 14.7528H118.772C119.412 14.7528 119.439 14.8099 119.439 15.5096V19.0673C119.439 20.4974 119.382 21.5071 118.969 21.9845C118.632 22.3741 118.16 22.5985 115.822 22.5985C112.284 22.6557 111.674 21.8437 110.699 19.5712C110.448 19.3774 109.976 19.459 109.807 19.7405C109.976 20.9196 110.587 23.0473 110.979 23.8041C112.2 23.747 114.594 23.7205 117.852 23.7205H121.025C122.251 23.7205 123.951 23.747 125.202 23.8041C125.427 23.692 125.455 23.1901 125.256 22.9922L124.228 22.88C122.92 22.7413 122.668 22.6557 122.668 19.6855V9.26118C122.668 6.28895 122.92 6.20327 124.228 6.00743L124.674 5.95235C124.868 5.75651 124.84 5.2506 124.617 5.14044C123.557 5.19551 122.25 5.22409 121.025 5.22409L115.71 5.22409C113.925 5.22409 112.312 5.19552 111.951 5.14044C111.84 5.6178 111.674 7.83117 111.507 9.03475C111.621 9.26119 112.174 9.31626 112.397 9.14695C112.843 7.52109 113.26 6.82138 114.15 6.59698C114.792 6.40115 115.625 6.34403 116.377 6.34403H118.243C119.439 6.34403 119.439 6.40115 119.439 7.99641V12.7353H118.102C117.462 12.7353 117.435 12.6782 117.435 11.9699V11.3073C117.21 11.1094 116.687 11.1094 116.545 11.3318C116.574 12.0886 116.628 13.0984 116.628 14.1388C116.628 15.1995 116.574 16.1828 116.545 17.0804C116.687 17.2742 117.21 17.2742 117.435 17.1069L117.627 15.9849C117.824 14.8099 118.298 14.7528 120.72 14.7528H122.057C122.697 14.7528 122.724 14.8099 122.724 15.5096V19.0673C122.724 20.4974 122.667 21.5071 122.254 21.9845C121.917 22.3741 121.445 22.5985 119.107 22.5985C115.569 22.6557 114.959 21.8437 113.984 19.5712C113.733 19.3774 113.261 19.459 113.092 19.7405C113.261 20.9196 113.872 23.0473 114.264 23.8041C115.485 23.747 117.879 23.7205 121.137 23.7205H124.31C125.536 23.7205 127.236 23.747 128.487 23.8041C128.712 23.692 128.74 23.1901 128.541 22.9922L127.513 22.88C126.205 22.7413 125.953 22.6557 125.953 19.6855V9.26118C125.953 6.28895 126.205 6.20327 127.513 6.00743L127.959 5.95235C128.153 5.75651 128.125 5.2506 127.902 5.14044C126.842 5.19551 125.535 5.22409 124.31 5.22409L119 5.22409C117.21 5.22409 115.597 5.19552 115.236 5.14044C115.125 5.6178 114.959 7.83117 114.792 9.03475C114.906 9.26119 115.459 9.31626 115.682 9.14695C116.128 7.52109 116.545 6.82138 117.435 6.59698C118.077 6.40115 118.91 6.34403 119.662 6.34403H121.528C122.724 6.34403 122.724 6.40115 122.724 7.99641V12.7353H121.387C120.747 12.7353 120.72 12.6782 120.72 11.9699V11.3073C120.495 11.1094 119.972 11.1094 119.83 11.3318C119.859 12.0886 119.913 13.0984 119.913 14.1388C119.913 15.1995 119.859 16.1828 119.83 17.0804C119.972 17.2742 120.495 17.2742 120.72 17.1069L120.912 15.9849C121.109 14.8099 121.583 14.7528 124.005 14.7528H125.342C126.182 14.7528 126.209 14.8099 126.209 15.5096V19.0673C126.209 20.4974 126.152 21.5071 125.739 21.9845C125.402 22.3741 124.93 22.5985 122.592 22.5985C119.054 22.6557 118.444 21.8437 117.469 19.5712C117.218 19.3774 116.746 19.459 116.577 19.7405C116.746 20.9196 117.357 23.0473 117.749 23.8041C118.97 23.747 121.364 23.7205 124.622 23.7205H127.795C129.021 23.7205 130.721 23.747 131.972 23.8041C132.197 23.692 132.225 23.1901 132.026 22.9922L130.998 22.88C129.69 22.7413 129.438 22.6557 129.438 19.6855V9.26118C129.438 6.28895 129.69 6.20327 130.998 6.00743L131.444 5.95235C131.638 5.75651 131.61 5.2506 131.387 5.14044C130.327 5.19551 129.02 5.22409 127.795 5.22409L122.48 5.22409C120.695 5.22409 119.082 5.19552 118.721 5.14044C118.61 5.6178 118.444 7.83117 118.277 9.03475C118.391 9.26119 118.944 9.31626 119.167 9.14695C119.613 7.52109 120.03 6.82138 120.92 6.59698C121.562 6.40115 122.395 6.34403 123.147 6.34403H125.013C126.209 6.34403 126.209 6.40115 126.209 7.99641V12.7353H124.872C124.232 12.7353 124.205 12.6782 124.205 11.9699V11.3073C123.98 11.1094 123.457 11.1094 123.315 11.3318C123.344 12.0886 123.398 13.0984 123.398 14.1388C123.398 15.1995 123.344 16.1828 123.315 17.0804C123.457 17.2742 123.98 17.2742 124.205 17.1069L124.397 15.9849C124.594 14.8099 125.068 14.7528 127.49 14.7528H128.827C129.467 14.7528 129.494 14.8099 129.494 15.5096V19.0673C129.494 20.4974 129.437 21.5071 129.024 21.9845C128.687 22.3741 128.215 22.5985 125.877 22.5985C122.339 22.6557 121.729 21.8437 120.754 19.5712C120.503 19.3774 120.031 19.459 119.862 19.7405C120.031 20.9196 120.642 23.0473 121.034 23.8041C122.255 23.747 124.649 23.7205 127.907 23.7205H131.08C132.306 23.7205 134.006 23.747 135.257 23.8041C135.482 23.692 135.51 23.1901 135.311 22.9922L134.283 22.88C132.975 22.7413 132.723 22.6557 132.723 19.6855V9.26118C132.723 6.28895 132.975 6.20327 134.283 6.00743L134.729 5.95235C134.923 5.75651 134.895 5.2506 134.672 5.14044C133.612 5.19551 132.305 5.22409 131.08 5.22409L125.765 5.22409C123.98 5.22409 122.367 5.19552 122.006 5.14044C121.895 5.6178 121.729 7.83117 121.562 9.03475C121.676 9.26119 122.229 9.31626 122.452 9.14695C122.898 7.52109 123.315 6.82138 124.205 6.59698C124.847 6.40115 125.68 6.34403 126.432 6.34403H128.298C129.494 6.34403 129.494 6.40115 129.494 7.99641V12.7353H128.157C127.517 12.7353 127.49 12.6782 127.49 11.9699V11.3073C127.265 11.1094 126.742 11.1094 126.6 11.3318C126.629 12.0886 126.683 13.0984 126.683 14.1388C126.683 15.1995 126.629 16.1828 126.6 17.0804C126.742 17.2742 127.265 17.2742 127.49 17.1069L127.682 15.9849C127.879 14.8099 128.353 14.7528 130.775 14.7528H132.112C132.752 14.7528 132.779 14.8099 132.779 15.5096V19.0673C132.779 20.4974 132.722 21.5071 132.309 21.9845C131.972 22.3741 131.5 22.5985 129.162 22.5985C125.624 22.6557 125.014 21.8437 124.039 19.5712C123.788 19.3774 123.316 19.459 123.147 19.7405C123.316 20.9196 123.927 23.0473 124.319 23.8041C125.54 23.747 127.934 23.7205 131.192 23.7205ZM136.192 23.7205C137.418 23.7205 139.118 23.747 140.369 23.8041C140.594 23.692 140.622 23.1901 140.423 22.9922L139.395 22.88C138.087 22.7413 137.835 22.6557 137.835 19.6855V9.26118C137.835 6.28895 138.087 6.20327 139.395 6.00743L139.841 5.95235C140.035 5.75651 140.007 5.2506 139.784 5.14044C138.724 5.19551 137.417 5.22409 136.192 5.22409C134.407 5.22409 132.794 5.19552 132.433 5.14044C132.322 5.6178 132.156 7.83117 131.989 9.03475C132.103 9.26119 132.656 9.31626 132.879 9.14695C133.335 7.52109 133.752 6.82138 134.642 6.59698C135.284 6.40115 136.117 6.34403 136.869 6.34403H138.735C140.031 6.34403 140.031 6.40115 140.031 7.99641V12.7353H138.694C138.054 12.7353 138.027 12.6782 138.027 11.9699V11.3073C137.802 11.1094 137.279 11.1094 137.137 11.3318C137.166 12.0886 137.22 13.0984 137.22 14.1388C137.22 15.1995 137.166 16.1828 137.137 17.0804C137.279 17.2742 137.802 17.2742 138.027 17.1069L138.219 15.9849C138.416 14.8099 138.89 14.7528 141.312 14.7528H142.649C143.289 14.7528 143.316 14.8099 143.316 15.5096V19.0673C143.316 20.4974 143.259 21.5071 142.846 21.9845C142.509 22.3741 142.037 22.5985 139.699 22.5985C136.161 22.6557 135.551 21.8437 134.576 19.5712C134.325 19.3774 133.853 19.459 133.684 19.7405C133.853 20.9196 134.464 23.0473 134.856 23.8041C136.077 23.747 138.471 23.7205 141.729 23.7205Z" transform="translate(-97 -5)" />
          </svg>