<svg xmlns="http://www.w3.org/2000/svg" viewBox="0 0 130 49">
            <path fill="#D6DBE4" d="M1.85502
            40.8763H2.88023V43.9702H6.81039V40.8763H7.80153V48.0954H6.81039V44.7953H2.88023V48.0954H1.85502V40.8763Z" />
            <path d="M23.693 45.4828C23.693 47.3047 22.5993 48.2673 20.7197 48.2673C18.8058 48.2673 17.6439 47.4079
            17.6439 45.4828V40.8763H18.6691V45.4828C18.6691 46.7547 19.421 47.4766 20.7197 47.4766C21.9841
            47.4766 22.7018 46.7547 22.7018 45.4828V40.8763H23.693V45.4828Z" fill="#D6DBE4" />
            <path d="M36.0985 48.3016C33.843 48.4392 32.476 46.5141 32.476 44.6234C32.476 42.5264 33.6721 40.7044 36.0643
            40.7044C37.7048 40.7044 39.0033 41.392 39.2768 43.1108H38.2857C38.0807 42.0108 37.1579 41.4951
            36.0643 41.4951C34.2189 41.4951 33.467 43.042 33.467 44.589C33.467 46.1015 34.4239 47.5454 36.2352
            47.511C37.1579 47.4766 37.9097 47.3047 38.2857 46.6859C38.5591 46.3078 38.4907 45.6203 38.4565
            45.1046H36.0643V44.2796H39.3451C39.3451 44.2796 39.3451 46.1703 39.3451 46.9953C38.4907 48.061
            37.4655 48.2329 36.0985 48.3016Z" fill="#D6DBE4" />
            <path d="M51.614 47.4766C53.4253 47.4766 54.2114 45.9297 54.2114 44.4859C54.2114 43.042 53.4253 41.4951
            51.614 41.4951C49.7686 41.4951 49.0167 43.042 49.0167 44.4859C49.0167 45.9297 49.7686 47.4766 51.614
            47.4766ZM51.614 40.7044C54.0063 40.7044 55.2024 42.5264 55.2024 44.4859C55.2024 46.4453 54.0063
            48.2673 51.614 48.2673C49.2217 48.2673 48.0256 46.4453 48.0256 44.4859C48.0256 42.5264 49.2217
            40.7044 51.614 40.7044Z" fill="#D6DBE4" />
            <path d="M75.3315 43.9702H77.3137C78.4415 43.9702 78.92 43.5921 78.92 42.8358C78.92 41.8389 78.2023 41.667
            77.3137 41.667H75.3315V43.9702ZM75.3315 47.3047H77.8263C78.6807 47.3047 79.2275 46.7891 79.2275
            45.9984C79.2275 45.0703 78.4415 44.7953 77.5871 44.7953H75.3315V47.3047ZM74.3405
            40.8763H77.0403C77.7239 40.8763 78.5781 40.8763 79.0225 41.117C79.5351 41.4264 79.911 41.942 79.911
            42.6295C79.911 43.4202 79.5009 44.0046 78.8174 44.2796C79.7401 44.4515 80.2528 45.139 80.2528
            46.0328C80.2528 47.0985 79.4326 48.0954 77.963 48.0954H74.3405V40.8763Z" fill="#D6DBE4" />
            <path d="M92.795 47.4766C94.6405 47.4766 95.3924 45.9297 95.3924 44.4859C95.3924 43.042 94.6405 41.4951
            92.795 41.4951C90.9838 41.4951 90.1977 43.042 90.1977 44.4859C90.1977 45.9297 90.9838 47.4766 92.795
            47.4766ZM92.795 40.7044C95.1873 40.7044 96.4176 42.5264 96.4176 44.4859C96.4176 46.4453 95.1873
            48.2673 92.795 48.2673C90.4028 48.2673 89.2067 46.4453 89.2067 44.4859C89.2067 42.5264 90.4028
            40.7044 92.795 40.7044Z" fill="#D6DBE4" />
            <path d="M110.19 43.0077C110.088 41.942 109.37 41.4951 108.345 41.4951C107.49 41.4951 106.67 41.8045 106.67
            42.7327C106.67 43.6264 107.866 43.764 109.062 44.039C110.259 44.2796 111.455 44.6921 111.455
            46.1359C111.455 47.6485 109.883 48.2673 108.516 48.2673C106.841 48.2673 105.44 47.4766 105.44
            45.7234H106.363C106.363 46.9266 107.422 47.4766 108.55 47.4766C109.473 47.4766 110.464 47.2016
            110.464 46.1359C110.464 45.139 109.267 45.0015 108.071 44.7265C106.875 44.4859 105.645 44.1421
            105.645 42.8014C105.645 41.3576 107.012 40.7044 108.379 40.7044C109.917 40.7044 111.079 41.392
            111.147 43.0077H110.19Z" fill="#D6DBE4" />
            <path d="M126.389 43.0077C126.252 41.942 125.535 41.4951 124.51 41.4951C123.689 41.4951 122.835 41.8045
            122.835 42.7327C122.835 43.6264 124.031 43.764 125.261 44.039C126.458 44.2796 127.654 44.6921 127.654
            46.1359C127.654 47.6485 126.082 48.2673 124.715 48.2673C123.04 48.2673 121.605 47.4766 121.605
            45.7234H122.562C122.562 46.9266 123.621 47.4766 124.749 47.4766C125.637 47.4766 126.663 47.2016
            126.663 46.1359C126.663 45.139 125.432 45.0015 124.236 44.7265C123.04 44.4859 121.844 44.1421 121.844
            42.8014C121.844 41.3576 123.177 40.7044 124.578 40.7044C126.082 40.7044 127.278 41.392 127.312
            43.0077H126.389Z" fill="#D6DBE4" />
            <path d="M10.6722 2.71852V15.7128H15.3542C15.3542 15.7128 15.7643 15.6784 16.0036 15.6097C18.7375 15.369
            20.4805 12.0689 20.6513 9.66255C20.9247 7.08433 19.3526 2.82165 15.4226 2.71852C14.2605 2.68414
            10.6722 2.71852 10.6722 2.71852ZM10.6722 17.2254V32.7979H14.9099C14.9099 32.7979 17.3022 32.9698
            19.4552 31.2166C21.5741 29.4977 22.6676 26.9539 22.4285 24.0319C22.2576 21.4193 20.2754 17.7066
            15.8326 17.2254C13.4746 17.2254 10.6722 17.2254 10.6722 17.2254ZM20.6513 1.20595C24.1714 1.41222
            26.4611 3.30292 26.6662 3.54355C28.4774 5.228 29.0242 7.77186 28.58 10.2126C27.999 14.3034 22.9411
            16.0222 22.9411 16.0222C27.1788 16.5378 30.3571 19.7348 30.8355 23.1725C31.2457 26.5414 30.0154
            29.5321 27.2471 31.6291C24.4447 33.726 20.3438 34.4136 18.1223 34.4136C18.1223 34.4136 0.966421
            34.4136 0.00957021 34.4136C0.00957021 33.8635 0.00957021 33.451 0.00957021 32.9698C2.33344 33.0041
            2.60689 33.0041 2.60689 32.076C2.57271 28.5696 2.60689 4.09357 2.60689 3.44043C2.60689 2.68414 2.2309
            2.64977 0.00957021 2.64977C-0.0246097 2.06537 0.0437517 1.20595 0.0437517 1.20595H20.6513Z" fill="#D6DBE4" />
            <path d="M48.6065 2.99352C46.351 4.50609 44.7789 7.97812 44.0272 10.8657C42.8309 15.2315 43.0702 20.388
            44.2663 25.682C45.4966 30.9759 48.88 32.8322 50.8963 33.2791C54.6556 34.1386 57.1162 31.9385 58.449
            29.9103C61.0464 25.957 61.6957 17.8098 60.8755 13.1346C60.1236 8.80315 58.9616 5.77802 56.7061
            3.74981C54.1772 1.51535 50.5545 1.68723 48.6065 2.99352ZM68.8725 23.5506C67.3004 28.2602 64.1563
            31.2166 60.5337 33.1416C55.7834 35.7199 48.9825 36.1324 44.2321 33.2791C41.2931 31.526 33.8088
            26.8508 34.7998 15.8159C35.0049 13.444 36.201 7.49684 42.7969 3.02791C47.3079 0.0715372 53.8012
            -0.787872 59.8502 2.03099C69.2826 6.36242 71.2647 17.0535 68.8725 23.5506Z" fill="#D6DBE4" />
            <path d="M96.5885 2.7529C96.6227 5.22801 96.5885 10.3501 96.5885 10.3501L95.3924 10.3845C94.6747 7.18746
            93.1367 4.43734 90.5054 3.16541C87.9764 1.92786 84.1488 1.30909 81.6539 3.50918C80.1844 4.81549
            79.9794 6.15616 80.492 7.66872C81.3806 9.90319 83.8411 10.5907 85.755 11.4501C87.3271 12.0689 90.6761
            13.169 90.6761 13.169C94.4012 14.4753 98.5365 17.0191 99.6642 21.2474C100.177 23.0694 100.177 25.1319
            99.7668 26.9883C98.844 31.1134 96.2126 32.1104 94.7089 33.1416C93.957 33.6573 86.9169 36.373 78.4415
            33.5885C76.6985 33.0041 74.6822 32.3166 74.6822 32.3166V23.0694C74.6822 23.0694 75.605 23.1037
            75.9808 23.1037C76.5618 24.5819 77.0745 26.3695 78.3048 28.1571C81.1755 32.351 85.2424 33.6229
            89.7193 32.6604C91.4964 32.2479 93.4444 31.0103 93.957 29.154C94.6063 27.057 94.4012 23.585 88.113
            21.2474C83.5677 19.1504 77.8605 18.291 75.1607 13.2033C74.1012 10.3501 74.4088 5.39988 77.8946
            2.99352C81.4147 0.587179 84.8322 0.037162 88.9674 0.58718C93.0685 1.17158 94.1621 1.7216 96.5885
            2.7529Z" fill="#D6DBE4" />
            <path d="M126.526 2.7529C126.56 5.22801 126.526 10.3501 126.526 10.3501L125.33 10.3845C124.612 7.18746
            123.074 4.43734 120.443 3.16541C117.914 1.92786 114.086 1.30909 111.591 3.50918C110.122 4.81549
            109.917 6.15616 110.429 7.66872C111.318 9.90319 113.779 10.5907 115.692 11.4501C117.264 12.0689
            120.614 13.169 120.614 13.169C124.339 14.4753 128.474 17.0191 129.602 21.2474C130.114 23.0694 130.114
            25.1319 129.704 26.9883C128.781 31.1134 126.15 32.1104 124.646 33.1416C123.894 33.6573 116.854 36.373
            108.379 33.5885C106.636 33.0041 104.62 32.3166 104.62 32.3166V23.0694C104.62 23.0694 105.542 23.1037
            105.918 23.1037C106.499 24.5819 107.012 26.3695 108.242 28.1571C111.113 32.351 115.18 33.6229 119.657
            32.6604C121.434 32.2479 123.382 31.0103 123.894 29.154C124.544 27.057 124.339 23.585 118.05
            21.2474C113.505 19.1504 107.798 18.291 105.098 13.2033C104.039 10.3501 104.346 5.39988 107.866
            2.99352C111.352 0.587179 114.77 0.037162 118.871 0.58718C123.006 1.17158 124.099 1.7216 126.526
            2.7529Z" fill="#D6DBE4" />
          </svg>