<svg width="200px" viewBox="0 0 119 58"  xmlns="http://www.w3.org/2000/svg">
            <path fill="#D6DBE4" d="M89.9195 25.4667C89.6839 25.1593 89.3042 25.0362 89.0415 24.9183C88.7848 24.7969 88.8217 24.5461 88.6069 24.4734C88.387 24.4026 88.0026 24.8511 87.7038 24.758C87.4054 24.6601 87.4274 24.1019 87.1781 24.0194C86.9229 23.9388 86.4792 24.3574 86.2471 24.2831C86.0135 24.2151 85.968 23.6287 85.7426 23.554C85.5196 23.486 85.0461 23.903 84.8152 23.8315C84.5831 23.7533 84.5682 23.1822 84.3107 23.0972C84.0543 23.0186 83.6035 23.4455 83.3797 23.3685C83.1484 23.2969 83.1261 22.727 82.8803 22.644C82.6317 22.565 82.1759 22.9837 81.9466 22.9082C81.7102 22.8319 81.6458 22.2463 81.4307 22.1755C81.2108 22.1083 80.7816 22.4538 80.4326 22.4338C78.0104 22.2077 77.0838 20.6822 76.9189 21.1335C76.7571 21.5757 77.4238 22.6515 78.2617 23.0147C78.93 23.3056 86.1451 25.3051 86.3343 25.3943C86.5184 25.4855 86.9743 25.6887 86.8121 25.9521C86.5609 26.289 85.8565 25.9556 85.677 25.8071C85.4956 25.6561 85.5369 25.6011 85.3669 25.5555C84.9797 25.4635 84.7653 26.1691 84.3566 26.0747C83.9844 25.991 84.0103 25.2422 83.6322 25.155C83.2152 25.0535 83.0263 25.7634 82.6294 25.6707C82.3 25.5964 82.2548 24.8338 81.9014 24.7485C81.4954 24.6503 81.3113 25.3617 80.8884 25.263C80.5248 25.1778 80.5453 24.4341 80.1648 24.3425C79.7847 24.2525 79.5197 24.9419 79.1608 24.8605C78.8008 24.7768 78.7482 24.017 78.4286 23.9412C78.1015 23.8684 77.8439 24.2548 77.4046 24.3122C77.4046 24.3122 76.1422 24.6538 74.1469 22.567C72.1472 20.4845 71.3273 20.0797 70.1895 20.9283C68.3315 22.3135 67.1775 21.3976 66.8414 20.9857C66.4374 20.5136 66.8603 20.0797 66.8603 20.0797C66.8603 20.0797 67.4504 20.9916 68.1933 21.0081C69.3901 21.0439 70.2927 19.4087 72.3439 19.3796C74.9423 19.2861 75.6196 20.2102 76.3299 20.2837C76.988 20.3481 77.2075 20.242 77.6629 19.9775H77.6602C78.0285 19.8462 78.3489 20.5588 78.7348 20.415C79.1428 20.2609 78.8444 19.5427 79.2837 19.3773C79.6944 19.2303 79.9626 19.9519 80.3556 19.8053C80.7691 19.6544 80.5056 18.9162 80.9026 18.7723C81.3113 18.6245 81.55 19.3537 81.9741 19.1936C82.3553 19.0496 82.1675 18.673 82.5275 18.5289C82.9087 18.3849 83.3321 18.7981 83.6921 18.654C84.0521 18.51 83.7449 18.0673 84.1261 17.9232C84.5073 17.7792 84.7708 18.3798 85.152 18.2358C85.5332 18.0917 85.2475 17.597 85.6288 17.4529C85.9888 17.3089 86.2943 17.801 86.6755 17.657C87.0568 17.5129 86.83 17.0672 87.2113 16.9232C87.5925 16.7791 87.8776 17.3014 88.2588 17.1574C88.64 17.0133 88.3756 16.5977 88.7568 16.4537C89.1381 16.3096 89.4436 16.8017 89.8248 16.6577C90.206 16.5136 89.9793 16.0679 90.3605 15.9239C90.7418 15.7798 91.0268 16.3021 91.408 16.1581C91.7892 16.014 91.5249 15.5984 91.9061 15.4544C92.2873 15.3103 92.5929 15.8024 92.9741 15.6584C93.3553 15.5143 93.1285 15.0686 93.5098 14.9245C93.891 14.7805 94.176 15.3028 94.5573 15.1587C94.9385 15.0147 94.6741 14.5991 95.0553 14.455C95.4366 14.311 95.7421 14.8031 96.1233 14.659C96.5045 14.515 96.2778 14.0693 96.659 13.9252C97.0402 13.7812 97.3253 14.3035 97.7065 14.1594C98.0878 14.0154 97.8233 13.5998 98.2045 13.4557C98.5858 13.3117 98.8913 13.8038 99.2725 13.6597C99.6538 13.5157 99.427 13.07 99.8082 12.9259C100.189 12.7819 100.475 13.3042 100.856 13.1601C101.237 13.0161 100.973 12.6005 101.354 12.4564C101.735 12.3124 102.041 12.8045 102.422 12.6604C102.803 12.5164 102.576 12.0707 102.957 11.9266C103.339 11.7826 103.624 12.3049 104.005 12.1608C104.386 12.0168 104.122 11.6012 104.503 11.4571C104.884 11.3131 105.19 11.8052 105.571 11.6611C105.952 11.5171 105.726 11.0714 106.107 10.9273C106.488 10.7833 106.773 11.3056 107.154 11.1615C107.535 11.0175 107.271 10.6019 107.652 10.4578C108.033 10.3138 108.339 10.8059 108.72 10.6618C109.101 10.5178 108.875 10.0721 109.256 9.92803C109.637 9.78399 109.922 10.3063 110.303 10.1622C110.685 10.0182 110.42 9.60259 110.801 9.45855C111.183 9.31451 111.488 9.8066 111.869 9.66256C112.251 9.51852 112.024 9.07283 112.405 8.92879C112.786 8.78475 113.071 9.30704 113.453 9.16299C113.834 9.01895 113.569 8.60334 113.951 8.4593C114.332 8.31526 114.637 8.80735 115.019 8.66331C115.4 8.51927 115.173 8.07358 115.554 7.92954C115.936 7.7855 116.221 8.30779 116.602 8.16375C116.983 8.0197 116.719 7.60409 117.1 7.46005C117.481 7.31601 117.787 7.8081 118.168 7.66406C118.549 7.52002 118.322 7.07433 118.704 6.93029C119.085 6.78625 119.37 7.30854 119.751 7.1645L119.677 7.05221C119.296 7.19625 119.011 6.67396 118.629 6.818C118.248 6.96204 118.475 7.40773 118.094 7.55177C117.712 7.69581 117.407 7.20372 117.026 7.34776C116.644 7.4918 116.909 7.90741 116.528 8.05145C116.146 8.19549 115.861 7.6732 115.48 7.81724C115.099 7.96128 115.326 8.40697 114.944 8.55101C114.563 8.69505 114.258 8.20296 113.876 8.347C113.495 8.49104 113.76 8.90665 113.378 9.05069C112.997 9.19473 112.712 8.67244 112.331 8.81648C111.949 8.96052 112.176 9.40621 111.795 9.55025C111.414 9.69429 111.108 9.2022 110.727 9.34624C110.346 9.49028 110.61 9.90589 110.229 10.0499C109.848 10.194 109.562 9.67169 109.181 9.81573C108.8 9.95977 109.027 10.4055 108.646 10.5495C108.264 10.6935 107.959 10.2015 107.578 10.3455C107.196 10.4895 107.461 10.9052 107.08 11.0492C106.698 11.1932 106.413 10.671 106.032 10.815C105.651 10.9591 105.877 11.4047 105.496 11.5488C105.115 11.6928 104.81 11.2007 104.428 11.3448C104.047 11.4888 104.312 11.9044 103.93 12.0485C103.549 12.1925 103.264 11.6702 102.883 11.8143C102.501 11.9583 102.728 12.404 102.347 12.5481C101.966 12.6921 101.66 12.2 101.279 12.3441C100.898 12.4881 101.162 12.9037 100.781 13.0478C100.4 13.1918 100.115 12.6695 99.7335 12.8135C99.3523 12.9576 99.5791 13.4033 99.1978 13.5473C98.8166 13.6914 98.5111 13.1993 98.1298 13.3433C97.7486 13.4874 98.0131 13.903 97.6318 14.047C97.2506 14.1911 96.9655 13.6688 96.5843 13.8128C96.203 13.9569 96.4298 14.4025 96.0486 14.5466C95.6673 14.6906 95.3618 14.1985 94.9806 14.3426C94.5993 14.4866 94.8638 14.9023 94.4826 15.0463C94.1013 15.1903 93.8163 14.6681 93.435 14.8121C93.0538 14.9562 93.2806 15.4018 92.8993 15.5459C92.5181 15.6899 92.2126 15.1978 91.8313 15.3418C91.4501 15.4859 91.7146 15.9015 91.3333 16.0456C90.9521 16.1896 90.667 15.6673 90.2858 15.8114C89.9045 15.9554 90.1313 16.4011 89.7501 16.5451C89.3688 16.6892 89.0633 16.1971 88.6821 16.3411C88.3008 16.4852 88.5653 16.9008 88.1841 17.0448C87.8028 17.1889 87.5178 16.6666 87.1365 16.8106C86.7553 16.9547 86.9821 17.4003 86.6008 17.5444C86.2196 17.6884 85.9141 17.1963 85.5328 17.3404C85.1516 17.4844 85.4161 17.9 85.0348 18.0441C84.6536 18.1881 84.3685 17.6658 83.9873 17.8099C83.606 17.9539 83.8328 18.3996 83.4516 18.5437C83.0703 18.6877 82.7648 18.1956 82.3836 18.3397C82.0023 18.4837 82.2668 18.8993 81.8856 19.0434C81.5043 19.1874 81.2193 18.6651 80.838 18.8092C80.4568 18.9532 80.6835 19.3989 80.3023 19.5429C79.921 19.687 79.6155 19.1949 79.2343 19.3389C78.853 19.483 79.1175 19.8986 78.7363 20.0426C78.355 20.1867 78.07 19.6644 77.6887 19.8084C77.3075 19.9525 77.5342 20.3981 77.153 20.5422C76.7717 20.6862 76.4662 20.1941 76.085 20.3382C75.7037 20.4822 75.9682 20.8979 75.587 21.0419C75.2057 21.186 74.9207 20.6637 74.5394 20.8077C74.1582 20.9518 74.3849 21.3974 74.0037 21.5415C73.6224 21.6855 73.3169 21.1934 72.9357 21.3375C72.5544 21.4815 72.8189 21.8972 72.4377 22.0412C72.0564 22.1853 71.7714 21.663 71.3901 21.807C71.0089 21.9511 71.2356 22.3967 70.8544 22.5408C70.4731 22.6848 70.1676 22.1927 69.7864 22.3368C69.4051 22.4808 69.6696 22.8964 69.2884 23.0405C68.9071 23.1845 68.6221 22.6623 68.2408 22.8063C67.8596 22.9504 68.0863 23.396 67.7051 23.5401C67.3238 23.6841 67.0183 23.192 66.6371 23.3361C66.2558 23.4801 66.5203 23.8957 66.1391 24.0398C65.7578 24.1838 65.4728 23.6615 65.0915 23.8056C64.7103 23.9496 64.937 24.3953 64.5558 24.5393C64.1745 24.6834 63.869 24.1913 63.4878 24.3353C63.1065 24.4794 63.371 24.895 62.9898 25.0391C62.6085 25.1831 62.3235 24.6608 61.9422 24.8049C61.561 24.9489 61.7877 25.3946 61.4065 25.5386C61.0252 25.6827 60.7197 25.1906 60.3385 25.3346C59.9572 25.4787 60.2217 25.8943 59.8405 26.0384C59.4592 26.1824 59.1742 25.6601 58.7929 25.8042C58.4117 25.9482 58.6384 26.3939 58.2572 26.5379C57.8759 26.682 57.5704 26.1899 57.1892 26.3339C56.8079 26.478 57.0724 26.8936 56.6912 27.0377C56.3099 27.1817 56.0249 26.6594 55.6436 26.8035C55.2624 26.9475 55.4891 27.3932 55.1079 27.5372C54.7266 27.6813 54.4211 27.1892 54.0399 27.3332C53.6586 27.4773 53.9231 27.8929 53.5419 28.037C53.1606 28.181 52.8756 27.6587 52.4943 27.8028C52.1131 27.9468 52.3398 28.3925 51.9586 28.5365C51.5773 28.6806 51.2718 28.1885 50.8906 28.3325C50.5093 28.4766 50.7738 28.8922 50.3926 29.0363C50.0113 29.1803 49.7263 28.658 49.345 28.8021C48.9638 28.9461 49.1905 29.3918 48.8093 29.5358C48.428 29.6799 48.1225 29.1878 47.7413 29.3318C47.36 29.4759 47.6245 29.8915 47.2432 30.0356C46.862 30.1796 46.577 29.6573 46.1957 29.8014C45.8145 29.9454 46.0412 30.3911 45.66 30.5351C45.2787 30.6792 44.9732 30.1871 44.592 30.3311C44.2107 30.4752 44.4752 30.8908 44.094 31.0349C43.7127 31.1789 43.4277 30.6566 43.0464 30.8007C42.6652 30.9447 42.8919 31.3904 42.5107 31.5344C42.1294 31.6785 41.8239 31.1864 41.4427 31.3304C41.0614 31.4745 41.3259 31.8901 40.9447 32.0342C40.5634 32.1782 40.2784 31.6559 39.8971 31.8C39.5159 31.944 39.7426 32.3897 39.3614 32.5338C38.9801 32.6778 38.6746 32.1857 38.2934 32.3297C37.9121 32.4738 38.1766 32.8894 37.7954 33.0335C37.4141 33.1775 37.1291 32.6552 36.7478 32.7993C36.3666 32.9433 36.5933 33.389 36.2121 33.5331C35.8308 33.6771 35.5253 33.185 35.1441 33.3291C34.7628 33.4731 35.0273 33.8887 34.6461 34.0328C34.2648 34.1768 33.9798 33.6545 33.5986 33.7986C33.2173 33.9426 33.444 34.3883 33.0628 34.5324C32.6815 34.6764 32.376 34.1843 31.9948 34.3284C31.6135 34.4724 31.878 34.888 31.4968 35.0321C31.1155 35.1761 30.8305 34.6538 30.4493 34.7979C30.068 34.9419 30.2947 35.3876 29.9135 35.5317C29.5322 35.6757 29.2267 35.1836 28.8455 35.3277C28.4642 35.4717 28.7287 35.8873 28.3475 36.0314C27.9662 36.1754 27.6812 35.6531 27.3 35.7972C26.9187 35.9412 27.1454 36.3869 26.7642 36.531C26.3829 36.675 26.0774 36.1829 25.6962 36.327C25.3149 36.471 25.5794 36.8866 25.1982 37.0307C24.8169 37.1747 24.5319 36.6524 24.1507 36.7965C23.7694 36.9405 23.9961 37.3862 23.6149 37.5303C23.2336 37.6743 22.9281 37.1822 22.5469 37.3263C22.1656 37.4703 22.4301 37.8859 22.0489 38.03C21.6676 38.174 21.3826 37.6517 21.0014 37.7958C20.6201 37.9398 20.8468 38.3855 20.4656 38.5296C20.0843 38.6736 19.7788 38.1815 19.3976 38.3256C19.0163 38.4696 19.2808 38.8852 18.8996 39.0293C18.5183 39.1733 18.2333 38.651 17.8521 38.7951C17.4708 38.9391 17.6975 39.3848 17.3163 39.5289C16.935 39.6729 16.6295 39.1808 16.2483 39.3249C15.867 39.4689 16.1315 39.8845 15.7503 40.0286C15.369 40.1726 15.084 39.6503 14.7028 39.7944C14.3215 39.9384 14.5482 40.3841 14.167 40.5282C13.7857 40.6722 13.4802 40.1801 13.099 40.3242C12.7177 40.4682 12.9822 40.8838 12.601 41.0279C12.2197 41.1719 11.9347 40.6496 11.5535 40.7937C11.1722 40.9377 11.3989 41.3834 11.0177 41.5275C10.6364 41.6715 10.3309 41.1794 9.9497 41.3235C9.5684 41.4675 9.8329 41.8831 9.4517 42.0272C9.0704 42.1712 8.7854 41.6489 8.4042 41.793C8.0229 41.937 8.2496 42.3827 7.8684 42.5268C7.4871 42.6708 7.1816 42.1787 6.8004 42.3228C6.4191 42.4668 6.6836 42.8824 6.3024 43.0265C5.9211 43.1705 5.6361 42.6482 5.2549 42.7923C4.8736 42.9363 5.1003 43.382 4.7191 43.5261C4.3378 43.6701 4.0323 43.178 3.6511 43.3221C3.2698 3.6511 43.3221C3.2698 43.4661 3.5343 43.8817 3.1531 44.0258C2.7718 44.1698 2.4868 43.6475 2.1056 43.7916C1.7243 43.9356 1.951 44.3813 1.5698 44.5254C1.1885 44.6694 0.883 44.1773 0.5018 44.3214C0.1205 44.4654 0.385 44.881 0.0038 45.0251V45.0396C0.385 44.8956 0.1205 44.4799 0.5017 44.3359C0.883 44.1918 1.1885 44.6839 1.5697 44.5399C1.951 44.3958 1.7242 43.9501 2.1055 43.8061C2.4867 43.662 2.7717 44.1843 3.153 44.0403C3.5342 43.8962 3.2697 43.4806 3.651 43.3366C4.0322 43.1925 4.3377 43.6846 4.719 43.5406C5.1002 43.3965 4.8735 42.9508 5.2548 42.8068C5.636 42.6627 5.921 43.185 6.3023 43.041C6.6835 42.8969 6.419 42.4813 6.8003 42.3373C7.1815 42.1932 7.487 42.6853 7.8683 42.5413C8.2495 42.3972 8.0228 41.9515 8.4041 41.8075C8.7853 41.6634 9.0703 42.1857 9.4516 42.0417C9.8328 41.8976 9.5683 41.482 9.9496 41.338C10.3308 41.1939 10.6363 41.686 11.0176 41.542C11.3988 41.3979 11.1721 40.9522 11.5534 40.8082C11.9346 40.6641 12.2196 41.1864 12.6009 41.0424C12.9821 40.8983 12.7176 40.4827 13.0989 40.3387C13.4801 40.1946 13.7856 40.6867 14.1669 40.5427C14.5481 40.3986 14.3214 39.9529 14.7027 39.8089C15.0839 39.6648 15.3689 40.1871 15.7502 40.0431C16.1314 39.899 15.8669 39.4834 16.2482 39.3394C16.6294 39.1953 16.9349 39.6874 17.3162 39.5434C17.6974 39.3993 17.4707 38.9536 17.852 38.8096C18.2332 38.6655 18.5182 39.1878 18.8995 39.0438C19.2807 38.8997 19.0162 38.4841 19.3975 38.3401C19.7787 38.196 20.0842 38.6881 20.4655 38.5441C20.8467 38.4 20.62 37.9543 21.0013 37.8103C21.3825 37.6662 21.6675 38.1885 22.0488 38.0445C22.43 37.9004 22.1655 37.4848 22.5468 37.3408C22.928 37.1967 23.2335 37.6888 23.6148 37.5448C23.996 37.4007 23.7693 36.955 24.1506 36.811C24.5318 36.6669 24.8168 37.1892 25.1981 37.0452C25.5793 36.9011 25.3148 36.4855 25.6961 36.3415C26.0773 36.1974 26.3828 36.6895 26.7641 36.5455C27.1453 36.4014 26.9186 35.9557 27.2999 35.8117C27.6811 35.6676 27.9661 36.1899 28.3474 36.0459C28.7286 35.9018 28.4641 35.4862 28.8454 35.3422C29.2266 35.1981 29.5321 35.6902 29.9134 35.5462C30.2946 35.4021 30.0679 34.9564 30.4492 34.8124C30.8304 34.6683 31.1154 35.1906 31.4967 35.0466C31.8779 34.9025 31.6134 34.4869 31.9947 34.3429C32.3759 34.1988 32.6814 34.6909 33.0627 34.5469C33.4439 34.4028 33.2172 33.9571 33.5985 33.8131C33.9797 33.669 34.2647 34.1913 34.646 34.0473C35.0272 33.9032 34.7627 33.4876 35.144 33.3436C35.5252 33.1995 35.8307 33.6916 36.212 33.5476C36.5932 33.4035 36.3665 32.9578 36.7477 32.8138C37.129 32.6697 37.414 33.192 37.7953 33.048C38.1765 32.9039 37.912 32.4883 38.2933 32.3442C38.6745 32.2001 38.98 32.6922 39.3613 32.5483C39.7425 32.4042 39.5158 31.9585 39.897 31.8145C40.2783 31.6704 40.5633 32.1927 40.9446 32.0487C41.3258 31.9046 41.0613 31.489 41.4426 31.3449C41.8238 31.2008 42.1293 31.6929 42.5106 31.5489C42.8918 31.4048 42.6651 30.9591 43.0463 30.8152C43.4276 30.6711 43.7126 31.1934 44.0939 31.0494C44.4751 30.9053 44.2106 30.4897 44.5919 30.3456C44.9731 30.2015 45.2786 30.6936 45.6599 30.5496C46.0411 30.4055 45.8144 29.9598 46.1956 29.8159C46.5769 29.6718 46.8619 30.1941 47.2431 30.0501C47.6244 29.906 47.3599 29.4904 47.7412 29.3463C48.1224 29.2022 48.4279 29.6943 48.8092 29.5503C49.1904 29.4062 48.9637 28.9605 49.3449 28.8166C49.7262 28.6725 50.0112 29.1948 50.3925 29.0508C50.7737 28.9067 50.5092 28.4911 50.8905 28.347C51.2717 28.2029 51.5772 28.695 51.9585 28.551C52.3397 28.4069 52.113 27.9612 52.4942 27.8173C52.8755 27.6732 53.1605 28.1955 53.5418 28.0515C53.923 27.9074 53.6585 27.4918 54.0398 27.3477C54.421 27.2036 54.7265 27.6957 55.1078 27.5517C55.489 27.4076 55.2623 26.9619 55.6435 26.818C56.0248 26.6739 56.3098 27.1962 56.6911 27.0522C57.0723 26.9081 56.8078 26.4925 57.1891 26.3484C57.5703 26.2043 57.8758 26.6964 58.2571 26.5524C58.6383 26.4083 58.4116 25.9626 58.7928 25.8187C59.1741 25.6746 59.4591 26.1969 59.8404 26.0529C60.2216 25.9088 59.9571 25.4932 60.3384 25.3491C60.7196 25.205 61.0251 25.6971 61.4064 25.5531C61.7876 25.409 61.5609 24.9633 61.9421 24.8194C62.3234 24.6753 62.6084 25.1976 62.9897 25.0536C63.3709 24.9095 63.1064 24.4939 63.4877 24.3498C63.8689 24.2057 64.1744 24.6978 64.5557 24.5538C64.9369 24.4097 64.7102 23.964 65.0914 23.8201C65.4727 23.676 65.7577 24.1983 66.139 24.0543C66.5202 23.9102 66.2557 23.4946 66.637 23.3505C67.0182 23.2064 67.3237 23.6985 67.705 23.5546C68.0862 23.4105 67.8595 22.9648 68.2407 22.8208C68.622 22.6767 68.907 23.199 69.2883 23.055C69.6695 22.9109 69.405 22.4953 69.7863 22.3512C70.1675 22.2071 70.473 22.6992 70.8543 22.5553C71.2355 22.4112 71.0088 21.9655 71.3901 21.8215C71.7713 21.6774 72.0563 22.1997 72.4376 22.0557C72.8188 21.9116 72.5543 21.496 72.9356 21.3519C73.3168 21.2078 73.6223 21.7 74.0036 21.556C74.3848 21.4119 74.1581 20.9662 74.5393 20.8222C74.9206 20.6781 75.2056 21.2004 75.5869 21.0564C75.9681 20.9123 75.7036 20.4967 76.0849 20.3526C76.4661 20.2085 76.7716 20.7006 77.1529 20.5567C77.5341 20.4126 77.3074 19.9669 77.6886 19.8229C78.0699 19.6788 78.3549 20.2011 78.7362 20.0571C79.1174 19.913 78.8529 19.4974 79.2342 19.3533C79.6154 19.2092 79.9209 19.7013 80.3022 19.5574C80.6834 19.4133 80.4567 18.9676 80.8379 18.8237C81.2192 18.6796 81.5042 19.2019 81.8855 19.0579C82.2667 18.9138 82.0022 18.4982 82.3835 18.3541C82.7647 18.2101 83.0702 18.7022 83.4515 18.5582C83.8327 18.4141 83.606 17.9684 83.9872 17.8244C84.3685 17.6803 84.6535 18.2026 85.0348 18.0586C85.416 17.9145 85.1515 17.4989 85.5328 17.3548C85.914 17.2108 86.2195 17.7029 86.6007 17.5589C86.982 17.4148 86.7553 16.9691 87.1365 16.8251C87.5178 16.681 87.8028 17.2033 88.184 17.0593C88.5653 16.9152 88.3008 16.4996 88.682 16.3556C89.0633 16.2115 89.3688 16.7036 89.7501 16.5596C90.1313 16.4155 89.9046 15.9698 90.2858 15.8259C90.6671 15.6818 90.9521 16.2041 91.3333 16.0601C91.7146 15.916 91.4501 15.5004 91.8313 15.3563C92.2126 15.2122 92.5181 15.7043 92.8994 15.5604C93.2806 15.4163 93.0539 14.9706 93.4351 14.8266C93.8164 14.6825 94.1014 15.2048 94.4826 15.0608C94.8639 14.9167 94.5994 14.5011 94.9806 14.3571C95.3619 14.213 95.6674 14.7051 96.0486 14.5611C96.4299 14.417 96.2032 13.9713 96.5844 13.8273C96.9657 13.6833 97.2507 14.2056 97.6319 14.0615C98.0132 13.9175 97.7487 13.5019 98.1299 13.3578C98.5112 13.2137 98.8167 13.7058 99.1979 13.5619C99.5792 13.4178 99.3525 12.9721 99.7337 12.8281C100.115 12.684 100.4 13.2063 100.781 13.0623C101.163 12.9182 100.898 12.5026 101.279 12.3586C101.661 12.2145 101.966 12.7066 102.347 12.5626C102.729 12.4185 102.502 11.9728 102.883 11.8288C103.265 11.6847 103.55 12.207 103.931 12.063C104.312 11.9189 104.048 11.5033 104.429 11.3592C104.81 11.2152 105.116 11.7073 105.497 11.5633C105.878 11.4192 105.652 10.9735 106.033 10.8295C106.414 10.6854 106.699 11.2077 107.08 11.0637C107.462 10.9196 107.197 10.504 107.578 10.36C107.96 10.2159 108.265 10.708 108.646 10.564C109.028 10.4199 108.801 9.97421 109.182 9.83025C109.563 9.68617 109.848 10.2085 110.23 10.0644C110.611 9.92036 110.346 9.50475 110.728 9.36071C111.109 9.21667 111.414 9.70876 111.796 9.56472C112.177 9.42068 111.95 8.97499 112.331 8.83103C112.713 8.68695 112.998 9.20924 113.379 9.06516C113.76 8.92112 113.496 8.50551 113.877 8.36147C114.258 8.21743 114.564 8.70952 114.945 8.56548C115.326 8.42144 115.1 7.97575 115.481 7.83179C115.862 7.68771 116.147 8.21 116.529 8.06592C116.91 7.92188 116.645 7.50627 117.027 7.36223C117.408 7.21819 117.713 7.71028 118.095 7.56624C118.476 7.4222 118.249 6.97651 118.63 6.83255C119.012 6.68847 119.297 7.21076 119.678 7.06668ZM87.817 22.7563C87.8407 23.3292 87.8185 23.9021 88.0515 23.9772C88.2824 24.0522 88.7559 23.6353 88.9789 23.7032C89.2037 23.7779 89.2492 24.3643 89.4828 24.4323C89.7149 24.5065 90.1585 24.088 90.3802 24.1672C90.6295 24.2496 90.6072 24.8079 90.9056 24.9059C91.2044 25.0041 91.5888 24.5555 91.8087 24.6263C92.0235 24.6991 91.9866 25.3498 92.2433 25.4712C92.506 25.5891 92.8857 25.1122 93.1213 25.4196C93.1213 25.4196 93.1668 25.4855 93.229 25.5767C92.9398 25.2001 92.7342 24.5772 92.223 24.6702C91.9246 24.7684 91.5403 24.3198 91.3204 24.3906C91.1055 24.4634 91.1424 25.1141 90.8858 25.2355C90.6231 25.3534 90.2433 24.8765 90.0078 25.1839C90.0078 25.1839 90.0533 25.2498 90.1155 25.341C89.8263 24.9644 89.6208 24.3415 89.1095 24.4345C88.8111 24.5327 88.4267 24.0841 88.2069 24.1549C87.992 24.2277 88.0289 24.8784 87.7722 24.9998C87.5096 25.1177 87.1298 24.6408 86.8942 24.9482C86.8942 24.9482 86.9398 25.0141 87.002 25.1053C86.7128 24.7287 86.5072 24.1058 85.996 24.1988C85.6976 24.297 85.3132 23.8484 85.0934 23.9192C84.8785 23.992 84.9154 24.6427 84.6587 24.7641C84.3961 24.882 84.0163 24.4051 83.7807 24.7125C83.7807 24.7125 83.8263 24.7784 83.8885 24.8696C83.5993 24.493 83.3937 23.8701 82.8825 23.9631C82.5841 24.0613 82.1997 23.6127 81.9799 23.6835C81.765 23.7563 81.8019 24.407 81.5452 24.5284C81.2826 24.6463 80.9028 24.1694 80.6672 24.4768C80.6672 24.4768 80.7128 24.5427 80.775 24.6339C80.4858 24.2573 80.2802 23.6344 79.769 23.7274C79.4706 23.8256 79.0862 23.377 78.8664 23.4478C78.6515 23.5206 78.6884 24.1713 78.4317 24.2927C78.1691 24.4106 77.7893 23.9337 77.5537 24.2411C77.5537 24.2411 77.5993 24.307 77.6615 24.3982C77.3723 24.0216 77.1667 23.3987 76.6555 23.4917C76.3571 23.5899 75.9727 23.1413 75.7529 23.2121C75.538 23.2849 75.5749 23.9356 75.3182 24.057C75.0556 24.1749 74.6758 23.698 74.4402 24.0054C74.4402 24.0054 74.4858 24.0713 74.548 24.1625C74.2588 23.7859 74.0532 23.163 73.542 23.256C73.2436 23.3542 72.8592 22.9056 72.6394 22.9764C72.4245 23.0492 72.4614 23.6999 72.2047 23.8213C71.9421 23.9392 71.5623 23.4623 71.3267 23.7697C71.3267 23.7697 71.3723 23.8356 71.4345 23.9268C71.1453 23.5502 70.9397 22.9273 70.4285 23.0203C70.1301 23.1185 69.7457 22.6699 69.5259 22.7407C69.311 22.8135 69.3479 23.4642 69.0912 23.5856C68.8286 23.7035 68.4488 23.2266 68.2132 23.534C68.2132 23.534 68.2588 23.5999 68.321 23.6911C68.0318 23.3145 67.8262 22.6916 67.315 22.7846C67.0166 22.8828 66.6322 22.4342 66.4124 22.505C66.1975 22.5778 66.2344 23.2285 65.9777 23.3499C65.7151 23.4678 65.3353 22.9909 65.0997 23.2983C65.0997 23.2983 65.1453 23.3642 65.2075 23.4554C64.9183 23.0788 64.7127 22.4559 64.2015 22.5489C63.9031 22.6471 63.5187 22.1985 63.2989 22.2693C63.084 22.3421 63.1209 22.9928 62.8642 23.1142C62.6016 23.2321 62.2218 22.7552 61.9862 23.0626C61.9862 23.0626 62.0318 23.1285 62.094 23.2197C61.8048 22.8431 61.5992 22.2202 61.088 22.3132C60.7896 22.4114 60.4052 21.9628 60.1854 22.0336C59.9705 22.1064 60.0074 22.7571 59.7507 22.8785C59.4881 22.9964 59.1083 22.5195 58.8727 22.8269C58.8727 22.8269 58.9183 22.8928 58.9805 22.984C58.6913 22.6074 58.4857 21.9845 57.9745 22.0775C57.6761 22.1757 57.2917 21.7271 57.0719 21.7979C56.857 21.8707 56.8939 22.5214 56.6372 22.6428C56.3746 22.7607 55.9948 22.2838 55.7592 22.5912C55.7592 22.5912 55.8048 22.6571 55.867 22.7483C55.5778 22.3717 55.3722 21.7488 54.861 21.8418C54.5626 21.94 54.1782 21.4914 53.9584 21.5622C53.7435 21.635 53.7804 22.2857 53.5237 22.4071C53.2611 22.525 52.8813 22.0481 52.6457 22.3555C52.6457 22.3555 52.6913 22.4214 52.7535 22.5126C52.4643 22.136 52.2587 21.5131 51.7475 21.6061C51.4491 21.7043 51.0647 21.2557 50.8449 21.3265C50.63 21.3993 50.6669 22.05 50.4102 22.1714C50.1476 22.2893 49.7678 21.8124 49.5322 22.1198C49.5322 22.1198 49.5778 22.1857 49.64 22.2769C49.3508 21.9003 49.1452 21.2774 48.634 21.3704C48.3356 21.4686 47.9512 21.02 47.7314 21.0908C47.5165 21.1636 47.5534 21.8143 47.2967 21.9357C47.0341 22.0536 46.6543 21.5767 46.4187 21.8841C46.4187 21.8841 46.4643 21.95 46.5265 22.0412C46.2373 21.6646 46.0317 21.0417 45.5205 21.1347C45.2221 21.2329 44.8377 20.7843 44.6179 20.8551C44.403 20.9279 44.4399 21.5786 44.1832 21.7C43.9206 21.8179 43.5408 21.341 43.3052 21.6484C43.3052 21.6484 43.3508 21.7143 43.413 21.8055C43.1238 21.4289 42.9182 20.806 42.407 20.899C42.1086 20.9972 41.7242 20.5486 41.5044 20.6194C41.2895 20.6922 41.3264 21.3429 41.0697 21.4643C40.8071 21.5822 40.4273 21.1053 40.1917 21.4127C40.1917 21.4127 40.2373 21.4786 40.2995 21.5698C40.0103 21.1932 39.8047 20.5703 39.2935 20.6633C38.9951 20.7615 38.6107 20.3129 38.3909 20.3837C38.176 20.4565 38.2129 21.1072 37.9562 21.2286C37.6936 21.3465 37.3138 20.8696 37.0782 21.177C37.0782 21.177 37.1238 21.2429 37.186 21.3341C36.8968 20.9575 36.6912 20.3346 36.18 20.4276C35.8816 20.5258 35.4972 20.0772 35.2774 20.148C35.0625 20.2208 35.0994 20.8715 34.8427 20.9929C34.5801 21.1108 34.2003 20.6339 33.9647 20.9413C33.9647 20.9413 34.0103 21.0072 34.0725 21.0984C33.7833 20.7218 33.5777 20.0989 33.0665 20.1919C32.7681 20.2901 32.3837 19.8415 32.1639 19.9123C31.949 19.9851 31.9859 20.6358 31.7292 20.7572C31.4666 20.8751 31.0868 20.3982 30.8512 20.7056C30.8512 20.7056 30.8968 20.7715 30.959 20.8627C30.6698 20.4861 30.4642 19.8632 29.953 19.9562C29.6546 20.0544 29.2702 19.6058 29.0504 19.6766C28.8355 19.7494 28.8724 20.4001 28.6157 20.5215C28.3531 20.6394 27.9733 20.1625 27.7377 20.4699C27.7377 20.4699 27.7833 20.5358 27.8455 20.627C27.5563 20.2504 27.3507 19.6275 26.8395 19.7205C26.5411 19.8187 26.1567 19.3701 25.9369 19.4409C25.722 19.5137 25.7589 20.1644 25.5022 20.2858C25.2396 20.4037 24.8598 19.9268 24.6242 20.2342C24.6242 20.2342 24.6698 20.3 24.732 20.3912C24.4428 20.0146 24.2372 19.3917 23.726 19.4847C23.4276 19.5829 23.0432 19.1343 22.8234 19.2051C22.6085 19.2779 22.6454 19.9286 22.3887 20.05C22.1261 20.1679 21.7463 19.691 21.5107 19.9984C21.5107 19.9984 21.5563 20.0643 21.6185 20.1555C21.3293 19.7789 21.1237 19.156 20.6125 19.249C20.3141 19.3472 19.9297 18.8986 19.7099 18.9694C19.495 19.0422 19.5319 19.6929 19.2752 19.8143C19.0126 19.9322 18.6328 19.4553 18.3972 19.7627C18.3972 19.7627 18.4428 19.8286 18.505 19.9198C18.2158 19.5432 18.0102 18.9203 17.499 19.0133C17.2006 19.1115 16.8162 18.6629 16.5964 18.7337C16.3815 18.8065 16.4184 19.4572 16.1617 19.5786C15.8991 19.6965 15.5193 19.2196 15.2837 19.527C15.2837 19.527 15.3293 19.5929 15.3915 19.6841C15.1023 19.3075 14.8967 18.6846 14.3855 18.7776C14.0871 18.8758 13.7027 18.4272 13.4829 18.498C13.268 18.5708 13.3049 19.2215 13.0482 19.3429C12.7856 19.4608 12.4058 18.9839 12.1702 19.2913C12.1702 19.2913 12.2158 19.3572 12.278 19.4484C11.9888 19.0718 11.7832 18.4489 11.272 18.5419C10.9736 18.6401 10.5892 18.1915 10.3694 18.2623C10.1545 18.3351 10.1914 18.9858 9.9347 19.1072C9.6721 19.2251 9.2923 18.7482 9.0567 19.0556C9.0567 19.0556 9.1023 19.1215 9.1645 19.2127C8.8753 18.8361 8.6697 18.2132 8.1585 18.3062C7.8601 18.4044 7.4757 17.9558 7.2559 18.0266C7.041 18.0994 7.0779 18.7501 6.8212 18.8715C6.5586 18.9894 6.1788 18.5125 5.9432 18.8199C5.9432 18.8199 5.9888 18.8858 6.051 18.977C5.7618 18.6004 5.5562 17.9775 5.045 18.0705C4.7466 18.1687 4.3622 17.7201 4.1424 17.7909C3.9275 17.8637 3.9644 18.5144 3.7077 18.6358C3.4451 18.7537 3.0653 18.2768 2.8297 18.5842C2.8297 18.5842 2.8753 18.6501 2.9375 18.7413C2.6483 18.3647 2.4427 17.7418 1.9315 17.8348C1.6331 17.933 1.2487 17.4844 1.0289 17.5552C0.814 17.628 0.8509 18.2787 0.5942 18.4001C0.3316 18.518 -0.0482 18.0411 -0.2838 18.3485C-0.2838 18.3485 -0.2382 18.4144 -0.176 18.5056C-0.4652 18.129 -0.6708 17.5061 -1.182 17.5991C-1.4804 17.6973 -1.8648 17.2487 -2.0846 17.3195C-2.2995 17.3923 -2.2626 18.043 -2.5193 18.1644C-2.7819 18.2823 -3.1617 17.8054 -3.3973 18.1128C-3.3973 18.1128 -3.3517 18.1787 -3.2895 18.2699C-3.5787 17.8933 -3.7843 17.2704 -4.2955 17.3634C-4.5939 17.4616 -4.9783 17.013 -5.1981 17.0838C-5.413 17.1566 -5.3761 17.8073 -5.6328 17.9287C-5.8954 18.0466 -6.2752 17.5697 -6.5108 17.8771C-6.5108 17.8771 -6.4652 17.943 -6.403 18.0342C-6.6922 17.6576 -6.8978 17.0347 -7.409 17.1277C-7.7074 17.2259 -8.0918 16.7773 -8.3116 16.8481C-8.5265 16.9209 -8.4896 17.5716 -8.7463 17.693C-9.0089 17.8109 -9.3887 17.334 -9.6243 17.6414C-9.6243 17.6414 -9.5787 17.7073 -9.5165 17.7985C-9.8057 17.4219 -10.0113 16.799 -10.5225 16.892C-10.8209 16.9902 -11.2053 16.5416 -11.4251 16.6124C-11.64 16.6852 -11.6031 17.3359 -11.8598 17.4573C-12.1224 17.5752 -12.5022 17.0983 -12.7378 17.4057C-12.7378 17.4057 -12.6922 17.4716 -12.63 17.5628C-12.9192 17.1862 -13.1248 16.5633 -13.636 16.6563C-13.9344 16.7545 -14.3188 16.3059 -14.5386 16.3767C-14.7535 16.4495 -14.7166 17.1002 -14.9733 17.2216C-15.2359 17.3395 -15.6157 16.8626 -15.8513 17.17C-15.8513 17.17 -15.8057 17.2359 -15.7435 17.3271C-16.0327 16.9505 -16.2383 16.3276 -16.7495 16.4206C-17.0479 16.5188 -17.4323 16.0702 -17.6521 16.141C-17.867 16.2138 -17.8301 16.8645 -18.0868 16.9859C-18.3494 17.1038 -18.7292 16.6269 -18.9648 16.9343C-18.9648 16.9343 -18.9192 17.0002 -18.857 17.0914C-19.1462 16.7148 -19.3518 16.0919 -19.863 16.1849C-20.1614 16.2831 -20.5458 15.8345 -20.7656 15.9053C-20.9805 15.9781 -20.9436 16.6288 -21.2003 16.7502C-21.4629 16.8681 -21.8427 16.3912 -22.0783 16.6986C-22.0783 16.6986 -22.0327 16.7645 -21.9705 16.8557C-22.2597 16.4791 -22.4653 15.8562 -22.9765 15.9492C-23.2749 16.0474 -23.6593 15.5988 -23.8791 15.6696C-24.094 15.7424 -24.0571 16.3931 -24.3138 16.5145C-24.5764 16.6324 -24.9562 16.1555 -25.1918 16.4629C-25.1918 16.4629 -25.1462 16.5288 -25.084 16.62C-25.3732 16.2434 -25.5788 15.6205 -26.09 15.7135C-26.3884 15.8117 -26.7728 15.3631 -26.9926 15.4339C-27.2075 15.5067 -27.1706 16.1574 -27.4273 16.2788C-27.6899 16.3967 -28.0697 15.9198 -28.3053 16.2272C-28.3053 16.2272 -28.2597 16.2931 -28.1975 16.3843C-28.4867 16.0077 -28.6923 15.3848 -29.2035 15.4778C-29.5019 15.576 -29.8863 15.1274 -30.1061 15.1982C-30.321 15.271 -30.2841 15.9217 -30.5408 16.0431C-30.8034 16.161 -31.1832 15.6841 -31.4188 15.9915C-31.4188 15.9915 -31.3732 16.0574 -31.311 16.1486C-31.6002 15.772 -31.8058 15.1491 -32.317 15.2421C-32.6154 15.3403 -32.9998 14.8917 -33.2196 14.9625C-33.4345 15.0353 -33.3976 15.686 -33.6543 15.8074C-33.9169 15.9253 -34.2967 15.4484 -34.5323 15.7558C-34.5323 15.7558 -34.4867 15.8217 -34.4245 15.9129C-34.7137 15.5363 -34.9193 14.9134 -35.4305 15.0064C-35.7289 15.1046 -36.1133 14.656 -36.3331 14.7268C-36.548 14.7996 -36.5111 15.4503 -36.7678 15.5717C-37.0304 15.6896 -37.4102 15.2127 -37.6458 15.5201C-37.6458 15.5201 -37.6002 15.586 -37.538 15.6772C-37.8272 15.3006 -38.0328 14.6777 -38.544 14.7707C-38.8424 14.8689 -39.2268 14.4203 -39.4466 14.4911C-39.6615 14.5639 -39.6246 15.2146 -39.8813 15.336C-40.1439 15.4539 -40.5237 14.977 -40.7593 15.2844C-40.7593 15.2844 -40.7137 15.3503 -40.6515 15.4415C-40.9407 15.0649 -41.1463 14.442 -41.6575 14.535C-41.9559 14.6332 -42.3403 14.1846 -42.5601 14.2554C-42.775 14.3282 -42.7381 14.9789 -42.9948 15.1003C-43.2574 15.2182 -43.6372 14.7413 -43.8728 15.0487C-43.8728 15.0487 -43.8272 15.1146 -43.765 15.2058C-44.0542 14.8292 -44.2598 14.2063 -44.771 14.2993C-45.0694 14.3975 -45.4538 13.9489 -45.6736 14.0197C-45.8885 14.0925 -45.8516 14.7432 -46.1083 14.8646C-46.3709 14.9825 -46.7507 14.5056 -46.9863 14.813C-46.9863 14.813 -46.9407 14.8789 -46.8785 14.9701C-47.1677 14.5935 -47.3733 13.9706 -47.8845 14.0636C-48.1829 14.1618 -48.5673 13.7132 -48.7871 13.784C-49.002 13.8568 -48.9651 14.5075 -49.2218 14.6289C-49.4844 14.7468 -49.8642 14.2699 -50.0998 14.5773C-50.0998 14.5773 -50.0542 14.6432 -49.992 14.7344C-50.2812 14.3578 -50.4868 13.7349 -50.998 13.8279C-51.2964 13.9261 -51.6808 13.4775 -51.9006 13.5483C-52.1155 13.6211 -52.0786 14.2718 -52.3353 14.3932C-52.5979 14.5111 -52.9777 14.0342 -53.2133 14.3416C-53.2133 14.3416 -53.1677 14.4075 -53.1055 14.4987C-53.3947 14.1221 -53.6003 13.4992 -54.1115 13.5922C-54.4099 13.6904 -54.7943 13.2418 -55.0141 13.3126C-55.229 13.3854 -55.1921 14.0361 -55.4488 14.1575C-55.7114 14.2754 -56.0912 13.7985 -56.3268 14.1059C-56.3268 14.1059 -56.2812 14.1718 -56.219 14.263C-56.5082 13.8864 -56.7138 13.2635 -57.225 13.3565C-57.5234 13.4547 -57.9078 13.0061 -58.1276 13.0769C-58.3425 13.1497 -58.3056 13.8004 -58.5623 13.9218C-58.8249 14.0397 -59.2047 13.5628 -59.4403 13.8702C-59.4403 13.8702 -59.3947 13.9361 -59.3325 14.0273C-59.6217 13.6507 -59.8273 13.0278 -60.3385 13.1208C-60.6369 13.219 -61.0213 12.7704 -61.2411 12.8412C-61.456 12.914 -61.4191 13.5647 -61.6758 13.6861C-61.9384 13.804 -62.3182 13.3271 -62.5538 13.6345C-62.5538 13.6345 -62.5082 13.7004 -62.446 13.7916C-62.7352 13.415 -62.9408 12.7921 -63.452 12.8851C-63.7504 12.9833 -64.1348 12.5347 -64.3546 12.6055C-64.5695 12.6783 -64.5326 13.329 -64.7893 13.4504C-65.0519 13.5683 -65.4317 13.0914 -65.6673 13.3988C-65.6673 13.3988 -65.6217 13.4647 -65.5595 13.5559C-65.8487 13.1793 -66.0543 12.5564 -66.5655 12.6494C-66.8639 12.7476 -67.2483 12.299 -67.4681 12.3698C-67.683 12.4426 -67.6461 13.0933 -67.9028 13.2147C-68.1654 13.3326 -68.5452 12.8557 -68.7808 13.1631C-68.7808 13.1631 -68.7352 13.229 -68.673 13.3202C-68.9622 12.9436 -69.1678 12.3207 -69.679 12.4137C-69.9774 12.5119 -70.3618 12.0633 -70.5816 12.1341C-70.7965 12.2069 -70.7596 12.8576 -71.0163 12.979C-71.2789 13.0969 -71.6587 12.62 -71.8943 12.9274C-71.8943 12.9274 -71.8487 12.9933 -71.7865 13.0845C-72.0757 12.7079 -72.2813 12.085 -72.7925 12.178C-73.0909 12.2762 -73.4753 11.8276 -73.6951 11.8984C-73.91 11.9712 -73.8731 12.6219 -74.1298 12.7433C-74.3924 12.8612 -74.7722 12.3843 -75.0078 12.6917C-75.0078 12.6917 -74.9622 12.7576 -74.9 12.8488C-75.1892 12.4722 -75.3948 11.8493 -75.906 11.9423C-76.2044 12.0405 -76.5888 11.5919 -76.8086 11.6627C-77.0235 11.7355 -76.9866 12.3862 -77.2433 12.5076C-77.5059 12.6255 -77.8857 12.1486 -78.1213 12.456C-78.1213 12.456 -78.0757 12.5219 -78.0135 12.6131C-78.3027 12.2365 -78.5083 11.6136 -79.0195 11.7066C-79.3179 11.8048 -79.7023 11.3562 -79.9221 11.427C-80.137 11.4998 -80.1001 12.1505 -80.3568 12.2719C-80.6194 12.3898 -80.9992 11.9129 -81.2348 12.2203C-81.2348 12.2203 -81.1892 12.2862 -81.127 12.3774C-81.4162 12.0008 -81.6218 11.3779 -82.133 11.4709C-82.4314 11.5691 -82.8158 11.1205 -83.0356 11.1913C-83.2505 11.2641 -83.2136 11.9148 -83.4703 12.0362C-83.7329 12.1541 -84.1127 11.6772 -84.3483 11.9846C-84.3483 11.9846 -84.3027 12.0505 -84.2405 12.1417C-84.5297 11.7651 -84.7353 11.1422 -85.2465 11.2352C-85.5449 11.3334 -85.9293 10.8848 -86.1491 10.9556C-86.364 11.0284 -86.3271 11.6791 -86.5838 11.8005C-86.8464 11.9184 -87.2262 11.4415 -87.4618 11.7489C-87.4618 11.7489 -87.4162 11.8148 -87.354 11.906C-87.6432 11.5294 -87.8488 10.9065 -88.36 10.9995C-88.6584 11.0977 -89.0428 10.6491 -89.2626 10.7199C-89.4775 10.7927 -89.4406 11.4434 -89.6973 11.5648C-89.9599 11.6827 -90.3397 11.2058 -90.5753 11.5132C-90.5753 11.5132 -90.5297 11.5791 -90.4675 11.6703C-90.7567 11.2937 -90.9623 10.6708 -91.4735 10.7638C-91.7719 10.862 -92.1563 10.4134 -92.3761 10.4842C-92.591 10.557 -92.5541 11.2077 -92.8108 11.3291C-93.0734 11.447 -93.4532 10.9701 -93.6888 11.2775C-93.6888 11.2775 -93.6432 11.3434 -93.581 11.4346C-93.8702 11.058 -94.0758 10.4351 -94.587 10.5281C-94.8854 10.6263 -95.2698 10.1777 -95.4896 10.2485C-95.7045 10.3213 -95.6676 10.972 -95.9243 11.0934C-96.1869 11.2113 -96.5667 10.7344 -96.8023 11.0418C-96.8023 11.0418 -96.7567 11.1077 -96.6945 11.1989C-96.9837 10.8223 -97.1893 10.1994 -97.7005 10.2924C-97.9989 10.3906 -98.3833 9.94203 -98.6031 10.0128C-98.818 10.0856 -98.7811 10.7363 -99.0378 10.8577C-99.3004 10.9756 -99.6802 10.4987 -99.9158 10.8061C-99.9158 10.8061 -99.8702 10.872 -99.808 10.9632C-100.097 10.5866 -100.303 9.96371 -100.814 10.0567C-101.112 10.1549 -101.497 9.70631 -101.717 9.77711C-101.931 9.84991 -101.895 10.5006 -102.151 10.622C-102.414 10.7399 -102.794 10.263 -103.029 10.5704C-103.029 10.5704 -102.984 10.6363 -102.922 10.7275C-103.211 10.3509 -103.416 9.72803 -103.928 9.82103C-104.226 9.91923 -104.61 9.47063 -104.83 9.54143C-105.045 9.61423 -105.008 10.2649 -105.265 10.3863C-105.528 10.5042 -105.907 10.0273 -106.143 10.3347C-106.143 10.3347 -106.097 10.4006 -106.035 10.4918C-106.324 10.1152 -106.53 9.49231 -107.041 9.58531C-107.34 9.68351 -107.724 9.23491 -107.944 9.30571C-108.159 9.37851 -108.122 10.0292 -108.379 10.1506C-108.641 10.2685 -109.021 9.79163 -109.257 10.099C-109.257 10.099 -109.211 10.1649 -109.149 10.2561C-109.438 9.87951 -109.644 9.25663 -110.155 9.34963C-110.453 9.44783 -110.837 8.99923 -111.057 9.07003C-111.272 9.14283 -111.235 9.79351 -111.492 9.91491C-111.755 10.0328 -112.135 9.55591 -112.37 9.86331C-112.37 9.86331 -112.325 9.92923 -112.263 10.0204C-112.552 9.64383 -112.757 9.02095 -113.269 9.11395C-113.567 9.21215 -113.951 8.76355 -114.171 8.83435C-114.386 8.90715 -114.349 9.55783 -114.606 9.67923C-114.868 9.79715 -115.248 9.32023 -115.484 9.62763C-115.484 9.62763 -115.438 9.69355 -115.376 9.78475C-115.665 9.40815 -115.871 8.78527 -116.382 8.87827C-116.681 8.97647 -117.065 8.52787 -117.285 8.59867C-117.5 8.67147 -117.463 9.32215 -117.719 9.44355C-117.982 9.56147 -118.362 9.08455 -118.597 9.39195C-118.597 9.39195 -118.552 9.45787 -118.49 9.54907C-118.779 9.17247 -118.984 8.54959 -119.496 8.64259C-119.794 8.74079 -120.179 8.29219 -120.398 8.36299C-120.613 8.43579 -120.576 9.08647 -120.833 9.20787C-121.096 9.32579 -121.476 8.84887 -121.711 9.15627C-121.711 9.15627 -121.666 9.22219 -121.603 9.31339C-121.892 8.93679 -122.098 8.31391 -122.609 8.40691C-122.908 8.50511 -123.292 8.05651 -123.512 8.12731C-123.727 8.20011 -123.69 8.85079 -123.947 8.97219C-124.209 9.09011 -124.589 8.61319 -124.825 8.92059C-124.825 8.92059 -124.779 8.98651 -124.717 9.07771C-125.006 8.70111 -125.212 8.07823 -125.723 8.17123C-126.021 8.26943 -126.406 7.82083 -126.626 7.89163C-126.841 7.96443 -126.804 8.61511 -127.061 8.73651C-127.323 8.85443 -127.703 8.37751 -127.939 8.68491C-127.939 8.68491 -127.893 8.75083 -127.831 8.84203C-128.12 8.46543 -128.326 7.84255 -128.837 7.93555C-129.135 8.03375 -129.519 7.58515 -129.739 7.65595C-129.954 7.72875 -129.917 8.37943 -130.174 8.50083C-130.437 8.61875 -130.817 8.14183 -131.052 8.44923C-131.052 8.44923 -131.007 8.51515 -130.944 8.60635C-131.234 8.22975 -131.439 7.60687 -131.95 7.69987C-132.249 7.79807 -132.633 7.34947 -132.853 7.42027C-133.068 7.49307 -133.031 8.14375 -133.288 8.26515C-133.55 8.38307 -133.93 7.90615 -134.166 8.21355C-134.166 8.21355 -134.12 8.27947 -134.058 8.37067C-134.347 7.99407 -134.553 7.37119 -135.064 7.46419C-135.362 7.56239 -135.747 7.11379 -135.967 7.18459C-136.182 7.25739 -136.145 7.90807 -136.402 8.02947C-136.664 8.14739 -137.044 7.67047 -137.279 7.97787C-137.279 7.97787 -137.234 8.04379 -137.172 8.13499C-137.461 7.75839 -137.666 7.13551 -138.178 7.22851C-138.476 7.32671 -138.86 6.87811 -139.08 6.94891C-139.295 7.02171 -139.258 7.67239 -139.515 7.79379C-139.777 7.91171 -140.157 7.43479 -140.393 7.74219C-140.393 7.74219 -140.347 7.80811 -140.285 7.89931C-140.574 7.52271 -140.78 6.89983 -141.291 6.99283C-141.59 7.09103 -141.974 6.64243 -142.194 6.71323C-142.409 6.78603 -142.372 7.43671 -142.629 7.55811C-142.891 7.67603 -143.271 7.19911 -143.507 7.50651C-143.507 7.50651 -143.461 7.57243 -143.399 7.66363C-143.688 7.28703 -143.893 6.66415 -144.405 6.75715C-144.703 6.85535 -145.087 6.40675 -145.307 6.47755C-145.522 6.55035 -145.485 7.20103 -145.742 7.32243C-146.005 7.44035 -146.385 6.96343 -146.62 7.27083C-146.62 7.27083 -146.575 7.33675 -146.513 7.42795C-146.802 7.05135 -147.007 6.42847 -147.518 6.52147C-147.817 6.61967 -148.201 6.17107 -148.421 6.24187C-148.636 6.31467 -148.599 6.96535 -148.856 7.08675C-149.118 7.20467 -149.498 6.72775 -149.734 7.03515C-149.734 7.03515 -149.688 7.10107 -149.626 7.19227C-149.915 6.81567 -150.121 6.19279 -150.632 6.28579C-150.93 6.38399 -151.315 5.93539 -151.535 6.00619C-151.75 6.07899 -151.713 6.72967 -151.97 6.85107C-152.232 6.96899 -152.612 6.49207 -152.847 6.79947C-152.847 6.79947 -152.802 6.86539 -152.74 6.95659C-153.029 6.57999 -153.234 5.95711 -153.745 6.05011C-154.044 6.14831 -154.428 5.69971 -154.648 5.77051C-154.863 5.84331 -154.826 6.49399 -155.083 6.61539C-155.346 6.73331 -155.726 6.25639 -155.961 6.56379C-155.961 6.56379 -155.916 6.62971 -155.853 6.72091C-156.143 6.34431 -156.348 5.72143 -156.859 5.81443C-157.158 5.91263 -157.542 5.46403 -157.762 5.53483C-157.977 5.60763 -157.94 6.25831 -158.197 6.37971C-158.459 6.49763 -158.839 6.02071 -159.075 6.32811C-159.075 6.32811 -159.029 6.39403 -158.967 6.48523C-159.256 6.10863 -159.462 5.48575 -159.973 5.57875C-160.271 5.67695 -160.655 5.22835 -160.876 5.29915C-161.091 5.37195 -161.054 5.98779 -161.31 6.14407Z" transform="translate(162 16)" />
          </svg>