<svg viewBox="0 0 142 20" xmlns="http://www.w3.org/2000/svg">
            <path fill="#D6DBE4" d="M105.491 18.9054L101.116 11.393C102.066 10.9481 102.867 10.2496 103.429 9.37802C103.991 8.50645
            104.289 7.49731 104.29 6.46691C104.29 3.44409 101.777 0.984664 98.6883 0.984664L89.3324
            0.984664V18.9047H93.4931V11.9492H96.8045L100.855 18.9054H105.491ZM93.4248 4.45261H97.9088L97.8915
            4.45951C99.2565 4.53123 100.126 5.30564 100.126 6.47519C100.126 7.63198 99.1945 8.44259 97.8056
            8.49086L93.4248 8.49086V4.45261ZM72.341 18.9054V0.984664L86.0196 0.984664V4.404L76.614
            4.404V7.98918H84.8607V11.4847H76.614V15.3075H86.4849V18.9054H72.341ZM52.8317 18.9054L48.4572
            11.393C49.4066 10.948 50.2082 10.2495 50.7696 9.37792C51.331 8.50635 51.6293 7.49725 51.6302
            6.46691C51.6302 3.44409 49.1177 0.984664 46.0296 0.984664L36.673
            0.984664V18.9047H40.834V11.9492H44.1465L48.1959 18.9054H52.8317ZM40.7646 4.45261H45.2494L45.2318
            4.45951C46.5967 4.53123 47.4671 5.30564 47.4671 6.47519C47.4671 7.63198 46.5351 8.44259 45.1458
            8.49086H40.7646V4.45261ZM25.5851 19.3471C30.5908 19.3471 33.5803 16.5298 33.5803
            11.8116V0.997769H29.3076V11.532C29.3076 14.0831 27.9508 15.5464 25.5855 15.5464H25.583C23.2177
            15.5464 21.8616 14.0834 21.8616 11.532V0.997769L17.5871 0.997769V11.8123C17.5871 16.5301 20.5766
            19.3474 25.583 19.3474L25.5851 19.3471ZM11.9988 8.98013C14.4645 9.80315 15.6664 11.8564 15.6664
            13.8362C15.6664 16.6256 13.3525 18.8964 10.5053 18.9054H0.398438L0.398438 0.983285L9.70713
            0.983285C12.1302 1.00535 14.0837 2.9331 14.0866 5.3053C14.0881 6.04126 13.897 6.76535 13.5315
            7.40852C13.1661 8.0517 12.6384 8.59252 11.9988 8.97944V8.98013ZM4.59293 15.5616H9.26436C10.7329
            15.5616 11.5011 14.4896 11.5011 13.4297C11.5011 12.576 10.8075 11.374 9.26436
            11.374H4.59293V15.5616ZM8.01355 8.03125C9.0893 8.03125 9.93327 7.21788 9.93327 6.17935C9.93327
            5.17531 9.05266 4.32746 8.01285 4.32746H4.59293V8.03125H8.01355ZM66.3793 8.97667C68.845 9.79901
            70.0468 11.853 70.0468 13.8328C70.0468 16.6225 67.733 18.8923 64.8858 18.902L54.7793
            18.9013V0.979839L64.0866 0.979492C66.5103 1.0019 68.4639 2.93 68.4667 5.30254C68.4682 6.0384 68.277
            6.76237 67.9116 7.40542C67.5461 8.04848 67.0185 8.58918 66.3789 8.97598L66.3793 8.97667ZM58.9734
            15.5581H63.6445C65.113 15.5581 65.8812 14.4862 65.8812 13.4263C65.8812 12.5729 65.187 11.3706 63.6445
            11.3706H58.9734V15.5581ZM62.393 8.0278C63.4701 8.0278 64.3141 7.21443 64.3141 6.1759C64.3141 5.17186
            63.4335 4.32401 62.393 4.32401H58.9734V8.0278H62.393ZM123.597 18.9054L119.223 11.393C120.172 10.948
            120.973 10.2494 121.535 9.37785C122.096 8.50629 122.394 7.49721 122.395 6.46691C122.395 3.44409
            119.883 0.984664 116.795 0.984664L107.439 0.984664V18.9047H111.6V11.9492H114.912L118.961
            18.9054H123.597H123.597ZM111.53 4.45261H116.015L115.997 4.45951C117.362 4.53123 118.233 5.30564
            118.233 6.47519C118.233 7.63198 117.301 8.44259 115.911 8.49086H111.53V4.45261ZM129.677
            18.9054V11.603L122.414 0.984664L127.749 0.984664L131.93 7.14581L136.129 0.984664L141.464
            0.984664L134.184 11.603V18.9054H129.677Z" />
          </svg>