<svg fill="#D6DBE4" xmlns="http://www.w3.org/2000/svg" viewBox="0 0 106 30" width="200px">
            <path d="M8.97806 27.4239C8.97806 28.0373 9.25693 28.2261 9.67223 28.2261H13.3467C22.396 28.2261 25.6702 21.3611 25.6702 14.4831C25.6702 7.60515 22.1873 0.932951 14.5475 0.932951H9.54784C9.04025 0.932951 8.99411 1.36438 8.99411 1.55325L8.97806 27.4239ZM0.333041 0.394165H14.1753C26.0936 0.394165 30.7361 7.33079 30.7361 14.6611C30.7361 21.9913 24.7544 28.7659 13.3949 28.7659H0.343072C0.111348 28.7659 0.0100314 28.6178 0.0100314 28.4856C0.0100314 28.3365 0.151473 28.2122 0.383198 28.2122H2.82583C3.57417 28.2122 4.08075 27.7699 4.08075 26.9269V2.25705C4.08075 1.64769 3.77279 0.963767 2.77567 0.963767H0.294922C0.113354 0.963767 0 0.829568 0 0.690398C0 0.551228 0.0471474 0.395159 0.333041 0.395159" fill="#D6DBE4"></path><path d="M31.9407 0.394165C31.7152 0.394165 31.5241 0.468733 31.5241 0.661617C31.5241 0.832627 31.6283 0.932051 31.8365 0.932051H34.2851C34.8522 0.932051 35.4001 1.31285 35.4001 2.38265V26.9514C35.4001 27.4555 35.0069 28.231 34.3124 28.231H31.8709C31.5959 28.231 31.5615 28.4478 31.5615 28.5352C31.5615 28.6227 31.5454 28.7659 31.8638 28.7659H43.7132C43.8871 28.7659 44.1338 28.7411 44.1338 28.569C44.1338 28.397 44.0893 28.23 43.7779 28.23H41.4922C41.1626 28.23 40.2689 28.0272 40.2689 27.0528V2.11122C40.2689 1.40233 40.7147 0.933045 41.5468 0.933045H43.782C43.9822 0.933045 44.0792 0.832627 44.0792 0.669571C44.0792 0.528388 43.966 0.395159 43.7193 0.395159H31.9407V0.394165Z" fill="#D6DBE4"></path><path d="M60.2899 29.5539C69.7115 29.5539 75.658 22.9376 75.658 14.777C75.658 6.61634 69.7665 0 60.2899 0C50.8134 0 44.9219 6.61634 44.9219 14.777C44.9219 22.9376 51.0585 29.5539 60.2899 29.5539ZM50.136 14.777C50.136 6.93831 53.666 0.583327 60.2899 0.583327C66.9138 0.583327 70.4449 6.93831 70.4449 14.777C70.4449 22.6156 67.1049 28.9706 60.2899 28.9706C53.4749 28.9706 50.136 22.6156 50.136 14.777Z" fill="#D6DBE4"></path><path d="M86.5271 0.936091H88.2953C91.3242 0.936091 96.2567 2.13214 96.2567 7.90601C96.2567 13.1971 91.8825 14.9911 87.8495 14.9911H85.2683V2.12412C85.2683 1.4099 85.707 0.936091 86.5271 0.936091Z" fill="#D6DBE4"></path>
          </svg>