<svg width="200px" viewBox="0 0 142 35"  xmlns="http://www.w3.org/2000/svg">
            <path d="M82.3601 19.0504C82.3601 15.6927 80.9207 12.7261 76.0529 12.7261C73.5554 12.7261 71.5715 13.4369 70.4959 14.0591L71.2843 16.7529C72.2746 16.1324 73.8548 15.6215 75.3463 15.6215C77.8107 15.618 78.2145 17.0101 78.2145 17.9051V18.1206C72.8349 18.1119 69.4342 19.968 69.4342 23.748C69.4342 26.0577 71.1607 28.2232 74.1786 28.2232C76.0199 28.2232 77.5757 27.4811 78.5051 26.3097H78.5956C78.5956 26.3097 79.2083 28.8697 82.5968 27.8913C82.4245 26.8189 82.3601 25.6893 82.3601 24.3163V19.0504ZM78.3468 22.5958C78.3468 22.8669 78.3242 23.1484 78.2441 23.39C77.9342 24.4241 76.8657 25.2896 75.536 25.2896C74.4135 25.2896 73.5328 24.6552 73.5328 23.3257C73.5328 21.2923 75.7814 20.7327 78.3468 20.7466" fill="#D6DBE4"></path> <path d="M0 8.15757C0 8.15757 3.5138 22.5129 4.07249 24.8382C4.73034 27.5564 5.90859 28.5609 9.30931 27.8918L11.5057 18.9901C12.0608 16.7847 12.4385 15.2031 12.797 12.956H12.8579C13.1068 15.2257 13.4654 16.7847 13.9196 18.997C13.9196 18.997 14.8158 23.0412 15.2806 25.1597C15.733 27.2783 17.007 28.6148 20.3433 27.8918L25.5715 8.15757H21.351L19.5567 16.6943C19.0816 19.1674 18.6499 21.1156 18.314 23.3818H18.2531C17.9503 21.1399 17.5657 19.2716 17.0714 16.849L15.2127 8.15757H10.8095L8.82546 16.6265C8.25981 19.2125 7.73076 21.2859 7.39833 23.4809H7.34092C6.99808 21.4215 6.5334 18.7989 6.04083 16.3102C6.04083 16.3102 4.86259 10.2466 4.44667 8.15757" fill="#D6DBE4"></path> <path d="M37.3331 19.0504C37.3331 15.6927 35.8902 12.7261 31.0224 12.7261C28.5319 12.7261 26.5444 13.4369 25.4689 14.0591L26.2572 16.7529C27.2441 16.1324 28.8226 15.6215 30.3193 15.6215C32.7837 15.618 33.1874 17.0101 33.1874 17.9051V18.1206C27.808 18.1119 24.4038 19.968 24.4038 23.748C24.4038 26.0577 26.1372 28.2232 29.1411 28.2232C30.9997 28.2232 32.5418 27.4811 33.4712 26.3097H33.5651C33.5651 26.3097 34.1812 28.8697 37.5662 27.8913C37.3922 26.8189 37.3331 25.6893 37.3331 24.3163V19.0504ZM33.3163 22.5958C33.3163 22.8669 33.2937 23.1484 33.2171 23.39C32.9037 24.4241 31.8352 25.2896 30.5055 25.2896C29.383 25.2896 28.5023 24.6552 28.5023 23.3257C28.5023 21.2923 30.7509 20.7327 33.3163 20.7466V22.5958ZM137.928 8.15757L128.63 22.5129L128.57 22.5129L128.63 8.15757H124.708V27.8918H128.272L137.571 13.5365H137.63L137.571 27.8918H141.492V8.15757H137.928ZM67.6366 27.8918L63.072 19.5887H57.5246V27.8918H53.4225V8.15757H57.5246V15.7533H62.9523L67.2783 8.15757H57.5246H62.296L67.6366 27.8918ZM109.227 27.8918L104.662 19.5887H99.1147V27.8918H95.0125V8.15757H99.1147V15.7533H104.542L108.868 8.15757H99.1147H103.886L109.227 27.8918Z" fill="#D6DBE4"></path>
          </svg>