<svg viewBox="0 0 124 32" xmlns="http://www.w3.org/2000/svg">
            <path fill="#D6DBE4" d="M17.1397 0.411008C18.76 0.365032 20.3849 0.368097 22.0052 0.404878C22.399 0.665406 22.7134 1.03628
            23.0262 1.38722C23.0792 2.81247 23.034 4.24078 23.0449 5.66756C22.6823 6.0231 22.3429 6.4047 21.9476
            6.72653C20.3507 6.77097 18.7475 6.74492 17.149 6.73572C17.1412 4.62697 17.1599 2.51976 17.1397
            0.411008ZM18.3553 1.38263C18.181 2.79561 18.3024 4.22545 18.2697 5.6461C19.2689 5.6553 20.2682
            5.65836 21.2659 5.65223C21.5787 5.69667 21.7593 5.40856 21.9383 5.20933C21.9974 4.21473 21.9492
            3.21399 21.9616 2.21785C22.0192 1.85618 21.6955 1.63396 21.49 1.38876C20.4456 1.38876 19.4012 1.39948
            18.3553 1.38263Z" />
            <path d="M26.424 0.386487C27.9213 0.378825 29.4171 0.386487 30.9144 0.38189C31.5495 0.276146 31.839 0.939728
            32.253 1.27841C32.239 1.95426 32.2763 2.63163 32.2405 3.30747C32.0024 3.68141 31.5417 3.86684 31.2319
            4.18408C31.579 5.03616 32.0055 5.85759 32.2857 6.73726C31.8981 6.74492 31.5105 6.76637 31.1261
            6.73572C30.6856 5.97559 30.3837 5.13424 30.1082 4.30361C29.2054 4.25764 28.2996 4.28063 27.3968
            4.28676C27.3999 5.10512 27.403 5.92349 27.3906 6.74185C27.0777 6.74645 26.7649 6.74952 26.4536
            6.75871C26.3929 4.63617 26.4489 2.51056 26.424 0.386487ZM27.3968 1.50829C27.3999 2.07686 27.3984
            2.64542 27.4046 3.21399C28.4163 3.23238 29.428 3.23085 30.4397 3.22318C30.7479 3.27069 30.9347
            3.00557 31.1292 2.82013C31.2117 2.51363 31.1728 2.1918 31.1868 1.87763C30.9954 1.7535 30.8631 1.47304
            30.6031 1.4991C29.5354 1.48837 28.4661 1.48377 27.3968 1.50829Z" fill="#D6DBE4" />
            <path d="M46.2456 0.421735C47.8146 0.348174 49.3881 0.384955 50.9586 0.397215C51.3602 0.608703 51.6388
            1.00563 51.9563 1.32439C52.0808 1.76269 51.9999 2.23777 52.0108 2.68987C52.0482 3.02549 51.4116
            3.28295 51.7602 3.60325C52.2147 4.05534 52.1089 4.7128 52.1026 5.28902C52.1026 5.73959 51.7073
            6.03843 51.4193 6.33574C51.1999 6.51504 50.9944 6.80162 50.6738 6.74798C49.2014 6.74032 47.729
            6.76484 46.2565 6.73266C46.2503 4.62851 46.2705 2.52435 46.2456 0.421735ZM47.4535 1.39795C47.1998
            1.8148 47.4021 2.41555 47.3414 2.90136C48.4013 2.90902 49.4629 2.89829 50.5228 2.90595C51.0567
            2.54275 51.024 1.82093 50.596 1.38876C49.5485 1.40255 48.4994 1.37343 47.4535 1.39795ZM47.3414
            3.96952C47.3398 4.53043 47.3383 5.0898 47.3414 5.65223C48.4076 5.65836 49.4753 5.64763 50.5415
            5.65683C50.996 5.24458 51.1796 4.2699 50.5166 3.98178C49.4597 3.94347 48.3998 3.97719 47.3414
            3.96952Z" fill="#D6DBE4" />
            <path d="M57.3744 0.397215C57.7402 0.384955 58.1075 0.38189 58.4748 0.380357C59.4367 2.25616 60.3519 4.15343
            61.32 6.02617C61.4445 6.24685 61.513 6.49052 61.5488 6.74185C61.2266 6.74645 60.906 6.74798 60.5869
            6.75258C60.2103 6.28516 60.0624 5.62771 59.6173 5.23539C58.5137 5.19707 57.4071 5.22159 56.3035
            5.22313C56.0981 5.18635 56.0234 5.4055 55.9424 5.54189C55.7541 5.90357 55.5891 6.2775 55.4054
            6.64224C55.0443 6.64071 54.6833 6.63918 54.3237 6.62845C55.2716 4.5197 56.3954 2.49217 57.3744
            0.397215ZM57.8942 1.71978C57.4787 2.5075 57.0615 3.29981 56.7534 4.1335C57.5518 4.15189 58.3503
            4.14576 59.1488 4.13963C58.7783 3.31207 58.411 2.47072 57.8942 1.71978Z" fill="#D6DBE4" />
            <path d="M64.0983 0.386487C65.7342 0.40028 67.3747 0.345109 69.009 0.41254C69.3888 0.683796 69.7047 1.04394
            70.002 1.40102C70.0814 2.04008 70.0238 2.68833 70.0254 3.33046C69.6518 3.60478 69.2798 3.88217
            68.9203 4.17335C69.2705 5.02543 69.7421 5.8392 69.9538 6.74185C69.5647 6.74798 69.1786 6.74798
            68.7911 6.74952C68.4284 5.93268 68.0876 5.10665 67.7483 4.27909C66.8595 4.28522 65.9708 4.26223
            65.0836 4.29748C65.0898 5.11278 65.0945 5.92809 65.0758 6.74339C64.7567 6.74645 64.4392 6.74952
            64.1232 6.75565C64.0703 4.6331 64.1186 2.50903 64.0983 0.386487ZM65.096 1.40408C65.0945 1.95732
            65.0649 2.51209 65.0991 3.0638C65.2283 3.31514 65.5381 3.20326 65.7653 3.23085C66.6681 3.19866
            67.5786 3.27836 68.4798 3.191C68.995 2.91821 68.9825 2.35578 68.9389 1.85464C68.7382 1.70446 68.5483
            1.54507 68.3382 1.41174C67.2595 1.36424 66.1762 1.39335 65.096 1.40408Z" fill="#D6DBE4" />
            <path d="M73.4776 0.404877C75.0512 0.371161 76.6263 0.371161 78.1984 0.398747C78.6264 0.556596 78.8957
            0.999496 79.2132 1.3152C79.277 2.02935 79.4202 2.85691 78.8692 3.42548C78.9968 3.58179 79.1385
            3.72892 79.2443 3.90362C79.2615 4.51357 79.2926 5.13271 79.221 5.74112C78.8786 6.10432 78.5408
            6.55642 78.0676 6.74032C76.6061 6.75565 75.1415 6.74798 73.68 6.74339C73.6317 6.68975 73.5336 6.58094
            73.4854 6.5273C73.4698 4.48751 73.4885 2.4462 73.4776 0.404877ZM74.564 1.38722C74.5485 1.89296
            74.5485 2.39869 74.55 2.90595C75.6458 2.90135 76.74 2.90749 77.8373 2.90289C78.0178 2.62703 78.3665
            2.36344 78.2482 1.99563C78.1034 1.73817 77.9369 1.35044 77.5789 1.39335C76.5734 1.37956 75.5679
            1.39948 74.564 1.38722ZM74.6527 5.64457C75.6925 5.67369 76.7337 5.63691 77.7735 5.65989C78.2606
            5.25684 78.4443 4.27296 77.7595 3.98025C76.6948 3.9404 75.6287 3.98638 74.5625 3.96033C74.6092
            4.50897 74.4099 5.16642 74.6527 5.64457Z" fill="#D6DBE4" />
            <path d="M84.6593 0.458515C85.0079 0.322121 85.4313 0.357369 85.7939 0.441657C86.5379 1.96192 87.2928 3.48065
            88.043 5.00091C88.3076 5.57254 88.7077 6.10126 88.7777 6.74339C88.4617 6.74645 88.1458 6.74798
            87.8314 6.75258C87.517 6.25911 87.2321 5.74725 86.966 5.22772C85.7908 5.20627 84.6157 5.22466 83.4406
            5.21699C83.1433 5.71506 83.0125 6.32807 82.5954 6.74492C82.2857 6.75871 81.9759 6.74645 81.6693
            6.74032C81.7565 6.38784 81.9106 6.05988 82.0771 5.73805C82.9394 3.98025 83.7954 2.21632 84.6593
            0.458515ZM85.0904 1.85004C84.7698 2.62397 84.3464 3.35192 84.0507 4.13503C84.8523 4.14423 85.6539
            4.16262 86.4554 4.12124C86.1161 3.43161 85.7908 2.73278 85.4126 2.0646C85.3317 2.01096 85.1698
            1.90368 85.0904 1.85004Z" fill="#D6DBE4" />
            <path d="M91.377 0.404877C93.0082 0.371161 94.6409 0.371161 96.2705 0.398747C96.7063 0.556596 97.0099
            0.991833 97.2962 1.34431C97.3336 2.02475 97.3071 2.70672 97.3025 3.38716C96.9725 3.64922 96.5133
            3.83313 96.3281 4.21779C96.4884 5.09439 97.164 5.84533 97.2589 6.71427C96.876 6.7771 96.4853 6.74339
            96.1009 6.73879C95.774 5.93268 95.3942 5.1465 95.1359 4.31587C94.2425 4.24078 93.3428 4.29595 92.4479
            4.27756C92.4479 5.09899 92.4541 5.91889 92.4416 6.73879C92.135 6.74645 91.8299 6.75105 91.5264
            6.76484C91.4175 6.54416 91.3537 6.30509 91.3755 6.05835C91.3817 4.17335 91.3801 2.28835 91.377
            0.404877ZM92.4634 1.38722C92.4432 2.00176 92.4385 2.61937 92.4681 3.23391C93.5265 3.20479 94.5864
            3.25383 95.6433 3.21399C96.4822 2.97798 96.4324 1.60331 95.5997 1.40255C94.5553 1.3673 93.5078
            1.40561 92.4634 1.38722Z" fill="#D6DBE4" />
            <path d="M102.697 0.398746C103.066 0.407942 103.466 0.30986 103.816 0.447787C104.749 2.28681 105.64 4.14729
            106.595 5.97713C106.728 6.2162 106.809 6.47673 106.864 6.74492C106.525 6.74645 106.185 6.76178
            105.849 6.73266C105.476 6.27137 105.365 5.63231 104.92 5.22772C103.745 5.21086 102.568 5.2078 101.394
            5.23539C101.181 5.712 101.03 6.25298 100.668 6.63917C100.327 6.6545 99.9858 6.63611 99.6481
            6.62385C100.64 4.53809 101.698 2.48144 102.697 0.398746ZM102.103 4.1381C102.878 4.14423 103.653
            4.15802 104.428 4.12737C104.149 3.27222 103.684 2.4937 103.262 1.70292C102.808 2.47991 102.37 3.27682
            102.103 4.1381Z" fill="#D6DBE4" />
            <path d="M36.0694 5.40703C36.6547 5.14037 37.3286 5.69208 37.1387 6.30049C37.0547 6.91503 36.1146 7.0974
            35.7784 6.59013C35.4904 6.22233 35.6103 5.58173 36.0694 5.40703Z" fill="#D6DBE4" />
            <path d="M26.2077 13.5401C31.825 13.5309 37.4438 13.5233 43.0611 13.5432C43.0782 14.5409 43.0627 15.5401
            43.072 16.5393C40.7435 16.6098 38.4135 16.5515 36.0835 16.5684C36.0601 21.6809 36.0679 26.7934
            36.0803 31.9059C35.05 31.9978 34.0133 31.9472 32.9814 31.9365C32.9954 26.8164 32.9939 21.6947 32.9814
            16.5745C30.7199 16.5531 28.4568 16.596 26.1937 16.5515C26.203 15.5477 26.1812 14.5439 26.2077
            13.5401Z" fill="#D6DBE4" />
            <path d="M51.8474 13.5325C52.8622 13.5386 53.8786 13.5233 54.8934 13.5417C54.9276 18.2005 54.8731 22.8609
            54.9198 27.5183C55.1642 28.0822 55.7074 28.4929 56.0701 28.9971C58.7768 28.9558 61.4928 29.0508
            64.1948 28.9496C64.612 28.5221 65.0073 28.0715 65.3591 27.5903C65.4338 27.3711 65.4011 27.1321 65.412
            26.9052C65.4042 22.7092 65.4135 18.5132 65.4073 14.3186C65.3933 14.0459 65.4774 13.7869 65.5474
            13.5279C66.5171 13.5401 67.4868 13.5279 68.4565 13.5355C68.5047 18.5545 68.4596 23.5735 68.4798
            28.5926C68.4658 28.778 68.5203 29.0063 68.3475 29.1412C67.3856 30.0837 66.3521 30.9542 65.3855
            31.8936C65.1645 31.9794 64.9186 31.9426 64.6882 31.9564C61.471 31.935 58.2507 31.984 55.0335
            31.9334C54.1198 31.3419 53.4427 30.4331 52.5711 29.7711C52.2692 29.4722 51.7384 29.2377 51.8209
            28.7397C51.838 23.6701 51.7851 18.6005 51.8474 13.5325Z" fill="#D6DBE4" />
            <path d="M3.13146 13.7915C3.29333 13.5677 3.57349 13.6336 3.81008 13.6244C8.31761 13.6305 12.8251 13.6244
            17.3327 13.6275C17.3358 14.6098 17.3467 15.5922 17.3249 16.5745C13.2874 16.5607 9.24838 16.5776
            5.2109 16.5669C4.98054 16.5791 4.70971 16.5163 4.53539 16.7094C4.13538 17.0603 3.77583 17.4526
            3.39917 17.8251C3.41318 18.5453 3.39294 19.2656 3.41785 19.9844C3.86767 20.3047 4.24744 20.7246
            4.74551 20.9744C8.07169 20.9882 11.3994 20.979 14.7271 20.9774C14.917 21.0004 15.1739 20.9238 15.3077
            21.1046C16.2011 22.0901 17.1646 23.008 18.0487 23.9996C18.1296 25.69 18.0471 27.3895 18.0876
            29.083C17.1879 30.0055 16.2307 30.8729 15.3622 31.8246C15.2112 32.0116 14.9342 31.9304 14.7256
            31.9564C9.94879 31.9488 5.17199 31.9549 0.395184 31.9534C0.407636 30.9634 0.365611 29.9718 0.426313
            28.9818C4.72372 29.0048 9.02113 28.9803 13.3185 28.9941C13.5707 28.9879 13.8306 29.0109 14.0797
            28.9527C14.433 28.6416 14.7738 28.3121 15.0805 27.9535C15.1754 27.247 15.096 26.5267 15.124
            25.8156C15.2346 25.0739 14.4127 24.7122 14.0376 24.1789C10.7317 24.1728 7.42731 24.1758 4.12137
            24.1774C3.74159 24.1559 3.2871 24.159 3.03184 23.8341C2.14933 22.9176 1.24969 22.0012 0.416975
            21.0495C0.360942 19.5246 0.415419 17.9967 0.392072 16.4703C1.31973 15.5906 2.21003 14.6757 3.13146
            13.7915Z" fill="#D6DBE4" />
            <path d="M79.2023 31.9503C79.2241 25.8386 79.1789 19.7269 79.2256 13.6152C83.769 13.6428 88.3154 13.6167
            92.8588 13.629C93.7957 14.5945 94.7654 15.5293 95.732 16.4642C95.7351 18.3722 95.7242 20.2817 95.7382
            22.1897C94.6969 22.9912 93.6136 23.736 92.5848 24.5513C93.6525 27.0095 94.7016 29.4753 95.7725
            31.9319C94.5973 31.9702 93.4191 31.958 92.2439 31.9396C91.3038 29.5611 90.2719 27.2179 89.2913
            24.8547C86.9302 24.8455 84.569 24.8517 82.2094 24.8517C82.2047 27.2179 82.2032 29.5826 82.2094
            31.9488C81.207 31.9564 80.2047 31.9549 79.2023 31.9503ZM82.211 16.573C82.2001 18.3461 82.2063 20.1208
            82.2078 21.8954C85.2336 21.897 88.2609 21.9016 91.2867 21.8924C91.7365 21.4081 92.3389 21.0663
            92.7124 20.5162C92.7856 19.9369 92.7234 19.3484 92.7451 18.7645C92.7234 18.4442 92.8307 18.0641
            92.563 17.8159C92.1583 17.3852 91.749 16.9515 91.2774 16.5914C88.2578 16.5423 85.2336 16.5806 82.211
            16.573Z" fill="#D6DBE4" />
            <path d="M106.302 13.6321C107.317 13.6505 108.338 13.5738 109.35 13.6673C110.883 16.5117 112.414 19.3591
            113.954 22.2004C114.329 22.9406 114.782 23.6456 115.105 24.4088C117.062 20.815 118.956 17.186 120.959
            13.6183C121.913 13.6382 122.867 13.6198 123.823 13.629C123.823 19.7376 123.823 25.8447 123.823
            31.9534C122.86 31.9503 121.898 31.961 120.934 31.9442C120.939 27.5581 120.927 23.1736 120.941
            18.7875C120.372 19.6334 119.944 20.556 119.456 21.4464C118.175 23.8969 116.858 26.3275 115.588
            28.7826C115.446 29.0278 115.334 29.3006 115.118 29.4921C114.805 29.1734 114.66 28.7335 114.441
            28.3535C112.785 25.2348 111.147 22.1069 109.477 18.9959C109.325 19.2043 109.258 19.4357 109.276
            19.6886C109.287 23.7728 109.267 27.8554 109.286 31.938C108.291 31.9656 107.295 31.9518 106.3
            31.9472C106.3 25.8417 106.297 19.7376 106.302 13.6321Z" fill="#D6DBE4" />
          </svg>