<svg xmlns="http://www.w3.org/2000/svg" viewBox="0 0 133 16">
            <path fill="#D6DBE4" d="M0.8125 15.5H16.3324V13.1755H3.29138V8.82726H16.2943V6.50328H0.8125V15.5Z" />
            <path d="M0.8125 2.8103V0.5H16.3324V2.8103H0.8125Z" fill="#D6DBE4" />
            <path d="M37.1147 0.5L30.6616 9.60665L24.1006 0.5H20.5979V15.5H23.0767V3.12534L29.1123
            11.4799H32.2243L38.2868 2.8382V15.5H40.7657V0.5H37.1147Z" fill="#D6DBE4" />
            <path fill-rule="evenodd" clip-rule="evenodd" d="M45.284 0.5H55.4286C60.0226 0.513674 61.8952 2.0041 61.8952 5.68232C61.8952 9.40155 60.0091 10.8783
            55.3881 10.8783H47.7629V15.5H45.284V0.5ZM47.7629 8.55378H55.954C58.5002 8.55378 59.4163 7.73336
            59.4163 5.68232C59.4163 3.64494 58.5002 2.82452 55.954 2.82452H47.7629V8.55378Z" fill="#D6DBE4" />
            <path d="M66.1233
            15.5H81.6432V13.1755H68.6022V8.82726H80.8214V6.50273H68.6022V2.82452H81.4681V0.5H66.1233V15.5Z" fill="#D6DBE4" />
            <path fill-rule="evenodd" clip-rule="evenodd" d="M100.539 8.69052C102.17 9.14175 102.789 10.2083 102.789 12.4234C102.789 13.6677 102.911 14.7343
            103.193 15.5H100.593C100.378 14.7069 100.324 13.6951 100.324 12.4234C100.324 10.6048 99.5425 10.0442
            97.2253 10.0442H88.3875V15.5H85.9086V0.5H96.7672C101.024 0.513674 102.708 1.71696 102.708
            5.20374C102.708 7.10438 102.062 8.15725 100.539 8.69052ZM88.3875 2.82452V7.70602H97.2253C99.4751
            7.70602 100.243 7.06335 100.243 5.20374C100.243 3.42616 99.4751 2.82452 97.2253 2.82452H88.3875Z" fill="#D6DBE4" />
            <path d="M107.203 15.5H109.682V0.5H107.203V15.5Z" fill="#D6DBE4" />
            <path fill-rule="evenodd" clip-rule="evenodd" d="M132.812 15.5H130.037L128.111 12.0953H116.956L115.029 15.5H112.254L120.984 0.5H124.096L132.812
            15.5ZM122.533 2.20921L118.263 9.77074H126.804L122.533 2.20921Z" fill="#D6DBE4" />
          </svg>