<svg viewBox="0 0 119 58" xmlns="http://www.w3.org/2000/svg">
            <path fill="#D6DBE4" d="M89.9195 25.4667C89.6839 25.1593 89.3042 25.0362 89.0415 24.9183C88.7848 24.7969 88.8217 24.5461
            88.6069 24.4734C88.387 24.4026 88.0026 24.8511 87.7038 24.758C87.4054 24.6601 87.4274 24.1019 87.1781
            24.0194C86.9229 23.9388 86.4792 24.3574 86.2471 24.2831C86.0135 24.2151 85.968 23.6287 85.7426
            23.554C85.5196 23.486 85.0461 23.903 84.8152 23.8315C84.5831 23.7533 84.5682 23.1822 84.3107
            23.0972C84.0543 23.0186 83.6035 23.4455 83.3797 23.3685C83.1484 23.2969 83.1261 22.727 82.8803
            22.644C82.6317 22.565 82.1759 22.9837 81.9466 22.9082C81.7102 22.8319 81.6458 22.2463 81.4307
            22.1755C81.2108 22.1083 80.7816 22.4538 80.4326 22.4338C78.0104 22.2077 77.0838 20.6822 76.9189
            21.1335C76.7571 21.5757 77.4238 22.6515 78.2617 23.0147C78.93 23.3056 86.1451 25.3051 86.3343
            25.3943C86.5184 25.4855 86.9743 25.6887 86.8121 25.9521C86.5609 26.289 85.8565 25.9556 85.677
            25.8071C85.4956 25.6561 85.5369 25.6011 85.3669 25.5555C84.9797 25.4635 84.7653 26.1691 84.3566
            26.0747C83.9844 25.991 84.0103 25.2422 83.6322 25.155C83.2152 25.0535 83.0263 25.7634 82.6294
            25.6707C82.3 25.5964 82.2548 24.8338 81.9014 24.7485C81.4954 24.6503 81.3113 25.3617 80.8884
            25.263C80.5248 25.1778 80.5453 24.4341 80.1648 24.3425C79.7847 24.2525 79.5197 24.9419 79.1608
            24.8605C78.8008 24.7768 78.7482 24.017 78.4286 23.9412C78.1015 23.8684 77.8439 24.2548 77.4046
            24.3122C77.4046 24.3122 76.1422 24.6538 74.1469 22.567C72.1472 20.4845 71.3273 20.0797 70.1895
            20.9283C68.3315 22.3135 67.1775 21.3976 66.8414 20.9857C66.4374 20.5136 66.8603 20.0797 66.8603
            20.0797C66.8603 20.0797 67.4504 20.9916 68.1933 21.0081C69.3901 21.0439 70.2927 19.4087 72.3439
            19.3796C74.9423 19.2861 75.6196 20.2102 76.3299 20.2837C76.988 20.3481 77.2075 20.242 77.6629
            19.9775H77.6602C78.0285 19.8462 78.3489 20.5588 78.7348 20.415C79.1428 20.2609 78.8444 19.5427
            79.2837 19.3773C79.6944 19.2303 79.9626 19.9519 80.3556 19.8053C80.7691 19.6544 80.5056 18.9162
            80.9026 18.7723C81.3113 18.6245 81.55 19.3537 81.9741 19.198C82.4001 19.0463 82.1248 18.3156 82.5128
            18.1686C82.9129 18.0224 83.2022 18.7401 83.5953 18.6002C83.9675 18.4669 83.7547 17.7028 84.1422
            17.5637C84.5447 17.419 84.8046 18.1391 85.2334 17.9815C85.5859 17.8585 85.3908 17.0935 85.7563
            16.9548C86.1215 16.8184 86.4607 17.5275 86.8408 17.3852C87.1973 17.2535 86.9888 16.4933 87.3681
            16.351C87.7698 16.206 88.0796 16.9151 88.4593 16.7815C88.835 16.6462 88.55 16.0331 89.04
            15.7894C89.04 15.7894 89.7185 15.5661 89.6757 15.0677C89.6702 14.984 89.53 13.9184 88.4125
            13.6923C87.3379 13.4762 78.8518 15.8259 78.7419 15.6903C77.9609 14.1455 76.9601 14.5748 76.8078
            14.6094C76.6523 14.6487 75.7048 15.0524 74.6557 14.6487C72.5947 13.7151 70.9496 16.0897 69.8208
            15.7772C68.7815 15.4847 67.9868 15.6534 67.5509 15.8019C67.152 15.9403 66.5053 16.4603 65.1343
            15.9882C54.5386 12.3665 46.2574 15.5327 46.2574 15.5327C41.5882 17.0943 40.991 15.5327 40.991
            15.5327C40.991 15.5327 39.4542 13.4431 50.2733 10.9507C65.8241 7.37458 66.2929 1.45657 66.1088
            1.08237C65.8536 0.539544 65.7562 1.17906 65.2442 1.76748C64.8143 2.25646 64.3148 2.01472 64.3148
            2.01472C63.8256 1.77967 63.5127 2.339 63.5127 2.339C63.5127 2.339 62.8833 3.31695 62.3265
            2.76076C61.7917 2.22541 61.0815 3.43369 60.816 3.48165C60.4984 3.53786 60.3433 3.3826 59.9169
            3.18646C59.2781 2.90384 58.5925 4.06889 58.2415 4.15143C57.704 4.27446 57.3267 3.51742 56.8645
            3.83698C55.4828 4.79213 55.2653 4.92499 54.8931 4.55315C54.6183 4.27211 54.5778 3.96709 53.6547
            4.85188C52.8691 5.60617 52.4929 5.74729 52.1776 5.26774C51.8529 4.78506 51.9365 4.12628 50.5867
            5.42301C49.9423 6.04248 49.6125 6.05427 49.2434 5.77598C48.9655 5.56687 48.9674 4.56966 47.9992
            5.47253C47.1216 6.28539 46.4844 6.64151 46.2358 5.91984C45.9614 5.10895 44.9272 6.06921 44.6881
            6.29522C44.4399 6.52123 43.9083 7.11909 43.5357 6.50197C43.1635 5.88132 42.2714 6.80778 41.7409
            7.39581C41.3318 7.85255 41.0008 7.49997 40.5693 7.21028C40.0785 6.87342 38.6097 8.92602 38.4766
            9.04905C38.3423 9.16579 38.2398 9.04905 37.9033 8.76329C37.3862 8.32462 35.9912 10.7632 35.7654
            10.9224C35.7654 10.9224 35.67 11.1327 35.2895 10.7691C34.7481 10.2538 31.8751 14.0402 30.7907
            18.3242C29.4035 23.8162 31.6136 28.0275 31.6136 28.0275C31.6136 28.0275 32.2776 28.0479 32.5603
            27.5986L32.9906 26.6278C33.3393 25.8184 33.911 26.0732 33.911 26.0732L32.5564 30.1107C32.3424 30.6426
            32.4716 31.3949 32.9451 32.1059C33.3911 32.8205 33.6986 33.3036 34.0562 33.6358C35.156 34.6727
            35.0437 33.4463 35.0724 33.293C35.2012 32.6366 35.9272 33.1409 36.4977 33.4553C37.5323 34.0367
            37.4172 32.7529 37.6442 32.3343C37.8016 32.0344 38.3105 32.021 38.8625 32.4841C39.2924 32.8437
            39.7196 31.6252 39.7196 31.6252C40.256 29.029 38.996 28.7287 38.3144 28.6906L36.9347 28.6273C36.9347
            28.6273 37.0254 28.2323 37.1691 27.8624L37.2307 27.6002C38.7353 23.8468 36.2209 23.1224 35.4686
            23.1822C34.6385 23.2564 34.6966 22.727 34.6966 22.727C34.6966 22.727 39.2414 21.8312 38.3941
            26.6561C38.3941 26.6561 38.2268 27.4965 38.1263 27.9347L39.3753 28.0805C40.4499 28.215 40.6408
            29.4877 40.6408 29.4877C40.6408 29.4877 44.5938 30.5337 46.8358 30.1155C46.8358 30.1155 47.8378
            29.8765 48.1162 29.2523C48.1162 29.2523 49.5682 25.8275 53.8071 25.6828C53.8071 25.6828 53.9563
            26.1262 53.279 26.357C52.467 26.6309 49.7613 26.8459 49.1991 29.9574V29.9696C49.1378 30.4802 49.2745
            31.5674 50.3809 32.071C51.3232 32.4967 51.6554 34.2148 51.8509 34.6786C52.3999 35.9957 53.2216
            34.7367 53.2216 34.7367C53.2216 34.7367 53.7423 33.6739 54.1891 34.2635C54.9441 35.2579 55.2948
            34.7568 55.4664 34.1236C55.654 33.44 55.9273 33.1421 56.7177 33.973C57.0554 34.3338 57.7181 34.0552
            57.7841 33.4377C57.9239 32.0784 58.8411 33.1594 58.9722 33.2116C59.1293 33.2714 60.0897 33.0552
            59.5521 31.5222C59.5521 31.5222 58.8261 30.0616 55.5531 29.4315C54.7851 29.2857 54.9072 28.7291
            54.9072 28.7291L55.6281 28.8305C55.8433 28.8655 57.7468 29.077 57.9494 29.1092C65.9337 29.8981
            71.9917 27.1867 72.1738 26.9933C78.3759 28.1831 86.8094 27.7775 88.3925 27.2064C89.9839 26.6451
            90.1024 25.7147 89.9195 25.4667ZM77.1136 15.5586C77.2432 15.3495 77.3657 15.2312 77.4784
            15.1742C77.9598 14.9002 78.2668 15.7579 78.2083 15.7894C78.2055 15.7909 78.1945 15.7945 78.1898
            15.7964C78.189 15.7976 78.1891 15.8008 78.1883 15.8019C78.1125 15.8385 77.1839 16.1022 77.0924
            16.0417C76.9087 15.914 77.1136 15.5586 77.1136 15.5586ZM73.5873 15.8298C73.5873 15.8298 73.7071
            15.6785 73.9391 15.6015C74.1681 15.5181 74.514 15.504 74.9722 15.7996C75.4991 16.1349 75.4857 16.3966
            75.4857 16.3966C75.4685 16.4053 75.4449 16.4139 75.4186 16.4234C75.0366 16.5712 73.4696 16.7638
            73.4696 16.7638C73.1649 16.2017 73.5873 15.8298 73.5873 15.8298ZM44.3563 8.23776C44.6198 8.44097
            44.3673 9.61113 44.1796 9.43857L42.8262 8.72201C42.8262 8.72201 44.0866 8.04044 44.3563
            8.23776ZM42.1552 8.98498C42.4214 9.18347 42.1721 10.3564 41.9832 10.1819L40.6337 9.46373C40.6337
            9.46373 41.8878 8.78176 42.1552 8.98498ZM41.3938 11.273C41.6612 11.4731 41.4103 12.648 41.2195
            12.4782L39.8677 11.7514C39.8677 11.7514 41.1249 11.0745 41.3938 11.273ZM40.1056 14.3452L38.7522
            13.6255C38.7522 13.6255 40.011 12.9428 40.278 13.1436C40.5485 13.3437 40.2901 14.5178 40.1056
            14.3452ZM39.8508 16.6624L38.5013 15.9426C38.5013 15.9426 39.7573 15.263 40.0251 15.4596C40.2925
            15.6577 40.0432 16.8271 39.8508 16.6624ZM39.826 9.80059C40.0946 10.0003 39.8414 11.1681 39.6525
            11.0018L38.2983 10.2797C38.2983 10.2797 39.5594 9.59816 39.826 9.80059ZM38.6521 11.5843C38.9171
            11.7836 38.6662 12.9518 38.4793 12.7855L37.1278 12.0658C37.1278 12.0658 38.3847 11.3819 38.6521
            11.5843ZM36.2397 14.383C36.2397 14.383 37.5008 13.6978 37.7647 13.9007C38.0337 14.0992 37.7804
            15.2693 37.5915 15.0999L36.2397 14.383ZM37.2759 17.3141L35.9268 16.5916C35.9268 16.5916 37.1852
            15.914 37.4506 16.114C37.7192 16.3129 37.4675 17.4823 37.2759 17.3141ZM36.3139 12.3968C36.5801
            12.5918 36.3284 13.7643 36.1396 13.5949L34.7924 12.8728C34.7924 12.8728 36.0438 12.1952 36.3139
            12.3968ZM35.0979 14.7568C35.3657 14.9553 35.1148 16.1325 34.9216 15.9592L33.5729 15.2406C33.5729
            15.2406 34.8309 14.5642 35.0979 14.7568ZM33.3212 17.5527C33.3212 17.5527 34.5788 16.8758 34.8454
            17.0751C35.1152 17.2724 34.8584 18.4461 34.6731 18.2759L33.3212 17.5527ZM35.7324 20.1972L34.3821
            19.4767C34.3821 19.4767 35.6405 18.7943 35.9079 18.9944C36.1753 19.1953 35.9201 20.3647 35.7324
            20.1972ZM37.6693 21.7679L36.3186 21.0506C36.3186 21.0506 37.5778 20.3682 37.8448 20.5663C38.1098
            20.7628 37.8542 21.9412 37.6693 21.7679ZM38.2747 19.3159L36.9233 18.5931C36.9233 18.5931 38.1821
            17.9162 38.4491 18.11C38.7165 18.3105 38.4632 19.4806 38.2747 19.3159ZM40.0714 22.826L38.7231
            22.1067C38.7231 22.1067 39.9745 21.4259 40.2446 21.6256C40.5112 21.8265 40.2631 22.9911 40.0714
            22.826ZM40.7201 20.5675L39.3706 19.8482C39.3706 19.8482 40.6266 19.1713 40.8928 19.371C41.1598
            19.5679 40.9113 20.74 40.7201 20.5675ZM41.1669 18.4327L39.8174 17.7118C39.8174 17.7118 41.0735 17.035
            41.3432 17.2339C41.611 17.4351 41.3554 18.601 41.1669 18.4327ZM43.0657 22.5532L41.7158
            21.8292C41.7158 21.8292 42.9722 21.1535 43.2416 21.3497C43.5121 21.549 43.2561 22.7242 43.0657
            22.5532ZM43.6503 20.3045L42.3012 19.5864C42.3012 19.5864 43.5596 18.9021 43.827 19.1045C44.0901
            19.2979 43.8368 20.4724 43.6503 20.3045ZM44.1399 17.9221L42.7901 17.202C42.7901 17.202 44.0469
            16.5271 44.3166 16.7229C44.5821 16.923 44.3288 18.0919 44.1399 17.9221ZM46.0364 22.1315L44.6822
            21.4118C44.6822 21.4118 45.941 20.7302 46.2107 20.9287C46.4757 21.1335 46.2201 22.3048 46.0364
            22.1315ZM46.4899 19.7259L45.1404 19.0027C45.1404 19.0027 46.3992 18.3238 46.6654 18.5212C46.9332
            18.7232 46.6795 19.8886 46.4899 19.7259ZM46.9607 17.2563L45.6108 16.5354C45.6108 16.5354 46.8672
            15.8574 47.1358 16.0547C47.4024 16.2591 47.1503 17.4261 46.9607 17.2563ZM48.9929 21.1807L47.6415
            20.4672C47.6415 20.4672 48.8999 19.7861 49.1637 19.9842C49.4351 20.1827 49.1818 21.3516 48.9929
            21.1807ZM49.3624 18.8113L48.009 18.0951C48.009 18.0951 49.2666 17.4151 49.532 17.6112C49.8065 17.8121
            49.5493 18.9873 49.3624 18.8113ZM49.8312 16.489L48.477 15.7732C48.477 15.7732 49.7378 15.0889 50.0028
            15.2862C50.2698 15.4883 50.0173 16.6624 49.8312 16.489ZM51.8996 20.6799L50.549 19.959C50.549 19.959
            51.8038 19.2778 52.074 19.4771C52.3441 19.6784 52.0893 20.8462 51.8996 20.6799ZM52.2683
            18.4677L50.9165 17.75C50.9165 17.75 52.1764 17.0641 52.4415 17.2685C52.7085 17.4619 52.456 18.6387
            52.2683 18.4677ZM52.7132 16.1077L51.3598 15.3892C51.3598 15.3892 52.6186 14.7017 52.8883
            14.9065C53.1553 15.107 52.9052 16.2748 52.7132 16.1077ZM54.5849 20.7216L53.237 20.0019C53.237 20.0019
            54.4934 19.3183 54.7604 19.5223C55.0282 19.7192 54.7745 20.8894 54.5849 20.7216ZM55.0309
            18.3463L53.6767 17.6281C53.6767 17.6281 54.9375 16.943 55.2052 17.1462C55.4703 17.3471 55.217 18.5153
            55.0309 18.3463ZM55.5366 15.982L54.1848 15.2634C54.1848 15.2634 55.4436 14.5783 55.7114
            14.7823C55.9811 14.9804 55.7255 16.1529 55.5366 15.982ZM57.3997 20.7216L56.0478 19.9983C56.0478
            19.9983 57.3047 19.3187 57.5721 19.5227C57.8391 19.7192 57.5905 20.8894 57.3997 20.7216ZM57.832
            18.4779L56.4837 17.7559C56.4837 17.7559 57.7389 17.0818 58.0059 17.274C58.2741 17.4756 58.022 18.6489
            57.832 18.4779ZM58.3432 16.182L56.9961 15.4631C56.9961 15.4631 58.2525 14.7843 58.5211
            14.9804C58.7845 15.1797 58.5321 16.3514 58.3432 16.182ZM60.0457 21.0604L58.6942 20.3332C58.6942
            20.3332 59.953 19.6591 60.22 19.86C60.4901 20.0549 60.2377 21.2278 60.0457 21.0604ZM60.5235
            18.8848L59.1728 18.1674C59.1728 18.1674 60.4328 17.4874 60.6978 17.6863C60.968 17.8891 60.7073
            19.0573 60.5235 18.8848ZM61.0395 16.6624L59.6852 15.9462C59.6852 15.9462 60.9448 15.265 61.2138
            15.4596C61.48 15.6577 61.2232 16.8271 61.0395 16.6624ZM63.1452 19.3541L61.7961 18.6418C61.7961
            18.6418 63.0521 17.9591 63.3218 18.1548C63.5873 18.3561 63.3344 19.5262 63.1452 19.3541Z" />
            <path d="M27.6468 39.8478C27.3649 39.0982 26.829 38.7751 25.8474 38.7602C25.7579 38.7574 21.2166 38.7645
            21.2166 38.7645L14.4951 57.0865C14.4951 57.0865 17.7645 57.0865 17.7669 57.0865C18.0488 57.107
            18.3111 57.0625 18.5467 56.9564C19.1835 56.6659 19.4957 55.927 19.5864 55.675C19.5864 55.6813 20.5008
            53.1224 20.5637 52.955C21.0317 52.955 26.966 52.9526 27.326 52.9526C27.4674 53.3842 28.6999 57.0783
            28.6999 57.0783H33.1281L30.3191 48.1615L27.6468 39.8478ZM26.2832 49.1922C25.6118 49.1922 21.9913
            49.193 21.7267 49.193C22.2182 47.8459 23.4417 44.438 23.9643 43.0584C24.4158 44.4498 26.2714 49.147
            26.2832 49.1922Z" fill="#D6DBE4" />
            <path d="M59.5109 38.6179H59.5086C54.2704 38.625 50.4712 42.5611 50.4712 47.9729C50.4712 53.2753 54.3544
            57.2756 59.5109 57.2756C64.6647 57.2756 68.7057 53.192 68.7057 47.9729C68.7057 42.7262 64.6647
            38.6179 59.5109 38.6179ZM59.6421 53.1881C56.9721 53.1881 54.8798 50.8765 54.8798 47.9233C54.8798
            44.9974 56.927 42.793 59.6389 42.793C62.3312 42.793 64.2838 44.949 64.2838 47.9233C64.2834 50.9268
            62.2869 53.1881 59.6421 53.1881Z" fill="#D6DBE4" />
            <path d="M80.5555 46.3291L80.3835 46.2788C80.3882 46.2811 78.6802 45.7611 78.6759 45.7564L78.4207
            45.6656C77.0257 45.1609 76.035 44.7379 76.035 43.9247C76.035 43.9046 76.035 43.8838 76.035
            43.8649C76.1736 42.5155 78.6763 42.501 78.7007 42.501C80.0804 42.501 81.1413 42.7125 82.4853
            43.2529L82.5139 43.2635L82.5717 43.2804C82.8819 43.3433 83.1535 43.352 83.3734 43.3032L83.7457
            43.1621C84.2796 42.8681 84.8109 41.3104 85.0147 40.6544L85.0806 40.4441L84.9161 40.2931C84.8517
            40.231 84.4603 39.9083 83.0365 39.3765C81.5885 38.8337 79.5378 38.7488 79.5378 38.7488L78.5259
            38.7444C73.2418 38.7444 71.2244 42.0089 71.1604 44.2014C71.1169 46.3857 72.3588 47.5098 74.2364
            48.531C75.0216 48.9665 76.4563 49.3671 77.4964 49.6583C77.4909 49.6536 78.573 49.9744 78.573
            49.9744C80.5413 50.5934 81.2936 51.2809 81.1539 52.3473C81.091 52.6999 80.4259 53.2832 78.9146
            53.2832C77.7646 53.2832 76.7257 53.1063 75.644 52.7286C75.1245 52.5218 74.587 52.2549 74.0192
            51.9177L73.9921 51.9004L73.934 51.8752C73.6199 51.7581 73.3384 51.709 73.0969 51.7294L72.6811
            51.819C72.0745 52.0462 71.2307 53.5882 70.8935 54.2403L70.7607 54.4978L70.99 54.6798C71.0309 54.7073
            71.9697 55.4545 72.7671 55.9219C73.7063 56.4427 74.7605 56.82 76.0056 57.072C76.5074 57.1636 77.3044
            57.2795 78.5534 57.2795C82.6478 57.2795 85.6225 55.2029 85.9644 52.1111C86.1133 49.3058 84.3939
            47.4753 80.5555 46.3291Z" fill="#D6DBE4" />
            <path d="M89.3089 38.7869C89.1389 38.7841 88.2457 38.8018 87.7321 39.2775C87.4957 39.4948 87.372 39.7853
            87.372 40.1127L87.3693 43.0116C87.3693 43.0116 92.3091 43.0077 92.9561 43.0077C92.9561 43.6892
            92.9561 57.0936 92.9561 57.0936L97.5323 57.0897C97.5323 57.0897 97.5323 43.6881 97.5323
            43.0077C98.1425 43.0069 101.128 43.0069 101.128 43.0069C101.297 43.0069 102.189 42.9876 102.704
            42.5144C102.938 42.2923 103.065 42.0085 103.065 41.6763V38.7869H89.3089Z" fill="#D6DBE4" />
            <path d="M10.8098 52.9471C10.8098 52.9471 6.96703 52.9471 5.6725 52.9471C5.6725 52.2714 5.65798 40.4582
            5.65798 40.4582C5.65798 39.9398 5.50328 39.5282 5.19152 39.2405C4.69366 38.7728 3.95275 38.7751
            3.67634 38.781L0.976563 38.7751L0.98363 57.0865H12.4361L12.4447 54.1766C12.4447 53.804 12.2857
            52.9471 10.8098 52.9471Z" fill="#D6DBE4" />
            <path d="M43.5553 42.6794C44.6653 42.6055 45.5994 42.6794 46.4805 42.9208C46.9536 43.0788 47.3808 43.1102
            47.7428 43.008C47.744 43.0073 48.1079 42.8457 48.1079 42.8457C48.6203 42.5297 48.9871 40.9201 49.1602
            39.9924L49.1999 39.7751L49.0134 39.6406C48.9666 39.6064 48.821 39.5046 47.1625 39.0565C45.652 38.6489
            44.3076 38.599 43.6448 38.6037L43.5718 38.6045C39.7817 38.6045 34.0739 41.1091 33.9102
            48.0055V48.0448C34.0739 54.9435 39.7821 57.4474 43.5746 57.4474L43.6448 57.4501C44.3076 57.4529
            45.6496 57.3986 47.1625 56.9918C48.8214 56.5476 48.9666 56.4446 49.0149 56.4097L49.2003
            56.2784L49.1606 56.0598C48.9874 55.1271 48.6207 53.521 48.1083 53.2026V53.2003L47.7444
            53.0399C47.3812 52.9408 46.9536 52.9731 46.4738 53.1342C45.5974 53.3701 44.6637 53.4463 43.542
            53.3724C40.6714 53.0914 38.9473 51.1355 38.8174 48.0094C38.9469 44.9136 40.6714 42.9581 43.5553
            42.6794Z" fill="#D6DBE4" />
            <path d="M116.624 57.0783C117.33 57.0625 118.531 56.6455 118.531 55.2387L118.518 52.9408L110.453
            52.9444C110.453 52.9444 110.467 50.3108 110.467 49.8745C111.128 49.8745 117.124 49.8745 117.124
            49.8745L117.112 45.6381C117.112 45.6381 111.137 45.6451 110.478 45.6451C110.476 45.1444 110.478
            43.5159 110.478 43.012C111.137 43.012 116.589 43.0045 116.589 43.0045C116.757 43.0073 117.669 43.008
            118.164 42.5144C118.509 42.1681 118.525 41.5376 118.525 41.2094V38.7904H105.838L105.841
            57.0928L116.624 57.0783Z" fill="#D6DBE4" />
          </svg>