<svg xmlns="http://www.w3.org/2000/svg" width="200px" viewBox="0 0 130 49" >
            <path fill="#D6DBE4" d="M1.85502 40.8763H2.88023V43.9702H6.81039V40.8763H7.80153V48.0954H6.81039V44.7953H2.88023V48.0954H1.85502V40.8763Z" fill="#D6DBE4"></path> <path d="M23.693 45.4828C23.693 47.3047 22.5993 48.2673 20.7197 48.2673C18.8058 48.2673 17.6439 47.4079 17.6439 45.4828V40.8763H18.6691V45.4828C18.6691 46.7547 19.421 47.4766 20.7197 47.4766C21.9841 47.4766 22.7018 46.7547 22.7018 45.4828V40.8763H23.693V45.4828Z" fill="#D6DBE4"></path> <path d="M36.0985 48.3016C33.843 48.4392 32.476 46.5141 32.476 44.6234C32.476 42.5264 33.6721 40.7044 36.0643 40.7044C37.7048 40.7044 39.0033 41.392 39.2768 43.1108H38.2857C38.0807 42.0108 37.1579 41.4951 36.0643 41.4951C34.2189 41.4951 33.467 43.042 33.467 44.589C33.467 46.1015 34.4239 47.5454 36.2352 47.511C37.1579 47.4766 37.9097 47.3047 38.2857 46.6859C38.5591 46.3078 38.4907 45.6203 38.4565 45.1046H36.0643V44.2796H39.3451C39.3451 44.2796 39.3451 46.1703 39.3451 46.9953C38.4907 48.061 37.4655 48.2329 36.0985 48.3016Z" fill="#D6DBE4"></path> <path d="M51.614 47.4766C53.4253 47.4766 54.2114 45.9297 54.2114 44.4859C54.2114 43.042 53.4253 41.4951 51.614 41.4951C49.7686 41.4951 49.0167 43.042 49.0167 44.4859C49.0167 45.9297 49.7686 47.4766 51.614 47.4766ZM51.614 40.7044C54.0063 40.7044 55.2024 42.5264 55.2024 44.4859C55.2024 46.4453 54.0063 48.2673 51.614 48.2673C49.2217 48.2673 48.0256 46.4453 48.0256 44.4859C48.0256 42.5264 49.2217 40.7044 51.614 40.7044Z" fill="#D6DBE4"></path> <path d="M75.3315 43.9702H77.3137C78.4415 43.9702 78.92 43.5921 78.92 42.8358C78.92 41.8389 78.2023 41.667 77.3137 41.667H75.3315V43.9702ZM75.3315 47.3047H77.8263C78.6807 47.3047 79.2275 46.7891 79.2275 45.9984C79.2275 45.0703 78.4415 44.7953 77.5871 44.7953H75.3315V47.3047ZM74.3405 40.8763H77.0403C77.7239 40.8763 78.5781 40.8763 79.0225 41.117C79.5351 41.4264 79.911 41.942 79.911 42.6295C79.911 43.4202 79.5009 44.0046 78.8174 44.2796C79.7401 44.4515 80.2528 45.139 80.2528 46.0328C80.2528 47.0985 79.4326 48.0954 77.963 48.0954H74.3405V40.8763Z" fill="#D6DBE4"></path> <path d="M92.7481 44.4859C92.7481 42.942 93.5755 41.4951 95.3868 41.4951C96.3095 41.4951 97.0613 41.8389 97.4373 42.4264L98.3959 41.7046C97.832 40.9046 96.7794 40.7044 95.744 40.7044C93.068 40.7044 91.5452 42.5453 91.5452 44.4859C91.5452 46.4264 93.068 48.2673 95.744 48.2673C96.8734 48.2673 97.9073 47.961 98.49 47.1141L97.5689 46.4453C97.1553 46.9984 96.4223 47.4766 95.3868 47.4766C93.5755 47.4766 92.7481 46.0328 92.7481 44.4859Z" fill="#D6DBE4"></path> <path d="M107.247 48.0954C105.818 48.0954 104.972 47.1923 104.972 45.9984C104.972 44.7578 105.818 43.9702 107.247 43.9702C108.675 43.9702 109.521 44.7578 109.521 45.9984C109.521 47.1923 108.675 48.0954 107.247 48.0954ZM107.247 43.1108C105.141 43.1108 103.769 44.3796 103.769 45.9984C103.769 47.6172 105.141 48.9547 107.247 48.9547C109.353 48.9547 110.725 47.6172 110.725 45.9984C110.725 44.3796 109.353 43.1108 107.247 43.1108Z" fill="#D6DBE4"></path> <path d="M123.606 48.0954H122.403V42.6608L119.583 48.0954H118.474L115.654 42.6608V48.0954H114.45V40.8763H115.823L119.019 46.9953L122.234 40.8763H123.606V48.0954Z" fill="#D6DBE4"></path>
          </svg>