<svg viewBox="0 0 167 25" xmlns="http://www.w3.org/2000/svg">
            <path fill="#D6DBE4" d="M153.622 19.6855C153.622 22.6557 153.371 22.7413 152.062 22.88L151.035 22.9922C150.836 23.1901
            150.864 23.692 151.089 23.8041C152.34 23.747 154.04 23.7205 155.266 23.7205H158.439C161.697 23.7205
            164.091 23.747 165.312 23.8041C165.704 23.0473 166.315 20.9196 166.484 19.7405C166.315 19.459 165.843
            19.3774 165.592 19.5712C164.617 21.8437 164.007 22.6557 160.469 22.5985C158.131 22.5985 157.659
            22.3741 157.322 21.9845C156.909 21.5071 156.852 20.4974 156.852 19.0673V15.5096C156.852 14.8099
            156.879 14.7528 157.519 14.7528H158.856C161.278 14.7528 161.752 14.8099 161.949 15.9849L162.141
            17.1069C162.366 17.2742 162.889 17.2742 163.031 17.0804C163.002 16.1828 162.948 15.1995 162.948
            14.1388C162.948 13.0984 163.002 12.0886 163.031 11.3318C162.889 11.1094 162.366 11.1094 162.141
            11.3073L161.949 12.2579C161.752 13.4656 161.278 13.4921 158.856 13.4921H157.519C156.879 13.4921
            156.852 13.4656 156.852 12.7353V7.99641C156.852 6.40115 156.852 6.34403 158.048
            6.34403H159.914C160.666 6.34403 161.499 6.40115 162.141 6.59698C163.031 6.82138 163.448 7.52109
            163.894 9.14695C164.117 9.31626 164.67 9.26119 164.784 9.03475C164.617 7.83117 164.451 5.6178 164.34
            5.14044C163.979 5.19552 162.366 5.22409 160.581 5.22409L155.266 5.22409C154.04 5.22409 152.733
            5.19551 151.673 5.14044C151.45 5.2506 151.422 5.75651 151.616 5.95235L152.062 6.00743C153.371 6.20327
            153.622 6.28895 153.622 9.26118V19.6855ZM147.448 12.2583C147.448 10.045 147.448 7.60719 147.839
            6.73816C148.034 6.28936 148.506 6.17513 149.031 6.09353L149.677 5.95277C149.898 5.75489 149.842
            5.28161 149.621 5.14086C148.62 5.1939 147.894 5.22246 146.697 5.22246C145.61 5.22246 144.579 5.19392
            143.497 5.14086C143.217 5.22246 143.189 5.75489 143.44 5.95277L144.081 6.03641C144.778 6.14656
            145.221 6.31589 145.471 6.73816C145.973 7.57863 146.002 10.1551 146.002 12.2583V17.7234C146.002
            18.1702 146.002 18.313 145.918 18.3966C145.639 18.2273 143.049 15.255 141.882 13.9678L139.096
            10.9425C138.121 9.87767 135.088 6.34444 134.615 5.14086C133.945 5.1939 133.28 5.22246 132.694
            5.22246C131.997 5.22246 130.467 5.251 129.41 5.14086C129.132 5.22246 129.104 5.78549 129.296
            5.95277L129.714 6.03641C130.107 6.12209 130.885 6.34444 131.193 6.59536C132.137 7.40931 132.109
            7.8581 132.109 10.045V16.6871C132.109 18.9005 132.109 21.3403 131.748 22.2073C131.554 22.6561 131.053
            22.7683 130.522 22.8498L129.91 22.9927C129.687 23.1885 129.742 23.6638 129.965 23.8046C130.938
            23.7474 131.693 23.7189 132.863 23.7189C133.92 23.7189 135.009 23.7474 136.036 23.8046C136.314
            23.7189 136.342 23.1885 136.091 22.9927L135.477 22.909C134.784 22.7968 134.309 22.6275 134.058
            22.2073C133.586 21.3668 133.558 18.7883 133.558 16.6871V11.222C133.558 9.73488 133.558 9.42888
            133.641 9.42888C134.113 9.84912 135.009 10.914 136.814 12.9601L143.329 20.4427C145.333 22.7417
            146.141 23.6924 146.585 24.2819C146.922 24.3105 147.311 24.1983 147.531 23.8902C147.448 23.2436
            147.448 19.7981 147.448 18.9556V12.2583ZM120.644 16.855C121.423 16.855 121.508 16.855 121.785
            17.6098L123.094 21.4225C123.457 22.6281 123.374 22.7974 122.369 22.9076L121.759 22.9912C121.591
            23.1605 121.619 23.6644 121.842 23.8052C122.817 23.7787 124.041 23.7195 125.238 23.7195C126.683
            23.7195 127.714 23.748 128.857 23.8052C129.05 23.6644 129.05 23.1891 128.829 22.9912L128.412
            22.9076C126.993 22.6567 126.851 22.4588 126.211 20.582L122.203 8.84198C121.759 7.57924 121.396
            6.26142 120.952 5.00072C120.837 4.85995 120.699 4.77631 120.476 4.77631C120.422 4.77631 119.504
            5.92482 118.529 6.12066C118.612 6.59597 118.361 7.26713 117.998 8.16675L114.184 18.1443C113.603
            19.6559 113.155 20.835 112.821 21.5612C112.405 22.4853 112.099 22.7403 111.291 22.8505L110.456
            22.9912C110.261 23.2442 110.288 23.6644 110.484 23.8052C111.457 23.7481 112.322 23.7195 113.238
            23.7195C114.381 23.748 115.301 23.748 116.188 23.8052C116.413 23.693 116.444 23.1891 116.245
            22.9912L115.439 22.8505C114.407 22.7117 114.296 22.6281 114.855 20.9737L115.994 17.6098C116.245
            16.855 116.217 16.855 116.942 16.855H120.644ZM117.388 15.5922C116.719 15.5922 116.636 15.5922 116.942
            14.7824L118.114 11.5001C118.612 10.1843 118.835 9.48458 118.944 9.2867H119.003C119.139 9.48458
            119.311 10.015 119.781 11.5001L120.952 14.866C121.175 15.5372 121.06 15.5922 120.282
            15.5922H117.388ZM102.725 19.6855C102.725 22.6557 102.476 22.7413 101.165 22.8515L99.9994
            22.9922C99.7988 23.133 99.8292 23.692 100.054 23.8041C101.831 23.747 103.14 23.7205 104.368
            23.7205C105.592 23.7205 106.844 23.747 108.46 23.8041C108.682 23.692 108.711 23.1901 108.514
            22.9922L107.513 22.88C106.206 22.7413 105.955 22.6557 105.955 19.6855V7.57822C105.955 6.40116 105.983
            6.34404 106.705 6.34404H108.291C111.272 6.34404 111.801 6.87851 112.162 9.06332C112.413 9.26119
            112.887 9.20408 113.027 8.97968C112.942 8.08209 113.165 5.67288 113.444 4.52234C113.386 4.4387
            113.248 4.38363 113.082 4.38363C112.972 4.38363 112.855 4.4387 112.745 4.49378C112.413 5.14046
            111.996 5.22409 110.632 5.22409H99.272C97.3814 5.22409 96.9883 5.19552 96.8525 4.49378C96.7957
            4.41219 96.6863 4.38363 96.5708 4.38363C96.433 4.38363 96.3216 4.41217 96.2648 4.49378C96.0703
            5.47501 95.6529 7.21307 95.1787 8.72672C95.2902 9.0062 95.8737 9.09188 96.0703 8.92256C97.1038
            6.65411 97.8535 6.34404 100.415 6.34404H101.971C102.697 6.34404 102.725 6.40116 102.725
            7.57822V19.6855ZM91.3531 9.26099C91.3531 6.28875 91.6044 6.20307 92.9114 6.0358L93.5254
            5.95215C93.722 5.75632 93.6916 5.25245 93.4687 5.14025C92.2447 5.19533 90.9904 5.22389 89.7645
            5.22389C88.4838 5.22389 87.2356 5.19535 86.0096 5.14025C85.7827 5.25245 85.7583 5.75632 85.9508
            5.95215L86.5669 6.0358C87.8739 6.20307 88.1231 6.28875 88.1231 9.26099V19.6853C88.1231 22.6554
            87.8739 22.7411 86.5669 22.9084L85.9508 22.992C85.7583 23.1899 85.7827 23.6917 86.0096
            23.8039C87.2356 23.7489 88.5426 23.7203 89.7645 23.7203C90.9904 23.7203 92.2447 23.7489 93.4687
            23.8039C93.6916 23.6917 93.722 23.1899 93.5254 22.992L92.9114 22.9084C91.6044 22.7411 91.3531 22.6554
            91.3531 19.6853V9.26099ZM83.4574 5.55926C83.2041 5.50418 83.0116 5.47562 82.6773 5.38995C81.3703
            5.05539 79.4493 4.77795 77.8606 4.77795C75.05 4.77795 72.2354 5.58782 70.1766 7.15656C68.1158 8.75386
            66.669 11.3059 66.669 14.5841C66.669 18.256 68.365 20.8081 70.6224 22.2891C72.6265 23.6069 74.9933
            24.1699 77.7471 24.1699C79.5587 24.1699 81.4797 23.6926 82.0916 23.4947C82.3976 23.4111 82.732
            23.3009 83.0663 23.2438C83.4574 22.7113 84.2072 20.8611 84.4037 18.9843C84.2639 18.7314 83.8161
            18.6212 83.5668 18.8721C82.7887 20.6959 81.2547 23.0479 77.7471 23.0479C74.1584 23.0479 70.4563
            20.1308 70.4563 14.1639C70.4563 8.41727 74.0206 5.89585 77.5526 5.89585C81.2304 5.89585 82.4807
            8.22142 82.9569 9.98803C83.1494 10.1859 83.6499 10.1553 83.8424 9.93296C83.5668 7.85831 83.5121
            6.20389 83.4574 5.55926ZM64.1441 5.55926C63.8949 5.50418 63.6983 5.47562 63.364 5.38995C62.057
            5.05539 60.136 4.77795 58.5493 4.77795C55.7388 4.77795 52.9262 5.58782 50.8674 7.15656C48.8045
            8.75386 47.3577 11.3059 47.3577 14.5841C47.3577 18.256 49.0558 20.8081 51.3111 22.2891C53.3152
            23.6069 55.682 24.1699 58.4399 24.1699C60.2474 24.1699 62.1684 23.6926 62.7804 23.4947C63.0884
            23.4111 63.4207 23.3009 63.7571 23.2438C64.1441 22.7113 64.8939 20.8611 65.0904 18.9843C64.9506
            18.7314 64.5068 18.6212 64.2535 18.8721C63.4775 20.6959 61.9455 23.0479 58.4399 23.0479C54.8451
            23.0479 51.145 20.1308 51.145 14.1639C51.145 8.41727 54.7073 5.89585 58.2433 5.89585C61.9171 5.89585
            63.1715 8.22142 63.6436 9.98803C63.8361 10.1859 64.3387 10.1553 64.5352 9.93296C64.2535 7.85831
            64.2029 6.20389 64.1441 5.55926ZM32.9531 24.2815C39.6705 24.2815 45.0282 19.1306 45.0282
            12.056C45.0282 5.89116 40.9937 0.0405273 32.9531 0.0405273C25.7858 0.0405273 20.5659 5.39953 20.5659
            12.4048C20.5659 18.7103 25.2306 24.2815 32.9531 24.2815ZM33.405 23.1942C26.5538 23.1942 24.0472
            16.4684 24.0472 11.2869C24.0472 3.61456 28.7464 1.12782 32.3634 1.12782C39.0099 1.12782 41.5489
            7.35995 41.5489 13.1412C41.5489 20.0424 37.5813 23.1942 33.405 23.1942ZM14.9399 4.10191C13.6876
            4.10191 13.3533 4.94441 13.3533 5.41972C13.3533 6.0358 13.7971 6.3724 14.2165 6.42747C14.8832 6.51315
            15.7201 6.96195 15.7201 7.88401C15.7201 9.1182 14.6603 9.93418 13.4627 10.436C13.3796 10.6625 13.4364
            10.997 13.6613 11.1663C15.5803 10.689 17.4729 9.11819 17.4729 6.98846C17.4729 5.45033 16.3037 4.10191
            14.9399 4.10191ZM6.21461 9.26099C6.21461 6.34383 6.46588 6.26019 7.77288 6.06435L8.38687
            5.95215C8.60775 5.8114 8.58141 5.25245 8.33216 5.14025C7.10824 5.19533 5.85189 5.22389 4.62999
            5.22389C3.34731 5.22389 2.09298 5.19535 0.702899 5.14025C0.453656 5.25245 0.453657 5.8114 0.648187
            5.95215L1.42631 6.06435C2.73534 6.26019 2.98661 6.34383 2.98661 9.26099L2.98661 19.6853C2.98661
            22.5983 2.73534 22.682 1.42631 22.8513L0.58942 22.992C0.338151 23.1328 0.427312 23.6917 0.648187
            23.8039C1.8174 23.7489 3.20748 23.7203 4.62999 23.7203H7.52567C10.6402 23.7203 13.0354 23.7489
            14.2046 23.8039C14.5369 23.0471 15.1529 20.9194 15.3738 19.7403C15.236 19.5159 14.7902 19.4323
            14.5126 19.571C13.2279 22.4596 12.7841 22.5983 9.69388 22.5983C7.46893 22.5983 7.0211 22.376 6.68878
            21.9843C6.27337 21.5069 6.21461 20.4972 6.21461 19.0977V9.26099Z" />
          </svg>