<svg xmlns="http://www.w3.org/2000/svg" viewBox="0 0 208 43" fill="#D6DBE4">
            <path fill="#D6DBE4" d="M195.729 30.0154C196.387 30.0154 201.152 30.2116 201.113 20.9643C201.08 12.3802 196.444 12.6371
            195.686 12.6371H195.701C194.942 12.6371 190.307 12.3802 190.269 20.9643C190.226 30.2116 194.99
            30.0154 195.643 30.0154H195.729ZM195.749 33.1632C194.17 33.1866 183.853 32.841 183.853
            21.3987C183.896 9.99369 194.107 9.83957 195.686 9.84891C197.274 9.83957 207.481 9.99369 207.5
            21.3987C207.529 32.841 197.202 33.1866 195.624 33.1632" />
            <path d="M180.902 11.1379V13.9775C179.703 13.4778 179.016 13.1135 177.74 12.7772C176.737 12.5624 172.443
            11.5723 170.379 13.6739C169.515 14.5239 169.256 16.0838 170.984 17.2981C173.417 18.83 176.895 19.5399
            179.751 21.8096C181.627 23.2481 182.231 24.9434 181.756 27.5355C181.267 30.1695 178.311 32.2945
            175.657 32.8363C171.795 33.5929 167.452 33.238 164.007 31.8228L164.031 29.0253C167.193 30.3143
            172.111 31.9536 175.163 29.3476C176.008 28.5956 176.516 27.5355 176.075 26.4333C175.389 24.411
            169.717 23.2061 166.257 20.6981C162.822 18.6478 163.134 15.1264 164.333 13.1882C167.567 8.47116
            175.768 9.77419 180.902 11.1379Z" fill="#D6DBE4" />
            <path d="M161.089 11.1379V13.9775C159.88 13.4778 159.199 13.1135 157.927 12.7772C156.934 12.5624 152.62
            11.5723 150.571 13.6739C149.698 14.5239 149.434 16.0838 151.147 17.2981C153.599 18.83 157.073 19.5399
            159.938 21.8096C161.809 23.2481 162.409 24.9434 161.929 27.5355C161.449 30.1695 158.479 32.2945
            155.84 32.8363C151.977 33.5929 147.635 33.238 144.199 31.8228L144.213 29.0253C147.38 30.3143 152.294
            31.9536 155.36 29.3476C156.176 28.5956 156.694 27.5355 156.262 26.4333C155.557 24.411 149.895 23.2061
            146.44 20.6981C143.009 18.6478 143.316 15.1264 144.511 13.1882C147.745 8.47116 155.95 9.77419 161.089
            11.1379Z" fill="#D6DBE4" />
            <path d="M79.9094 11.1379V13.9775C78.6906 13.4778 78.0188 13.1135 76.7328 12.7772C75.7347 12.5624 71.4401
            11.5723 69.3912 13.6739C68.5131 14.5239 68.2539 16.0838 69.9814 17.2981C72.4094 18.83 75.8979 19.5399
            78.7529 21.8096C80.6291 23.2481 81.2289 24.9434 80.7539 27.5355C80.274 30.1695 77.299 32.2945 74.6599
            32.8363C70.8019 33.5929 66.4497 33.238 63.0092 31.8228L63.0236 29.0253C66.2002 30.3143 71.1138
            31.9536 74.1752 29.3476C75.0054 28.5956 75.514 27.5355 75.0677 26.4333C74.3816 24.411 68.7194 23.2061
            65.2549 20.6981C61.824 18.6478 62.1407 15.1264 63.3211 13.1882C66.5649 8.47116 74.775 9.77419 79.9094
            11.1379Z" fill="#D6DBE4" />
            <path d="M50.6724 30.5011C53.801 30.8047 57.6254 30.3377 60.6772 30.2583L60.6916 32.7849H44.1274C44.1274
            32.7849 44.6456 32.2618 44.6456 31.3838V11.6003C44.6456 10.7269 44.1274 10.1852 44.1274
            10.1852H60.6916L60.6772 12.7118C57.6254 12.6605 53.801 12.1747 50.6724 12.4877C50.6724 12.4877
            50.6677 19.4745 50.6677 19.9508C53.2348 20.105 56.253 20.1283 58.6523 19.8341V22.5149C56.2962 22.3
            53.2108 22.258 50.6677 22.3888L50.6724 23.2481" fill="#D6DBE4" />
            <path d="M131.948 30.5011C135.077 30.8047 138.892 30.3377 141.958 30.2583L141.963 32.7849H125.423C125.423
            32.7849 125.931 32.2618 125.931 31.3838V11.6003C125.931 10.7269 125.423 10.1852 125.423
            10.1852H141.963L141.958 12.7118C138.892 12.6605 135.077 12.1747 131.948 12.4877C131.948 12.4877
            131.939 19.4745 131.939 19.9508C134.511 20.105 137.529 20.1283 139.943 19.8341V22.5149C137.582 22.3
            134.487 22.258 131.948 22.3888V23.2481" fill="#D6DBE4" />
            <path d="M109.42 13.0341V20.6607C111.416 20.6607 113.834 20.9176 115.221 19.3577C116.402 17.8305 116.2
            15.8643 115.418 14.4679C114.031 12.1934 109.42 13.0341 109.42 13.0341ZM109.458
            23.4536V31.3838C109.463 32.2572 109.976 32.7989 109.976 32.7989L102.903 32.7849C102.903 32.7849
            103.412 32.2618 103.417 31.3838L103.412 11.6003C103.412 10.7269 102.903 10.1852 102.903
            10.1852H114.967C118.244 10.3206 121.713 12.0813 121.814 15.9157C121.853 19.0448 120.427 20.8522
            118.283 21.8517C117.875 22.0385 117.903 21.9918 117.764 22.0852C119.285 25.5272 120.663 28.0632
            122.496 31.3838C122.87 32.2572 123.609 32.7849 123.609 32.7849H116.301C116.301 32.7849 116.742
            32.2572 116.291 31.3838C116.291 31.3838 113.695 25.4291 112.476 23.4536" fill="#D6DBE4" />
            <path d="M89.5878 13.0621L89.5638 21.5528C91.584 21.6835 93.9832 21.903 95.3651 20.3338C96.5456 18.8113
            96.3536 15.8643 95.5619 14.4912C94.1751 12.2028 89.5878 13.0621 89.5878 13.0621ZM89.6118
            31.3838C89.6118 32.2572 90.1253 32.7943 90.1253 32.7943L83.0571 32.7849C83.0571 32.7849 83.5802
            32.2618 83.5802 31.3838V11.6003C83.5802 10.7269 83.0571 10.1852 83.0571 10.1852H94.7414C97.6732
            10.2879 99.9525 11.6003 100.917 14.3651C101.646 16.789 101.55 19.9322 99.7749 21.903C97.4093 24.9574
            89.5974 24.5091 89.5974 24.5091" fill="#D6DBE4" />
            <path d="M36.3779 10.1855C36.3779 10.1855 36.9057 10.7599 36.9057 11.5865V21.5951C33.8347 18.055 31.1139
            14.0571 27.9469 10.4563C26.7713 9.07386 24.5354 6.7574 23.6812 6.05218C18.1294 0.760693 8.99804
            -1.66795 0.5 1.25101V1.58737C3.41265 0.970887 7.18899 1.19035 10.8982 2.64749C13.6813 3.64227 17.6447
            6.65452 19.9383 9.41469C22.9038 12.7026 29.2186 21.1606 29.2186 21.1606C32.8462 25.7469 36.0468
            29.9175 39.7512 34.2609V11.5865C39.7608 10.7599 40.279 10.1855 40.279 10.1855" fill="#D6DBE4" />
            <path d="M19.8714 32.8133C19.8714 32.8133 19.3436 32.2436 19.3436 31.4123V21.3992C22.4098 24.9393 25.14
            28.9417 28.307 32.5425C29.4826 33.9203 31.7043 36.2413 32.568 36.9512C38.1246 42.2427 47.2416 44.6712
            55.7493 41.7429V41.4114C52.8366 42.0186 49.0555 41.8131 45.3511 40.3419C42.5728 39.3471 38.6045
            36.344 36.3156 33.5838C33.3454 30.2912 27.0307 21.8381 27.0307 21.8381C23.3982 17.2519 20.1976
            13.0718 16.4884 8.74245V31.4123C16.4884 32.2436 15.9606 32.8133 15.9606 32.8133" fill="#D6DBE4" />
          </svg>