<svg viewBox="0 0 2411 340" version="1.1" xmlns="http://www.w3.org/2000/svg" xmlns:xlink="http://www.w3.org/1999/xlink" xml:space="preserve" xmlns:serif="http://www.serif.com/" fill="#D6DBE4">
            <g transform="matrix(4.16667,0,0,4.16667,-258.5,-203.063)">
              <g transform="matrix(84,0,0,84,55.32,112.323)">
            <path d="M0.08,-0.675L0.08,-0.557L0.431,-0.557C0.495,-0.557 0.524,-0.516 0.524,-0.467C0.524,-0.42
            0.497,-0.374 0.43,-0.374L0.187,-0.374C0.113,-0.374 0.081,-0.343
            0.081,-0.267L0.081,-0L0.199,-0L0.199,-0.244C0.199,-0.256 0.205,-0.261
            0.216,-0.261L0.426,-0.261C0.584,-0.261 0.643,-0.371 0.643,-0.473C0.643,-0.581 0.578,-0.675
            0.426,-0.675L0.08,-0.675Z" />
              </g>
              <g transform="matrix(84,0,0,84,109.345,112.323)">
            <path d="M0.097,-0.528L0.097,-0.426L0.413,-0.426C0.471,-0.426 0.494,-0.394
            0.494,-0.353L0.494,-0.313L0.243,-0.313C0.113,-0.313 0.065,-0.257 0.065,-0.161C0.065,-0.061 0.117,-0
            0.242,-0L0.489,-0C0.578,-0 0.598,-0.03 0.598,-0.106L0.598,-0.354C0.598,-0.454 0.546,-0.528
            0.414,-0.528L0.097,-0.528ZM0.465,-0.103L0.243,-0.103C0.19,-0.103 0.169,-0.128
            0.169,-0.167C0.169,-0.206 0.189,-0.229 0.245,-0.229L0.494,-0.229L0.494,-0.13C0.494,-0.111
            0.486,-0.103 0.465,-0.103Z" />
              </g>
              <g transform="matrix(84,0,0,84,166.058,112.323)">
            <path d="M0.218,-0.528C0.114,-0.528 0.075,-0.48 0.075,-0.374L0.075,-0L0.181,-0L0.181,-0.358C0.181,-0.404
            0.202,-0.426 0.249,-0.426L0.435,-0.426L0.435,-0.528L0.218,-0.528Z" />
              </g>
              <g transform="matrix(84,0,0,84,205.215,112.323)">
            <path d="M0.513,-0.757L0.513,-0.528L0.28,-0.528C0.139,-0.528 0.051,-0.442 0.051,-0.264C0.051,-0.086 0.139,-0
            0.28,-0L0.426,-0C0.552,-0 0.62,-0.074
            0.62,-0.226L0.62,-0.757L0.513,-0.757ZM0.395,-0.103L0.29,-0.103C0.199,-0.103 0.158,-0.15
            0.158,-0.264C0.158,-0.378 0.199,-0.426 0.29,-0.426L0.513,-0.426L0.513,-0.231C0.513,-0.141 0.48,-0.103
            0.395,-0.103Z" />
              </g>
              <g transform="matrix(84,0,0,84,263.86,112.323)">
            <path d="M0.28,-0.528C0.139,-0.528 0.051,-0.442 0.051,-0.264C0.051,-0.086 0.139,-0 0.28,-0L0.391,-0C0.531,-0
            0.62,-0.086 0.62,-0.264C0.62,-0.442 0.531,-0.528 0.391,-0.528L0.28,-0.528ZM0.381,-0.426C0.472,-0.426
            0.513,-0.378 0.513,-0.264C0.513,-0.15 0.472,-0.103 0.381,-0.103L0.29,-0.103C0.198,-0.103 0.158,-0.15
            0.158,-0.264C0.158,-0.378 0.198,-0.426 0.29,-0.426L0.381,-0.426Z" />
              </g>
              <g transform="matrix(84,0,0,84,320.489,112.323)">
            <path d="M0.249,-0.528C0.117,-0.528 0.065,-0.454 0.065,-0.354L0.065,-0.174C0.065,-0.074 0.117,-0
            0.249,-0L0.572,-0L0.572,-0.103L0.249,-0.103C0.191,-0.103 0.168,-0.134
            0.168,-0.176L0.168,-0.214L0.419,-0.214C0.549,-0.214 0.598,-0.269 0.598,-0.366C0.598,-0.468
            0.545,-0.528 0.42,-0.528L0.249,-0.528ZM0.168,-0.353C0.168,-0.394 0.191,-0.426
            0.249,-0.426L0.419,-0.426C0.471,-0.426 0.494,-0.4 0.494,-0.36C0.494,-0.321 0.473,-0.297
            0.416,-0.297L0.168,-0.297L0.168,-0.353Z" />
              </g>
              <g transform="matrix(84,0,0,84,396.372,112.323)">
            <path d="M0.019,-0.675L0.228,-0.113C0.254,-0.036 0.297,0.012 0.387,0.012C0.487,0.012 0.537,-0.047
            0.537,-0.136L0.537,-0.534C0.537,-0.558 0.551,-0.573 0.571,-0.573C0.589,-0.573 0.603,-0.561
            0.609,-0.544L0.773,-0.113C0.799,-0.036 0.842,0.012 0.932,0.012C1.032,0.012 1.082,-0.047
            1.082,-0.136L1.082,-0.675L0.963,-0.675L0.963,-0.141C0.963,-0.118 0.949,-0.103
            0.929,-0.103C0.912,-0.103 0.898,-0.114 0.892,-0.131L0.728,-0.562C0.702,-0.639 0.658,-0.687
            0.568,-0.687C0.469,-0.687 0.419,-0.628 0.419,-0.54L0.419,-0.141C0.419,-0.118 0.404,-0.103
            0.384,-0.103C0.366,-0.103 0.354,-0.114 0.347,-0.131L0.145,-0.675L0.019,-0.675Z" />
              </g>
              <g transform="matrix(84,0,0,84,494.329,112.323)">
            <path d="M0.218,-0.528C0.114,-0.528 0.075,-0.48 0.075,-0.374L0.075,-0L0.181,-0L0.181,-0.358C0.181,-0.404
            0.202,-0.426 0.249,-0.426L0.435,-0.426L0.435,-0.528L0.218,-0.528Z" />
              </g>
              <g transform="matrix(84,0,0,84,533.486,112.323)">
            <path d="M0.097,-0.528L0.097,-0.426L0.413,-0.426C0.471,-0.426 0.494,-0.394
            0.494,-0.353L0.494,-0.313L0.243,-0.313C0.113,-0.313 0.065,-0.257 0.065,-0.161C0.065,-0.061 0.117,-0
            0.242,-0L0.489,-0C0.578,-0 0.598,-0.03 0.598,-0.106L0.598,-0.354C0.598,-0.454 0.546,-0.528
            0.414,-0.528L0.097,-0.528ZM0.465,-0.103L0.243,-0.103C0.19,-0.103 0.169,-0.128
            0.169,-0.167C0.169,-0.206 0.189,-0.229 0.245,-0.229L0.494,-0.229L0.494,-0.13C0.494,-0.111
            0.486,-0.103 0.465,-0.103Z" />
              </g>
              <g transform="matrix(84,0,0,84,587.763,112.323)">
            <path d="M0.515,-0.528L0.336,-0.113L0.322,-0.113C0.302,-0.113 0.297,-0.116
            0.29,-0.135L0.131,-0.528L0.019,-0.528L0.196,-0.084C0.214,-0.038 0.235,-0.019
            0.295,-0.019L0.196,0.212L0.31,0.212L0.628,-0.528L0.515,-0.528Z" />
              </g>
          </g>
          </svg>