<svg viewBox="0 0 132 22" xmlns="http://www.w3.org/2000/svg">
            <path fill="#D6DBE4" d="M94.6875 0.566112C96.8063 0.497716 98.9334 0.582206 101.054 0.525879C96.8597 3.77875 92.7432 7.12818
            88.563 10.3992C93.4679 13.9719 98.3872 17.5265 103.3 21.0872C101.26 21.0872 99.2167 21.0831 97.1759
            21.0912C96.8987 21.0711 96.5907 21.1354 96.3444 20.9825C91.8008 17.5084 87.1976 14.1067 82.6581
            10.6305L82.6007 10.3549C82.5 10.4816 82.4138 10.6184 82.3399 10.7592C82.344 14.1992 82.3502 17.6412
            82.3379 21.0811C80.6707 21.0952 79.0036 21.0811 77.3364 21.0892C77.3446 14.2394 77.3364 7.3897
            77.3405 0.539961C79.0077 0.535937 80.6769 0.562089 82.344 0.525879C82.3276 3.81094 82.3748 7.09599
            82.3194 10.381C86.4934 7.17847 90.5093 3.76064 94.6875 0.566112Z" />
            <path d="M0.475123 0.543984C3.96751 0.548007 7.4599 0.533925 10.9523 0.550019C12.7673 0.608357 14.6048
            0.578182 16.3911 0.950341C17.5203 1.23801 18.7152 1.56189 19.5734 2.38064C20.9429 3.52125 21.5444
            5.3398 21.4233 7.06783C21.4479 9.50195 19.4708 11.5941 17.202 12.3324C13.182 13.2799 9.01207 12.9399
            4.91606 13.0163C4.91401 15.7079 4.91195 18.3976 4.91811 21.0892C3.4378 21.0851 1.95749 21.0872
            0.477176 21.0872C0.473069 14.2394 0.475123 7.39171 0.475123 0.543984ZM4.91195 3.8049C4.91606 5.7703
            4.91606 7.73771 4.91195 9.70312C7.81304 9.67294 10.7203 9.76346 13.6132 9.51402C14.6192 9.4416
            15.6273 9.02518 16.2925 8.26879C17.007 7.41786 17.0645 6.0801 16.3254 5.22514C15.6006 4.41645 14.5083
            4.00204 13.4304 3.89945C10.593 3.76064 7.75145 3.83507 4.91195 3.8049Z" fill="#D6DBE4" />
            <path d="M29.4244 0.541972C30.761 0.53996 32.0955 0.550019 33.4321 0.535937C33.4239 7.38567 33.4259 14.2334
            33.4321 21.0811C32.0955 21.0932 30.761 21.0831 29.4264 21.0872C29.4223 14.2394 29.4244 7.39171
            29.4244 0.541972Z" fill="#D6DBE4" />
            <path d="M44.4123 0.541972C46.18 0.541972 47.9478 0.545996 49.7155 0.539961C54.1606 5.65161 58.5892 10.7773
            62.9911 15.9252C62.9521 10.8136 62.9706 5.7019 62.9111 0.592264C64.3934 0.594275 65.8737 0.596287
            67.3561 0.590252C67.3499 7.41987 67.3643 14.2515 67.3499 21.0811C65.6068 21.0811 63.8637 21.1093
            62.1227 21.067C57.7002 15.9272 53.2449 10.8115 48.7875 5.7019C48.7506 10.8296 48.8019 15.9574 48.7629
            21.0872C47.3134 21.0872 45.8638 21.0851 44.4143 21.0872C44.4102 14.2394 44.4123 7.39171 44.4123
            0.541972Z" fill="#D6DBE4" />
            <path d="M116.085 0.650602C119.892 0.34684 124.021 0.731069 127.244 2.91373C129.18 4.16901 130.552 6.20482
            131.007 8.43174C131.582 11.2018 131.182 14.2555 129.5 16.6031C127.952 18.7154 125.472 19.9888 122.937
            20.5842C120.013 21.2461 116.933 21.2622 113.997 20.6687C111.295 20.1115 108.624 18.8019 107.029
            16.5227C104.161 12.4692 104.877 6.16258 108.996 3.16318C111.012 1.61822 113.574 0.910108 116.085
            0.650602ZM115.958 3.96382C114.1 4.20925 112.32 5.21709 111.285 6.76407C109.489 9.71317 109.858
            14.0202 112.652 16.2652C113.8 17.0276 115.1 17.6472 116.502 17.7578C118.483 17.9308 120.541 17.8403
            122.415 17.1382C123.932 16.5911 125.109 15.3519 125.784 13.9357C126.704 11.749 126.675 9.14789
            125.499 7.05777C124.633 5.67777 123.226 4.60152 121.608 4.22333C119.773 3.74254 117.83 3.70432
            115.958 3.96382Z" fill="#D6DBE4" />
          </svg>