<svg width="200px" viewBox="0 0 159 10"  xmlns="http://www.w3.org/2000/svg">
            <path d="M7.37 1.62662H4.39011V9.1147H3.18612V1.62662H0.236328L0.236328 0.509447L7.37 0.509447V1.62662Z" fill="#D6DBE4"></path> <path d="M16.4602 0.388672C14.4435 0.388672 13.1793 1.68701 13.1793 1.68701C11.885 2.98534 11.885 4.79698 11.885 4.79698C11.885 6.6388 13.1191 7.90694 13.1191 7.90694C14.3833 9.23547 16.4602 9.23547 16.4602 9.23547C18.5672 9.23547 19.8615 7.87675 19.8615 7.87675C21.0956 6.6388 21.0956 4.79698 21.0956 4.79698C21.0956 2.98534 19.8615 1.68701 19.8615 1.68701C18.5672 0.388672 16.4602 0.388672 16.4602 0.388672ZM16.4602 1.53604C17.9351 1.53604 18.8682 2.47205 18.8682 2.47205C19.8314 3.40806 19.8314 4.79698 19.8314 4.79698C19.8314 6.18589 18.8682 7.1521 18.8682 7.1521C17.9351 8.05791 16.4602 8.05791 16.4602 8.05791C15.0154 8.05791 14.1124 7.1521 14.1124 7.1521C13.1793 6.18589 13.1793 4.79698 13.1793 4.79698C13.1793 3.40806 14.1124 2.47205 14.1124 2.47205C15.0154 1.53604 16.4602 1.53604 16.4602 1.53604Z" fill="#D6DBE4"></path> <path d="M34.8211 9.1147H33.587V2.41166L30.9382 5.73299H30.7275L28.1088 2.41166H28.0787V9.1147H26.8446V0.509447H27.9884L30.8479 4.04213L33.7074 0.509447H34.8211V9.1147Z" fill="#D6DBE4"></path> <path d="M49.7808 9.1147H48.5467V2.41166H48.5166L45.8979 5.73299H45.6872L43.0384 2.41166V9.1147H41.8043V0.509447H42.9481L45.7775 4.04213L48.6069 0.509447H49.7808V9.1147Z" fill="#D6DBE4"></path> <path d="M61.1886 0.509447H62.6635L59.4729 4.55543V9.1147H58.2689V4.55543L55.0783 0.509447H56.5833L58.901 3.49864L61.1886 0.509447Z" fill="#D6DBE4"></path> <path d="M95.9239 0.509447V9.1147H94.7199V5.37066H89.9039V9.1147H88.6698V0.509447H89.9039V4.25349H94.7199V0.509447H95.9239Z" fill="#D6DBE4"></path> <path d="M102.275 9.1147H101.041V0.509447H102.275V9.1147Z" fill="#D6DBE4"></path> <path d="M108.536 7.99753H112.389V9.1147H107.332V0.509447L108.536 0.509447V7.99753Z" fill="#D6DBE4"></path> <path d="M120.516 1.62662L117.144 1.62662V4.01194H120.516V5.12911H117.144V9.1147H115.91V0.509447L120.516 0.509447V1.62662Z" fill="#D6DBE4"></path> <path d="M129.605 0.388672C127.588 0.388672 126.324 1.68701 126.324 1.68701C125.029 2.98534 125.029 4.79698 125.029 4.79698C125.029 6.6388 126.263 7.90694 126.263 7.90694C127.528 9.23547 129.605 9.23547 129.605 9.23547C131.712 9.23547 133.006 7.87675 133.006 7.87675C134.24 6.6388 134.24 4.79698 134.24 4.79698C134.24 2.98534 133.006 1.68701 133.006 1.68701C131.712 0.388672 129.605 0.388672 129.605 0.388672ZM129.605 1.53604C131.08 1.53604 132.013 2.47205 132.013 2.47205C132.976 3.40806 132.976 4.79698 132.976 4.79698C132.976 6.18589 132.013 7.1521 132.013 7.1521C131.08 8.05791 129.605 8.05791 129.605 8.05791C128.16 8.05791 127.257 7.1521 127.257 7.1521C126.324 6.18589 126.324 4.79698 126.324 4.79698C126.324 3.40806 127.257 2.47205 127.257 2.47205C128.16 1.53604 129.605 1.53604 129.605 1.53604Z" fill="#D6DBE4"></path> <path d="M141.282 0.509447V9.1147H140.048V5.37066H135.232V9.1147H133.998V0.509447H135.232V4.25349H140.048V0.509447H141.282Z" fill="#D6DBE4"></path> <path d="M147.282 9.1147H146.048V7.07113C146.048 7.07113 145.325 8.0277 144.601 8.63128C143.727 9.35537 142.249 9.23467 142.249 9.23467C142.249 9.23467 143.757 7.93717 143.757 6.63967C143.757 5.76431 143.093 5.34177 143.093 5.34177V0.509447H144.327V4.52515C144.327 4.52515 144.87 4.70617 145.353 5.25126C145.835 5.79434 146.048 5.79434 146.048 5.79434V0.509447H147.282V9.1147Z" fill="#D6DBE4"></path> <path d="M153.253 1.62662H150.273V9.1147H149.039V1.62662H146.089L146.089 0.509447L153.253 0.509447V1.62662Z" fill="#D6DBE4"></path> <path d="M72.3704 0.509447V9.1147H71.1362V7.75598C71.1362 7.75598 69.9598 9.26522 68.3912 9.26522C66.8226 9.26522 65.5557 7.9371 65.5557 7.9371C64.319 6.66989 64.319 4.79698 64.319 4.79698C64.319 2.92407 65.616 1.74734 65.616 1.74734C66.8827 0.479277 68.2705 0.388672 68.2705 0.388672C69.658 0.388672 71.1362 1.71719 71.1362 1.71719V0.509447H72.3704ZM68.3007 1.53604C67.3959 1.53604 166.491 2.44185 66.491 2.44185C65.5256 3.40806 65.5256 4.82715 65.5256 4.82715C65.5256 6.24624 66.491 7.18227 66.491 7.18227C67.426 8.08808 68.3609 8.08808 68.3609 8.08808C69.2959 8.08808 70.2309 7.1521 70.2309 7.1521C71.1658 6.21606 71.1658 4.79698 71.1658 4.79698C71.1658 3.37789 70.2309 2.44185 70.2309 2.44185C69.2959 1.53604 68.3007 1.53604 68.3007 1.53604Z" fill="#D6DBE4"></path> <path d="M81.3892 0.509447H82.5957V1.77762C82.5957 1.77762 83.7417 0.388672 85.3402 0.388672C86.9387 0.388672 88.3565 1.71719 88.3565 1.71719C89.653 2.95517 89.653 4.79698 89.653 4.79698V9.1147H88.4474V4.79698C88.4474 4.79698 88.4172 3.43823 87.4213 2.47205C86.4254 1.50587 85.4307 1.50587 85.4307 1.50587C84.436 1.50587 83.5613 2.47205 83.5613 2.47205C82.596 3.40806 82.5957 4.79698 82.5957 4.79698V9.1147H81.3892V0.509447Z" fill="#D6DBE4"></path> <path d="M157.382 7.21245C157.382 7.21245 156.99 7.03134 156.99 6.63909C156.99 6.27694 157.292 6.09583 157.292 6.09583C157.654 5.91472 158.106 5.91472 158.106 5.91472C158.559 5.91472 158.89 6.09583 158.89 6.45803C158.89 6.82023 158.589 7.03134 158.589 7.03134C158.227 7.21245 157.774 7.21245 157.774 7.21245H157.382ZM157.925 5.22047C156.779 5.22047 155.844 6.00532 155.844 6.57871C155.844 7.1521 156.779 7.90675 157.925 7.90675C159.071 7.90675 160.006 7.12193 160.006 6.54854C160.006 5.97515 159.071 5.22047 157.925 5.22047ZM157.774 5.61286H158.287C158.528 5.61286 158.679 5.73356 158.679 5.97506C158.679 6.15617 158.558 6.27694 158.347 6.27694H158.166V6.63909C158.166 6.75981 158.227 6.82015 158.377 6.82015C158.498 6.82015 158.619 6.79 158.619 6.79V7.12193C158.528 7.1521 158.377 7.18227 158.227 7.18227C157.865 7.18227 157.684 7.00117 157.684 6.69943V6.27694H157.503V7.12193H157.05V5.61286H157.774Z" fill="#D6DBE4"></path>
          </svg>