<svg viewBox="0 0 159 10" xmlns="http://www.w3.org/2000/svg">
            <path d="M7.37 1.62662H4.39011V9.1147H3.18612V1.62662H0.236328L0.236328 0.509447L7.37 0.509447V1.62662Z" fill="#D6DBE4" />
            <path d="M16.4602 0.388672C14.4435 0.388672 13.1793 1.68701 13.1793 1.68701C11.885 2.98534 11.885 4.79698
            11.885 4.79698C11.885 6.6388 13.1191 7.90694 13.1191 7.90694C14.3833 9.23547 16.4602 9.23547 16.4602
            9.23547C18.5672 9.23547 19.8615 7.87675 19.8615 7.87675C21.0956 6.6388 21.0956 4.79698 21.0956
            4.79698C21.0956 2.98534 19.8615 1.68701 19.8615 1.68701C18.5672 0.388672 16.4602 0.388672 16.4602
            0.388672ZM16.4602 1.53604C17.9351 1.53604 18.8682 2.47205 18.8682 2.47205C19.8314 3.40806 19.8314
            4.79698 19.8314 4.79698C19.8314 6.18589 18.8682 7.1521 18.8682 7.1521C17.9351 8.05791 16.4602 8.05791
            16.4602 8.05791C15.0154 8.05791 14.1124 7.1521 14.1124 7.1521C13.1793 6.18589 13.1793 4.79698 13.1793
            4.79698C13.1793 3.40806 14.1124 2.47205 14.1124 2.47205C15.0154 1.53604 16.4602 1.53604 16.4602
            1.53604Z" fill="#D6DBE4" />
            <path d="M34.8211 9.1147H33.587V2.41166L30.9382 5.73299H30.7275L28.1088
            2.41166H28.0787V9.1147H26.8446V0.509447L27.9884 0.509447L30.8479 4.04213L33.7074
            0.509447H34.8211V9.1147Z" fill="#D6DBE4" />
            <path d="M49.7808 9.1147H48.5467V2.41166H48.5166L45.8979 5.73299H45.6872L43.0384
            2.41166V9.1147H41.8043V0.509447H42.9481L45.7775 4.04213L48.6069 0.509447H49.7808V9.1147Z" fill="#D6DBE4" />
            <path d="M61.1886 0.509447H62.6635L59.4729 4.55543V9.1147H58.2689V4.55543L55.0783 0.509447H56.5833L58.901
            3.49864L61.1886 0.509447Z" fill="#D6DBE4" />
            <path d="M95.9239
            0.509447V9.1147H94.7199V5.37066H89.9039V9.1147H88.6698V0.509447H89.9039V4.25349H94.7199V0.509447H95.9239Z" fill="#D6DBE4" />
            <path d="M102.275 9.1147H101.041V0.509447H102.275V9.1147Z" fill="#D6DBE4" />
            <path d="M108.536 7.99753H112.389V9.1147H107.332V0.509447L108.536 0.509447V7.99753Z" fill="#D6DBE4" />
            <path d="M120.516 1.62662L117.144 1.62662V4.01194H120.516V5.12911H117.144V9.1147H115.91V0.509447L120.516
            0.509447V1.62662Z" fill="#D6DBE4" />
            <path d="M126.024 9.1147H124.82V0.509447H126.024V9.1147Z" fill="#D6DBE4" />
            <path d="M137.733 8.51082C137.733 8.51082 136.198 9.23547 134.482 9.23547C134.482 9.23547 132.495 9.23548
            131.231 7.99753C131.231 7.99753 129.937 6.75958 129.937 4.85736C129.937 4.85736 129.937 2.98534
            131.231 1.65681C131.231 1.65681 132.586 0.388672 134.512 0.388672C134.512 0.388672 135.866 0.388672
            137.582 1.14352V2.38147C137.582 2.38147 136.107 1.53604 134.482 1.53604C134.482 1.53604 133.097
            1.53604 132.134 2.50224C132.134 2.50224 131.201 3.43825 131.201 4.79698C131.201 4.79698 131.201
            6.24628 132.134 7.1521C132.134 7.1521 133.127 8.05791 134.632 8.05791L136.499
            7.75598V5.94434H134.873V4.88756H137.733V8.51082Z" fill="#D6DBE4" />
            <path d="M147.304
            1.62662H143.632V4.1931H147.184V5.31027H143.632V7.99753H147.425V9.1147H142.428V0.509447H147.304V1.62662Z" fill="#D6DBE4" />
            <path d="M151.609 0.509447V9.1147H152.843V5.37066H153.354C153.866 5.37066 154.288 5.6726 154.288
            5.6726C154.829 6.12551 155.612 7.36346 155.612 7.36346L156.726 9.1147H158.201L157.057 7.39365C155.853
            5.49144 155.16 5.00833 155.16 5.00833C156.575 4.43465 156.575 2.92496 156.575 2.92496C156.575 1.80778
            155.823 1.14352 155.823 1.14352C155.07 0.509447 153.746 0.509447 153.746 0.509447H151.609ZM152.843
            1.59643H153.625C155.311 1.59643 155.311 2.86457 155.311 2.86457C155.311 4.25349 153.625 4.25349
            153.625 4.25349H152.843V1.59643Z" fill="#D6DBE4" />
            <path d="M68.6233 0.509447V9.1147H81.6565V0.509447L68.6233 0.509447ZM69.4962 1.38507L80.7836
            1.38507V2.29089H69.4962V1.38507ZM69.4962 3.16651H74.7035V6.48783H69.4962V3.16651ZM75.5764
            3.16651L80.7836 3.16651V6.48783H75.5764V3.16651ZM69.4962 7.36346H80.7836V8.23908H69.4962V7.36346Z" fill="#D6DBE4" />
          </svg>