<svg xmlns="http://www.w3.org/2000/svg" viewBox="0 0 142 35">
            <path d="M82.3601 19.0504C82.3601 15.6927 80.9207 12.7261 76.0529 12.7261C73.5554 12.7261 71.5715 13.4369
            70.4959 14.0591L71.2843 16.7529C72.2746 16.1324 73.8548 15.6215 75.3463 15.6215C77.8107 15.618
            78.2145 17.0101 78.2145 17.9051V18.1206C72.8349 18.1119 69.4342 19.968 69.4342 23.748C69.4342 26.0577
            71.1607 28.2232 74.1786 28.2232C76.0199 28.2232 77.5757 27.4811 78.5051 26.3097H78.5956C78.5956
            26.3097 79.2083 28.8697 82.5968 27.8913C82.4245 26.8189 82.3601 25.6893 82.3601
            24.3163V19.0504ZM78.3468 22.5958C78.3468 22.8669 78.3242 23.1484 78.2441 23.39C77.9342 24.4241
            76.8657 25.2896 75.536 25.2896C74.4135 25.2896 73.5328 24.6552 73.5328 23.3257C73.5328 21.2923
            75.7814 20.7327 78.3468 20.7466" fill="#D6DBE4" />
            <path d="M0 8.15757C0 8.15757 3.5138 22.5129 4.07249 24.8382C4.73034 27.5564 5.90859 28.5609 9.30931
            27.8918L11.5057 18.9901C12.0608 16.7847 12.4385 15.2031 12.797 12.956H12.8579C13.1068 15.2257 13.4654
            16.7847 13.9196 18.997C13.9196 18.997 14.8158 23.0412 15.2806 25.1597C15.733 27.2783 17.007 28.6148
            20.3433 27.8918L25.5715 8.15757H21.351L19.5567 16.6943C19.0816 19.1674 18.6499 21.1156 18.314
            23.3818H18.2531C17.9503 21.1399 17.5657 19.2716 17.0714 16.849L15.2127 8.15757H10.8095L8.82546
            16.6265C8.25981 19.2125 7.73076 21.2859 7.39833 23.4809H7.34092C6.99808 21.4215 6.5334 18.7989
            6.04083 16.3102C6.04083 16.3102 4.86259 10.2466 4.44667 8.15757" fill="#D6DBE4" />
            <path d="M37.3331 19.0504C37.3331 15.6927 35.8902 12.7261 31.0224 12.7261C28.5319 12.7261 26.5444 13.4369
            25.4689 14.0591L26.2572 16.7529C27.2441 16.1324 28.8226 15.6215 30.3193 15.6215C32.7837 15.618
            33.1874 17.0101 33.1874 17.9051V18.1206C27.808 18.1119 24.4038 19.968 24.4038 23.748C24.4038 26.0577
            26.1372 28.2232 29.1411 28.2232C30.9997 28.2232 32.5418 27.4811 33.4712 26.3097H33.5651C33.5651
            26.3097 34.1812 28.8697 37.5662 27.8913C37.3922 26.8189 37.3331 25.6893 37.3331
            24.3163V19.0504ZM33.3163 22.5958C33.3163 22.8669 33.2937 23.1484 33.2171 23.39C32.9037 24.4241
            31.8352 25.2896 30.5021 25.2896C29.3865 25.2896 28.5023 24.6552 28.5023 23.3257C28.5023 21.2923
            30.7509 20.7327 33.3163 20.7466" fill="#D6DBE4" />
            <path d="M39.5231 8.15757V27.8848H43.5399V8.15757H39.5231Z" fill="#D6DBE4" />
            <path d="M94.6882 8.15757V22.7127C94.6882 24.7218 95.0658 26.1226 95.8785 26.9811C96.5922 27.7336 97.7599
            28.2237 99.1505 28.2237C100.344 28.2237 101.512 27.9943 102.064 27.7944L102.015 24.661C101.603
            24.7565 101.131 24.8382 100.484 24.8382C99.1122 24.8382 98.6597 23.971 98.6597
            22.167V16.5952H102.158V12.8257H98.6597V8.15757" fill="#D6DBE4" />
            <path d="M84.3061 13.0684V27.8913H88.4587V20.3C88.4587 19.8916 88.4847 19.5388 88.5492 19.212C88.8589 17.6114
            90.0754 16.5982 91.828 16.5982C92.317 16.5982 92.6494 16.6521 93.0185 16.7094V12.8234C92.7086 12.7678
            92.4981 12.7382 92.1169 12.7382C90.5628 12.7382 88.8014 13.7236 88.0583 15.87H87.9557V13.0684" fill="#D6DBE4" />
            <path d="M45.8725 13.0684V27.8913H49.9188V19.1912C49.9188 18.7828 49.964 18.3657 50.1085 17.9885C50.4375
            17.1074 51.2537 16.0872 52.5642 16.0872C54.1931 16.0872 54.9624 17.4602 54.9624
            19.4414V27.8913H58.9984V19.0869C58.9984 18.7028 59.0524 18.2318 59.1654 17.8912C59.4892 16.8919
            60.3733 16.0872 61.5951 16.0872C63.2415 16.0872 64.0386 17.4306 64.0386
            19.7664V27.8913H68.071V19.1512C68.071 14.5596 65.7319 12.7382 63.0761 12.7382C61.9083 12.7382 60.979
            13.025 60.1435 13.5394C59.4369 13.9722 58.8174 14.5822 58.2622 15.3799H58.2013C57.5626 13.7845
            56.0624 12.7382 54.1026 12.7382C51.5896 12.7382 50.4479 14.0052 49.7761 15.0758H49.7151V13.0684" fill="#D6DBE4" />
            <path d="M123.89 12.4032C124.683 12.4032 125.352 11.9895 125.439 11.4577L126.225 2.55953C126.225 1.6784
            125.186 0.957153 123.89 0.957153C122.586 0.957153 121.554 1.6784 121.554 2.55953L122.348
            11.4577C122.431 11.9895 123.096 12.4032 123.89 12.4032Z" fill="#D6DBE4" />
            <path d="M119.063 15.1875C119.456 14.4923 119.434 13.7207 119.009 13.3766L111.665 8.24794C110.901 7.80304
            109.757 8.33311 109.103 9.45581C108.45 10.5768 108.582 11.835 109.331 12.2713L117.462 16.0356C117.982
            16.2303 118.663 15.8688 119.063 15.1805" fill="#D6DBE4" />
            <path d="M128.715 15.1802C129.131 15.8684 129.812 16.2299 130.318 16.0457L138.449 12.2709C139.205 11.826
            139.318 10.5799 138.679 9.45893C138.026 8.33623 136.876 7.80964 136.114 8.24586L128.767
            13.3693C128.36 13.7186 128.331 14.4937 128.724 15.1872" fill="#D6DBE4" />
            <path d="M123.89 23.5181C124.683 23.5181 125.352 23.9317 125.439 24.4635L126.225 33.3617C126.225 34.2429
            125.186 34.9572 123.89 34.9572C122.586 34.9572 121.554 34.2429 121.554 33.3617L122.348
            24.4635C122.431 23.9317 123.096 23.5181 123.89 23.5181Z" fill="#D6DBE4" />
            <path d="M128.715 20.7416C129.131 20.0516 129.812 19.6832 130.318 19.883L138.449 23.6509C139.205 24.0871
            139.318 25.3436 138.679 26.4663C138.026 27.5803 136.876 28.1104 136.114 27.6742L128.767
            22.5438C128.36 22.198 128.331 21.4263 128.724 20.7416" fill="#D6DBE4" />
            <path d="M119.063 20.7339C119.456 21.4274 119.434 22.1973 119.009 22.5449L111.665 27.6665C110.901 28.1114
            109.757 27.5796 109.103 26.4656C108.45 25.3447 108.582 24.0864 109.331 23.6502L117.462
            19.8823C117.982 19.6842 118.663 20.0492 119.063 20.7339Z" fill="#D6DBE4" />
            <path d="M140.829 26.8933H140.93C141.067 26.8933 141.123 26.9368 141.139 27.0463C141.168 27.1679 141.184
            27.2496 141.213 27.2844H141.474C141.452 27.2583 141.422 27.1923 141.407 27.0393C141.377 26.9072
            141.309 26.8325 141.213 26.8064V26.7821C141.346 26.7526 141.422 26.6639 141.422 26.5544C141.422
            26.4554 141.377 26.3841 141.332 26.3389C141.245 26.2972 141.161 26.2642 140.977 26.2642C140.813
            26.2642 140.693 26.2781 140.597 26.3007V27.2844H140.829V26.8933ZM140.836 26.4449L140.954
            26.4293C141.093 26.4293 141.168 26.4936 141.168 26.584C141.168 26.6848 141.067 26.7317 140.938
            26.7317H140.836V26.4449ZM140.984 25.7776C140.413 25.7776 139.96 26.2225 139.96 26.7682C139.96 27.3278
            140.413 27.7727 140.984 27.7727C141.561 27.7727 142 27.3278 142 26.7682C142 26.2225 141.561 25.7776
            140.984 25.7776ZM140.984 25.9774C141.422 25.9774 141.748 26.332 141.748 26.7682C141.748 27.2079
            141.422 27.5729 140.984 27.5659C140.545 27.5659 140.213 27.2079 140.213 26.7682C140.213 26.332
            140.545 25.9774 140.977 25.9774" fill="#D6DBE4" />
          </svg>