<?xml version="1.0" encoding="UTF-8"?>
<svg version="1.1" xmlns="http://www.w3.org/2000/svg" width="200" height="200">
<path d="M0 0 C0.94793427 -0.01283524 1.89586853 -0.02567047 2.87252808 -0.03889465 C3.89959869 -0.04628159 4.92666931 -0.05366852 5.98486328 -0.0612793 C7.56450363 -0.07338692 7.56450363 -0.07338692 9.17605591 -0.08573914 C11.40706736 -0.099585 13.63810005 -0.1103049 15.86914062 -0.11816406 C19.28442356 -0.13539336 22.6987428 -0.1792777 26.11376953 -0.22338867 C28.27912698 -0.2335139 30.44449267 -0.24203054 32.60986328 -0.2487793 C33.63288544 -0.26628738 34.65590759 -0.28379547 35.70993042 -0.30183411 C42.76367968 -0.28020826 42.76367968 -0.28020826 45.87695312 1.85546875 C46.3895166 2.62157471 46.90208008 3.38768066 47.43017578 4.17700195 C48.03442383 5.04341309 48.63867188 5.90982422 49.26123047 6.80249023 C49.86870117 7.77428223 50.47617188 8.74607422 51.10205078 9.74731445 C51.76591797 10.80821289 52.42978516 11.86911133 53.11376953 12.9621582 C54.13664062 14.61538086 54.13664062 14.61538086 55.18017578 16.30200195 C55.87755859 17.41188477 56.57494141 18.52176758 57.29345703 19.6652832 C62.43017578 27.91821098 62.43017578 27.91821098 62.43017578 30.17700195 C53.52017578 30.17700195 44.61017578 30.17700195 35.43017578 30.17700195 C35.43017578 32.81700195 35.43017578 35.45700195 35.43017578 38.17700195 C37.38115663 40.12798281 41.07692507 39.43115303 43.74658203 39.4934082 C44.84316383 39.52457985 44.84316383 39.52457985 45.9618988 39.55638123 C48.30539234 39.62195219 50.64900117 39.68079627 52.99267578 39.73950195 C54.57797433 39.78268003 56.16326107 39.82629408 57.74853516 39.87036133 C61.64229616 39.97764115 65.5361735 40.07888685 69.43017578 40.17700195 C65.55496019 44.75851652 61.58634784 49.22766328 57.49267578 53.61450195 C54.25909929 57.09711918 51.03779712 60.58071288 47.93017578 64.17700195 C44.37912522 68.28236285 40.68686805 72.25227313 36.99731445 76.23266602 C32.98154283 80.56835634 29.01636708 84.94558105 25.07470703 89.34887695 C22.55531378 92.14953264 22.55531378 92.14953264 19.86767578 92.73950195 C14.46076868 91.85473534 11.94392312 88.17397584 8.43017578 84.17700195 C7.88748047 83.56469727 7.34478516 82.95239258 6.78564453 82.3215332 C5.67665367 81.05604242 4.57417895 79.78482215 3.47705078 78.5090332 C0.8485089 75.51430133 -1.8590914 72.59724593 -4.56982422 69.67700195 C-8.32804662 65.62513251 -12.02994524 61.54163778 -15.64013672 57.35668945 C-18.88053593 53.69648144 -22.22738738 50.13283499 -25.57177734 46.56762695 C-29.46188836 42.39287366 -29.46188836 42.39287366 -30.56982422 40.17700195 C-19.67982422 39.84700195 -8.78982422 39.51700195 2.43017578 39.17700195 C3.77105935 34.32762493 3.77105935 34.32762493 2.43017578 30.17700195 C-6.14982422 30.17700195 -14.72982422 30.17700195 -23.56982422 30.17700195 C-21.07482262 23.93949796 -17.63363626 18.60245589 -14.06982422 12.92700195 C-13.03535156 11.25637695 -13.03535156 11.25637695 -11.97998047 9.55200195 C-11.31869141 8.4949707 -10.65740234 7.43793945 -9.97607422 6.34887695 C-9.37085937 5.38046875 -8.76564453 4.41206055 -8.14208984 3.41430664 C-5.73881165 -0.00551344 -3.97737203 0.04682333 0 0 Z " fill="#6363F8" transform="translate(81.56982421875,59.822998046875)"/>
<path d="M0 0 C0.94793427 -0.01283524 1.89586853 -0.02567047 2.87252808 -0.03889465 C3.89959869 -0.04628159 4.92666931 -0.05366852 5.98486328 -0.0612793 C7.56450363 -0.07338692 7.56450363 -0.07338692 9.17605591 -0.08573914 C11.40706736 -0.099585 13.63810005 -0.1103049 15.86914062 -0.11816406 C19.28442356 -0.13539336 22.6987428 -0.1792777 26.11376953 -0.22338867 C28.27912698 -0.2335139 30.44449267 -0.24203054 32.60986328 -0.2487793 C33.63288544 -0.26628738 34.65590759 -0.28379547 35.70993042 -0.30183411 C42.76367968 -0.28020826 42.76367968 -0.28020826 45.87695312 1.85546875 C46.3895166 2.62157471 46.90208008 3.38768066 47.43017578 4.17700195 C48.03442383 5.04341309 48.63867188 5.90982422 49.26123047 6.80249023 C49.86870117 7.77428223 50.47617188 8.74607422 51.10205078 9.74731445 C51.76591797 10.80821289 52.42978516 11.86911133 53.11376953 12.9621582 C54.13664062 14.61538086 54.13664062 14.61538086 55.18017578 16.30200195 C55.87755859 17.41188477 56.57494141 18.52176758 57.29345703 19.6652832 C62.43017578 27.91821098 62.43017578 27.91821098 62.43017578 30.17700195 C52.86017578 30.17700195 43.29017578 30.17700195 33.43017578 30.17700195 C32.77017578 28.19700195 32.11017578 26.21700195 31.43017578 24.17700195 C28.43401632 22.87243635 28.43401632 22.87243635 25.43017578 22.17700195 C24.93517578 21.18700195 24.93517578 21.18700195 24.43017578 20.17700195 C23.52267578 20.36262695 22.61517578 20.54825195 21.68017578 20.73950195 C18.74703254 21.13434816 17.16571009 21.12391767 14.43017578 20.17700195 C13.77017578 21.16700195 13.11017578 22.15700195 12.43017578 23.17700195 C9.80517578 23.86450195 9.80517578 23.86450195 7.43017578 24.17700195 C7.34767578 24.96075195 7.26517578 25.74450195 7.18017578 26.55200195 C6.43017578 29.17700195 6.43017578 29.17700195 4.76318359 30.3425293 C1.80080893 31.40211454 -0.50735164 31.30751531 -3.64794922 31.15356445 C-4.80810547 31.10200195 -5.96826172 31.05043945 -7.16357422 30.99731445 C-8.37013672 30.93286133 -9.57669922 30.8684082 -10.81982422 30.80200195 C-12.65287109 30.71692383 -12.65287109 30.71692383 -14.52294922 30.63012695 C-17.53917441 30.4887414 -20.55455652 30.3373346 -23.56982422 30.17700195 C-21.27329955 23.92281877 -17.5978679 18.54549395 -14.06982422 12.92700195 C-13.38017578 11.81325195 -12.69052734 10.69950195 -11.97998047 9.55200195 C-11.31869141 8.4949707 -10.65740234 7.43793945 -9.97607422 6.34887695 C-9.37085937 5.38046875 -8.76564453 4.41206055 -8.14208984 3.41430664 C-5.73881165 -0.00551344 -3.97737203 0.04682333 0 0 Z " fill="#6363F7" transform="translate(81.56982421875,59.822998046875)"/>
<path d="M0 0 C0.9075 0.185625 1.815 0.37125 2.75 0.5625 C5.68314324 0.95734621 7.2644657 0.94691572 10 0 C10.66 0.99 11.32 1.98 12 3 C15.05429073 4.21284876 15.05429073 4.21284876 18 5 C18.12375 5.804375 18.2475 6.60875 18.375 7.4375 C18.58125 8.283125 18.7875 9.12875 19 10 C19.66 10.33 20.32 10.66 21 11 C21.08086147 12.79093191 21.13912702 14.58289628 21.1875 16.375 C21.23970703 17.87160156 21.23970703 17.87160156 21.29296875 19.3984375 C21.14794922 20.68621094 21.14794922 20.68621094 21 22 C20.01 22.66 19.02 23.32 18 24 C17.27034634 26.56282742 17.27034634 26.56282742 17 29 C15.35 29 13.7 29 12 29 C11.34 30.32 10.68 31.64 10 33 C6.37 33 2.74 33 -1 33 C-1.33 32.34 -1.66 31.68 -2 31 C-3.97888961 30.27306096 -5.97954558 29.60183749 -8 29 C-8.103125 28.21625 -8.20625 27.4325 -8.3125 26.625 C-8.77595022 23.66954819 -8.77595022 23.66954819 -12 22 C-11.835 20.9275 -11.67 19.855 -11.5 18.75 C-10.91189085 14.96971248 -10.91189085 14.96971248 -11 11 C-10.01 10.67 -9.02 10.34 -8 10 C-8.020625 9.195625 -8.04125 8.39125 -8.0625 7.5625 C-8 5 -8 5 -7 4 C-5.33382885 3.95936168 -3.66611905 3.957279 -2 4 C-1.34 2.68 -0.68 1.36 0 0 Z " fill="#FAFAFC" transform="translate(96,79)"/>
<path d="M0 0 C-7.76811364 13.26954366 -7.76811364 13.26954366 -14 17 C-17 17.75 -17 17.75 -20 18 C-21.794375 18.556875 -21.794375 18.556875 -23.625 19.125 C-26.75861657 19.93741911 -28.06955903 20.17217639 -31 19 C-31 18.34 -31 17.68 -31 17 C-31.66 16.67 -32.32 16.34 -33 16 C-32.67 15.67 -32.34 15.34 -32 15 C-32.61488281 14.90203125 -33.22976562 14.8040625 -33.86328125 14.703125 C-40.41893017 13.49027767 -40.41893017 13.49027767 -43 11.3125 C-44.3258408 8.24649314 -44.68172519 5.31005807 -45 2 C-45.99 2 -46.98 2 -48 2 C-48 1.34 -48 0.68 -48 0 C-45.07674878 -0.24360427 -43.37152557 -0.19608294 -40.75 1.1875 C-38.61081236 3.40308719 -38.32627286 4.98197607 -38 8 C-36.02 8.66 -34.04 9.32 -32 10 C-32 10.66 -32 11.32 -32 12 C-25.90724034 11.4493896 -25.90724034 11.4493896 -20 10 C-19.67 9.34 -19.34 8.68 -19 8 C-17.35 8 -15.7 8 -14 8 C-14.0825 7.2575 -14.165 6.515 -14.25 5.75 C-14 3 -14 3 -12.625 0.625 C-8.51366798 -1.9201103 -4.61079536 -0.80952896 0 0 Z " fill="#4C4CB2" transform="translate(127,100)"/>
<path d="M0 0 C1.37310707 1.29233607 2.71034824 2.62437146 4 4 C5.2684375 4.495 5.2684375 4.495 6.5625 5 C9.55638704 6.22826135 10.52291825 7.12357765 12 10 C12.1875 13.75 12.1875 13.75 12 17 C10.35 16.67 8.7 16.34 7 16 C6.67 14.35 6.34 12.7 6 11 C5.030625 10.71125 4.06125 10.4225 3.0625 10.125 C0 9 0 9 -1 7 C-1.9075 7.185625 -2.815 7.37125 -3.75 7.5625 C-6.68314324 7.95734621 -8.2644657 7.94691572 -11 7 C-11.99 8.485 -11.99 8.485 -13 10 C-15.625 10.6875 -15.625 10.6875 -18 11 C-18.0825 11.78375 -18.165 12.5675 -18.25 13.375 C-19 16 -19 16 -20.625 17.375 C-23.93928051 18.24717908 -26.67112389 17.64016848 -30 17 C-25.82004663 8.33189394 -21.49700115 3.20972239 -12.5 -0.5 C-7.68801089 -2.08419395 -4.68875913 -2.29653508 0 0 Z " fill="#4949B3" transform="translate(107,73)"/>
<path d="M0 0 C2.31 0 4.62 0 7 0 C-0.76811364 13.26954366 -0.76811364 13.26954366 -7 17 C-10 17.75 -10 17.75 -13 18 C-14.794375 18.556875 -14.794375 18.556875 -16.625 19.125 C-19.75861657 19.93741911 -21.06955903 20.17217639 -24 19 C-24 18.34 -24 17.68 -24 17 C-24.66 16.67 -25.32 16.34 -26 16 C-24.27193656 14.27193656 -21.79353231 14.79070542 -19.4375 14.6875 C-13.98051259 14.23383121 -9.19381721 13.76765565 -5 10 C-2.9486037 6.80503804 -1.39913326 3.52473957 0 0 Z " fill="#5050C9" transform="translate(120,100)"/>
<path d="M0 0 C0.99 1.32 1.98 2.64 3 4 C-2.28 3.67 -7.56 3.34 -13 3 C-13.33 3.99 -13.66 4.98 -14 6 C-15.65071396 7.02611949 -17.31970006 8.02308143 -19 9 C-21.89486792 11.49280294 -23.45285711 13.16999977 -24 17 C-25.98 17 -27.96 17 -30 17 C-25.82004663 8.33189394 -21.49700115 3.20972239 -12.5 -0.5 C-7.47298155 -2.15725883 -4.74833938 -2.37416969 0 0 Z " fill="#5151CC" transform="translate(107,73)"/>
<path d="M0 0 C1.65 0 3.3 0 5 0 C-4.09698276 15.53952678 -4.09698276 15.53952678 -11.9375 17.875 C-12.618125 17.91625 -13.29875 17.9575 -14 18 C-14.33 17.34 -14.66 16.68 -15 16 C-14.38511719 15.60167969 -13.77023438 15.20335938 -13.13671875 14.79296875 C-12.32847656 14.26316406 -11.52023438 13.73335937 -10.6875 13.1875 C-9.88699219 12.66542969 -9.08648437 12.14335938 -8.26171875 11.60546875 C-4.86537074 9.19458959 -2.8532193 7.20098205 -1.3125 3.3125 C-0.879375 2.219375 -0.44625 1.12625 0 0 Z " fill="#5858DC" transform="translate(122,100)"/>
<path d="M0 0 C1.9375 0.6875 1.9375 0.6875 4 2 C4.75 4.625 4.75 4.625 5 7 C6.98 7.66 8.96 8.32 11 9 C11 9.66 11 10.32 11 11 C11.99 11.33 12.98 11.66 14 12 C11.03 12 8.06 12 5 12 C5 11.01 5 10.02 5 9 C2.525 8.01 2.525 8.01 0 7 C0 4.69 0 2.38 0 0 Z " fill="#4C4CB2" transform="translate(84,101)"/>
<path d="M0 0 C0 3 0 3 -1.6796875 4.8671875 C-3.13779932 6.20076308 -4.59613104 7.53409826 -6.0546875 8.8671875 C-8.13521889 11.14825203 -9.03665267 13.08967703 -10 16 C-11.32 15.67 -12.64 15.34 -14 15 C-10.21027903 8.83162438 -6.65856431 3.32928216 0 0 Z " fill="#5757DA" transform="translate(91,74)"/>
<path d="M0 0 C2.93167219 0.31693753 4.58982661 0.63225834 6.8125 2.625 C8.41568775 5.8313755 8.20379759 8.46750852 8 12 C6.68 11.67 5.36 11.34 4 11 C3.896875 10.071875 3.79375 9.14375 3.6875 8.1875 C2.97429072 4.88080243 2.44405178 4.12526242 0 2 C0 1.34 0 0.68 0 0 Z " fill="#4F4FC3" transform="translate(111,78)"/>
<path d="M0 0 C0.99 0.33 1.98 0.66 3 1 C1.72278474 5.99275057 -0.17330957 8.57611908 -4 12 C-7 11 -7 11 -9 9 C-7.35 9 -5.7 9 -4 9 C-4.0825 8.2575 -4.165 7.515 -4.25 6.75 C-3.92894816 3.21842973 -2.64734383 2.23369636 0 0 Z " fill="#5050AE" transform="translate(117,99)"/>
<path d="M0 0 C1.65 0 3.3 0 5 0 C5 2.64 5 5.28 5 8 C7.475 8.99 7.475 8.99 10 10 C10 10.99 10 11.98 10 13 C11.32 13.33 12.64 13.66 14 14 C7.59618442 13.51669316 7.59618442 13.51669316 5.125 11.375 C3.66227332 8.28702146 3.32526393 5.38274486 3 2 C2.01 2 1.02 2 0 2 C0 1.34 0 0.68 0 0 Z " fill="#5050C9" transform="translate(79,100)"/>
<path d="M0 0 C3.50150804 0.29179234 4.78286467 0.78286467 7.3125 3.3125 C9 6 9 6 9 10 C8.34 10 7.68 10 7 10 C6.67 8.35 6.34 6.7 6 5 C4.02 4.34 2.04 3.68 0 3 C0 2.01 0 1.02 0 0 Z " fill="#4444A7" transform="translate(107,79)"/>
<path d="M0 0 C0 0.33 0 0.66 0 1 C-6.435 1.495 -6.435 1.495 -13 2 C-12 0 -12 0 -9.3125 -1.25 C-5.45771096 -2.12278242 -3.58041902 -1.53446529 0 0 Z " fill="#5959DE" transform="translate(106,73)"/>
<path d="M0 0 C3.63 0 7.26 0 11 0 C8.59436247 2.40563753 7.32990189 2.60358311 4 3 C1.6875 2.5625 1.6875 2.5625 0 2 C0 1.34 0 0.68 0 0 Z " fill="#5757DA" transform="translate(96,117)"/>
<path d="M0 0 C1.98 0.99 1.98 0.99 4 2 C4 3.65 4 5.3 4 7 C2.68 6.34 1.36 5.68 0 5 C0 3.35 0 1.7 0 0 Z " fill="#4444A7" transform="translate(84,101)"/>
<path d="M0 0 C1.125 1.75 1.125 1.75 2 4 C1.125 6.25 1.125 6.25 0 8 C-3 7 -3 7 -5 5 C-3.35 5 -1.7 5 0 5 C0 3.35 0 1.7 0 0 Z " fill="#7878C1" transform="translate(113,103)"/>
<path d="M0 0 C0.33 0 0.66 0 1 0 C1 1.65 1 3.3 1 5 C-0.98 5.99 -0.98 5.99 -3 7 C-2.25 2.25 -2.25 2.25 0 0 Z " fill="#4545A0" transform="translate(87,84)"/>
</svg>
