<?xml version="1.0" encoding="UTF-8"?>
<svg id="Layer_1" xmlns="http://www.w3.org/2000/svg" version="1.1" viewBox="0 0 841.9 595.3">
  <!-- Generator: Adobe Illustrator 29.1.0, SVG Export Plug-In . SVG Version: 2.1.0 Build 142)  -->
  <defs>
    <style>
      .st0 {
        fill: #93212f;
      }
    </style>
  </defs>
  <path class="st0" d="M553.8,142.8v85.7c-2.8-2.6-5.7-5-8.7-7.2-20.9-15.8-47-25.2-75.2-25.2-56.9,0-104.9,38-120,90-.6-5.3-.9-10.7-.9-16.1,0-78.4,63.5-141.9,141.9-141.9s43.9,5.3,62.9,14.7Z"/>
  <path class="st0" d="M462.3,207.4c-46.3,0-83.9,37.6-83.9,83.9v89h74.7v-18.8l61.9,61.9h6v-53.7h25.2v-78.4c0-46.3-37.6-83.9-83.9-83.9ZM530.6,353.1l-30.6-30.6v-27.7l30.6,30.7v27.6Z"/>
  <polygon class="st0" points="472.4 422.7 472.4 423.4 378.4 423.4 378.4 396 453.6 396 472.4 422.7"/>
  <rect class="st0" x="442.6" y="167.4" width="39.3" height="54.6"/>
</svg>