<?xml version="1.0" encoding="UTF-8"?>
<svg id="Layer_1" data-name="Layer 1" xmlns="http://www.w3.org/2000/svg" viewBox="0 0 183.28 264.33">
  <defs>
    <style>
      .cls-1 {
        fill: #fff;
      }
    </style>
  </defs>
  <path class="cls-1" d="M183.28,13.13v76.73c-2.51-2.29-5.11-4.44-7.81-6.48-18.73-14.15-42.04-22.52-67.29-22.52C57.28,60.86,14.32,94.89.82,141.43c-.53-4.74-.82-9.55-.82-14.43C0,56.86,56.86,0,127,0c20.22,0,39.32,4.72,56.28,13.13Z"/>
  <path class="cls-1" d="M101.33,70.99c-41.47,0-75.08,33.61-75.08,75.08v79.68h66.88v-16.78l55.37,55.37h5.4v-48.11h22.54v-70.16c0-41.47-33.63-75.08-75.1-75.08ZM162.5,201.39l-27.43-27.43v-24.75l27.43,27.45v24.73Z"/>
  <polygon class="cls-1" points="110.42 263.62 110.42 264.33 26.25 264.33 26.25 239.74 93.53 239.74 110.42 263.62"/>
  <rect class="cls-1" x="83.74" y="35.15" width="35.2" height="48.91"/>
</svg>
